<?xml version="1.0" encoding="utf-8"?>
<!-- Generator: Adobe Illustrator 21.1.0, SVG Export Plug-In . SVG Version: 6.00 Build 0)  -->
<svg version="1.1" xmlns="http://www.w3.org/2000/svg" xmlns:xlink="http://www.w3.org/1999/xlink" x="0px" y="0px"
	 viewBox="0 0 117.4 114.9" style="enable-background:new 0 0 117.4 114.9;" xml:space="preserve">
<style type="text/css">
	.st0{fill:#FD393C;}
	.st1{fill:#333131;}
</style>
<g id="Calque_21">
</g>
<g id="Calque_9">
	<g id="Calque_6">
	</g>
	<g id="Calque_4">
	</g>
</g>
<g id="Calque_11">
	<g id="Calque_4_-_copie">
	</g>
	<g id="Calque_12">
	</g>
</g>
<g id="Calque_11_-_copie">
	<g id="Calque_4_-_copie_2">
	</g>
	<g id="Calque_12_-_copie">
	</g>
</g>
<g id="Calque_16">
</g>
<g id="Calque_17">
</g>
<g id="Calque_19">
</g>
<g id="Calque_20">
</g>
<g id="Calque_14">
</g>
<g id="Calque_14_-_copie">
	<path class="st0" d="M0,0v114.9h117.4V0H0z M108,105.8H9.5V9.4H108V105.8z"/>
	<path class="st1" d="M45.8,31.4H34.1L17.9,81.2h9.7l4.3-14.1h15.6l4.5,14.1h9.8L45.8,31.4z M33.3,60.2l6.1-21.4l6.5,21.4H33.3z"/>
	<path class="st1" d="M97.7,65.8c0,0,0.4-1,0.4-3.8c0-13.8-9.6-17.5-15.9-17.5C76,44.5,65,48.9,65,63.7s10.8,18.4,18.5,18.4
		s12.6-2.4,12.6-2.4l-1.3-6.4c0,0-4.1,1.7-9.9,1.7c-11.2,0-11.1-9.3-11.1-9.3H97.7z M82.1,50.7c7.7,0,7.2,8.7,7.2,8.7H73.8
		C73.8,59.4,74.4,50.7,82.1,50.7z"/>
</g>
<g id="Calque_14_-_copie_3">
</g>
<g id="Calque_14_-_copie_2">
</g>
<g id="Calque_14_-_copie_4">
</g>
</svg>
