<?xml version="1.0" encoding="utf-8"?>
<!-- Generator: Adobe Illustrator 21.1.0, SVG Export Plug-In . SVG Version: 6.00 Build 0)  -->
<svg version="1.1" id="Layer_5" xmlns="http://www.w3.org/2000/svg" xmlns:xlink="http://www.w3.org/1999/xlink" x="0px" y="0px"
	 viewBox="0 0 924.6 183.7" style="enable-background:new 0 0 924.6 183.7;" xml:space="preserve">
<style type="text/css">
	.st0{fill:#9A9A9A;}
</style>
<polygon class="st0" points="94.1,126.9 47.4,4.5 0,4.5 0,179.2 29.6,179.2 29.6,32.8 83.2,179.2 104.9,179.2 158.5,32.7 
	158.5,179.2 188.1,179.2 188.1,4.5 141.2,4.5 "/>
<rect x="227.1" y="4.5" class="st0" width="31.1" height="174.8"/>
<polygon class="st0" points="432.9,4.5 390.9,4.5 327.6,69.3 327.6,4.5 296.5,4.5 296.5,179.2 327.6,179.2 327.6,103.3 394.6,179.2 
	438.3,179.2 351.2,85.2 "/>
<path class="st0" d="M569.5,86.4c7-8.6,10.5-19.2,10.5-31.8c0-9.9-1.8-18-5.4-24.4c-3.6-6.4-8.5-11.5-14.6-15.3
	c-6.1-3.8-13-6.5-20.9-8c-7.8-1.6-15.9-2.3-24.3-2.3h-60.7v174.8h31.1v-74.1h22.7l40.5,74.1h37.5L539.5,102
	C552.5,100.2,562.5,95,569.5,86.4z M522.7,77.9c-4.4,0.4-8.9,0.6-13.3,0.6h-24.2V31.1h26.9c3.9,0,8,0.2,12.2,0.7
	c4.2,0.5,8,1.5,11.5,3.1c3.5,1.6,6.3,3.9,8.4,7c2.1,3.1,3.2,7.2,3.2,12.3c0,5.8-1.2,10.2-3.5,13.5c-2.3,3.2-5.3,5.6-9,7.2
	C531.2,76.5,527.1,77.5,522.7,77.9z"/>
<path class="st0" d="M759.4,24.5c-8.2-8.1-18-14.2-29.4-18.4c-11.4-4.2-23.9-6.2-37.5-6c-13.5,0-25.9,2.2-37.2,6.5
	c-11.3,4.4-21,10.6-29.1,18.6c-8.1,8.1-14.5,17.8-19.1,29.3c-4.6,11.4-6.9,24.2-6.9,38.1c0,13.7,2.3,26.1,6.9,37.3
	c4.6,11.2,11,20.8,19.1,28.8c8.1,8,17.9,14.2,29.1,18.5c11.3,4.4,23.7,6.5,37.2,6.5c13.7-0.2,26.2-2.5,37.5-7
	c11.4-4.5,21.1-10.8,29.4-18.9c8.2-8.1,14.6-17.7,19.3-28.9c4.6-11.2,6.9-23.6,6.9-37.3c0-14-2.3-26.7-6.9-38
	C774.1,42.2,767.7,32.5,759.4,24.5z M748.7,116.5c-2.9,7.9-7,14.7-12.2,20.5c-5.3,5.8-11.6,10.3-19,13.6c-7.4,3.3-15.6,4.9-24.7,4.9
	c-9.1,0-17.2-1.6-24.6-4.9c-7.3-3.3-13.6-7.8-18.9-13.6c-5.3-5.8-9.3-12.6-12.2-20.5c-2.9-7.9-4.3-16.5-4.3-25.9
	c0-8.7,1.4-16.9,4.3-24.4c2.9-7.6,7-14.2,12.2-19.9c5.3-5.7,11.6-10.1,18.9-13.3c7.3-3.2,15.5-4.8,24.6-4.8c9.1,0,17.3,1.6,24.7,4.8
	c7.4,3.2,13.7,7.7,19,13.3c5.3,5.7,9.3,12.3,12.2,19.9c2.9,7.6,4.3,15.7,4.3,24.4C753,100,751.6,108.6,748.7,116.5z"/>
<path class="st0" d="M918.4,103c-4.1-6.3-9.2-11.3-15.3-15.1c-6.1-3.8-12.8-6.7-20-8.9c-7.2-2.1-13.9-4.4-20-6.7
	c-6.1-2.3-11.2-5-15.3-8.1c-4.1-3.1-6.2-7.7-6.2-13.6c0-3.9,0.8-7.4,2.5-10.2c1.6-2.9,3.8-5.2,6.5-7c2.7-1.8,5.8-3.1,9.1-3.9
	c3.4-0.8,6.9-1.2,10.5-1.2c6.1,0,11.9,1.1,17.4,3.3c5.5,2.2,9.9,5.7,13.2,10.5L923.6,18c-6.9-6.4-14.7-11-23.3-13.8
	C891.7,1.4,882.7,0,873.5,0c-8.1,0-16,1.1-23.7,3.2c-7.7,2.1-14.6,5.4-20.6,9.8c-6,4.4-10.9,9.8-14.6,16.4
	c-3.7,6.6-5.6,14.4-5.6,23.5c0,10.4,2.1,18.6,6.2,24.8c4.1,6.2,9.2,11.1,15.3,14.8c6.1,3.7,12.8,6.6,20,8.8c7.2,2.1,13.9,4.4,20,6.8
	c6.1,2.4,11.2,5.3,15.3,8.8c4.1,3.5,6.2,8.4,6.2,14.8c0,3.9-0.9,7.4-2.7,10.5c-1.8,3-4.2,5.6-7.2,7.5c-3,2-6.3,3.5-9.9,4.4
	c-3.6,1-7.2,1.5-10.9,1.5c-6.9,0-13.5-1.6-19.6-4.8c-6.2-3.2-11.2-7.7-14.9-13.5L803.4,160c7.2,8.6,15.9,14.7,25.9,18.3
	c10,3.6,20.5,5.4,31.4,5.4c8.6,0,16.7-1.2,24.4-3.5c7.7-2.3,14.5-5.8,20.4-10.4c5.8-4.6,10.5-10.4,13.9-17.4
	c3.5-7,5.2-15.2,5.2-24.6C924.6,117.5,922.6,109.2,918.4,103z"/>
</svg>
