<?xml version="1.0" encoding="utf-8"?>
<!-- Generator: Adobe Illustrator 22.1.0, SVG Export Plug-In . SVG Version: 6.00 Build 0)  -->
<svg version="1.1" id="Calque_24" xmlns="http://www.w3.org/2000/svg" xmlns:xlink="http://www.w3.org/1999/xlink" x="0px" y="0px"
	 viewBox="0 0 136.7 136.7" style="enable-background:new 0 0 136.7 136.7;" xml:space="preserve">
<style type="text/css">
	.st0{fill:#FD393C;}
	.st1{fill:#333131;}
</style>
<path class="st0" d="M136.7,68.3c0,2.1-0.1,4.2-0.3,6.3c-0.1,1.6-0.4,3.2-0.6,4.8c-5.3,32.5-33.5,57.2-67.4,57.2
	c-17.3,0-33.1-6.4-45.1-17c-4.4-3.9-8.4-8.4-11.7-13.3C4.2,95.4,0,82.4,0,68.3C0,30.6,30.6,0,68.3,0S136.7,30.6,136.7,68.3z"/>
<path class="st1" d="M119.3,76.1c-2.1,0.8-2,0.8-3.1-1.2c-1.4-2.5-2.1-5.2-2.2-8.1c-0.1-2.5,0.6-4.8,1.5-7.1
	c0.7-1.8-0.2-2.4-1.8-2.6c-1.1-0.1-2.3-0.1-3.5,0c-3,0.3-3.3,0.6-4.1,3.4c-0.5,1.7-0.8,3.4-1.6,5.1c-1.9,4-4.1,7.9-6.3,11.7
	c-0.4,0.7-0.7,1.4-1.3,2c-1.6-2.4-2.2-5.1-2.4-7.9c-0.1-2.8,0.7-5.4,1.6-7.9c0.3-0.9,0.1-1.4-0.7-1.8c-0.3-0.2-0.7-0.3-1.1-0.3
	c-1.9-0.2-3.8-0.1-5.7,0.4c-0.8,0.2-1.4,0.7-1.6,1.6c-0.4,1.8-0.9,3.6-1.7,5.3c-2.1,4.8-4.2,9.5-6.3,14.3c-1.8,4.1-3.7,8.3-5.8,12.3
	c-0.2,0.3-0.3,0.8-0.7,0.7c-0.4-0.1-0.3-0.6-0.3-0.9c-0.1-2.3,0.5-4.6,1.1-6.8c0.9-3.5,1.8-7.1,2.7-10.6c0.3-1-0.2-1.7-1-2.2
	c-1.2-0.7-2.4-0.7-3.7,0.2c0.2-1.4,0.3-2.7,0.2-4c-0.1-2.8-1.4-4.6-3.7-5.1c-1.7-0.3-3.2,0.2-4.7,0.9c-3.5,1.6-6.2,4.1-8.6,7.1
	c-0.3,0.3-0.5,0.7-0.9,0.9c-4.4,2.4-8.8,4.8-13.1,7.2c-0.5,0.3-0.8,0.2-1.1-0.2c-2.2-2.4-4.8-4.3-7.3-6.3c-3.5-2.8-7.2-5.4-10.3-8.7
	c-1.8-2-3.3-4.1-4-6.7c-1.2-4.2-0.3-8.2,1.7-11.9c2.4-4.4,5.9-7.8,9.9-10.9c6.2-4.8,13-8.7,20.2-11.8c8.1-3.5,16.4-5.8,25.3-5.5
	c3.5,0.1,6.9,0.7,10.1,2.5c2.2,1.2,3.7,3,4.1,5.6c0.5,3-0.2,5.8-1.6,8.5c-3,5.9-7.8,10.1-13.4,13.4c-4.7,2.7-9.8,4.5-15.2,5.4
	c-3,0.5-6,0.8-8.9,0.4c-3.4-0.5-6.6-1.7-8.9-4.4c-0.3-0.3-0.6-0.5-1.1-0.3c-0.5,0.2-0.4,0.6-0.4,1c0,0.3,0.1,0.6,0.2,0.8
	c0.6,1.7,1.8,3,3.2,4.1c3.6,2.9,7.8,3.8,12.3,3.8c4.4,0.1,8.6-0.5,12.9-1.5c9.6-2.3,17.6-7,23.4-15c3.5-4.8,5.7-10.1,5.5-16.2
	c-0.1-3.8-1.4-7.2-4.2-10C89.5,15.6,85.4,14,81,13c-4.9-1.1-9.9-1.3-15-0.7c-4.4,0.5-8.7,1.4-12.8,2.9c-6.4,2.2-12.6,4.9-18.5,8.2
	c-6,3.4-11.7,7.2-16.7,12c-4.4,4.3-8.2,9-10.4,14.8c-0.9,2.5-1.6,5.1-1,7.8c0.8,3.5,2.5,6.5,4.8,9.2c3.4,4.1,7.6,7.4,11.9,10.5
	c3.5,2.5,7.1,4.8,10.4,7.4c0.9,0.8,0.9,0.8-0.2,1.3c-1.3,0.7-2.6,1.3-3.9,2.1c-5.2,2.9-10.1,6.1-14.2,10.5c-2,2.2-3.4,4.6-4,7.3
	c3.3,4.9,7.2,9.4,11.7,13.3c7.6-0.6,13.4-4.5,17.7-11.1c2.1-3.2,3-6.7,3.4-10.5c0.3-3.3,0-6.5-1-9.7c-0.2-0.6-0.8-1.1-0.6-1.6
	c0.2-0.5,0.9-0.7,1.4-1c2.1-1.2,4.1-2.4,6.3-3.6c0.1,0.5-0.1,0.7-0.2,1c-1.2,4.5-2.1,9-1.1,13.7c0.6,2.9,1.5,5.6,3.4,8
	c1.9,2.5,6.1,2.2,7.8-0.1c1.6-2.1,2.7-4.6,3.8-7c0.6-1.3,1.2-2.7,1.8-4c-0.1,1.6-0.1,3.2,0,4.7c0.1,1.5,0.3,3,1.1,4.4
	c1,1.6,2.8,2.1,4.4,1.2c1.8-0.9,3-2.4,3.9-4.1c4-7.1,7.7-14.3,10.8-21.8c0.7-1.6,1.3-3.2,2.1-5c0.1,0.6,0.2,0.9,0.3,1.3
	c0.7,3.6,1.9,7,3.7,10.2c0.4,0.7,0.3,1.2-0.1,1.8c-1.6,2.2-3.4,4.3-5.2,6.4c-1.5,1.8-3.1,3.5-4.3,5.4c-1.1,1.8-0.5,3.6,1.4,4
	c0.6,0.1,1.2,0.2,1.8,0.2c3.3,0,6.3-1,9.1-2.6c3.8-2.2,6-5.3,5.9-9.8c0-2-0.6-4-1.4-5.9c-0.2-0.4-0.2-0.7,0.1-1.1
	c2.6-3.7,4.9-7.7,7-11.7c0.4-0.7,0.6-1.5,1.2-2.2c0.1,0.3,0.1,0.5,0.2,0.6c0.7,3.3,1.6,6.6,3.3,9.6c0.5,0.8,0.2,1.2-0.4,1.8
	c-2.2,1.9-4.1,4.1-5.6,6.6c-1.1,2-1.9,4.1-1.9,6.4c0,2.6,2,4.1,4.5,3.5c2.6-0.6,5-1.7,7.2-3.3c4.7-3.5,6.1-7.1,4.6-12.2
	c-0.6-2-0.6-2,1.4-2.6c4.4-1.3,8.9-1.4,13.3-0.7c0.5,0.1,1,0.2,1.5,0.3c0.3-1.6,0.5-3.2,0.6-4.8C130.6,73.2,124.9,73.9,119.3,76.1z
	 M26.3,111.9c-1.3,0.5-2.6,0.6-4,0.5c-1.7-0.1-2.8-1.3-2.9-3.1c-0.1-2.1,0.5-3.9,1.4-5.7c1.6-3.3,4.4-5.5,7.2-7.7
	c2.7-2.1,5.7-4,8.6-5.7c0.9-0.5,0.9-0.5,1.1,0.5c0.3,1.4,0.5,2.8,0.4,4C38.5,102.3,33.1,109.6,26.3,111.9z M67.3,74.1
	c-0.5,3.2-1.5,6.2-2.6,9.2c-1.5,4.1-3,8.2-4.9,12.1c-0.4,0.9-0.9,1.8-1.6,2.5c-0.7,0.7-1.2,0.6-1.7-0.2c-0.9-1.7-0.8-3.5-0.9-4.8
	c0-6.7,2.3-12.2,6-17.1c1-1.4,2.4-2.5,4.1-2.9C66.9,72.4,67.4,72.8,67.3,74.1z M93.2,94c-1.3,2.2-3.1,3.8-5.4,4.9
	c-0.2,0.1-0.5,0.3-0.8,0.1c-0.2-0.3,0.1-0.4,0.3-0.6c2.2-2.4,4.4-4.9,6.4-7.5c0,0,0.1,0,0.3-0.1C94.1,91.9,93.8,93,93.2,94z
	 M108.7,93.9c-0.3,0.2-0.7,0.4-1,0.2c-0.4-0.3-0.2-0.8-0.1-1.1c0.5-1.7,1.2-3.3,2.1-4.9c0.8-1.3,1.8-2.4,2.9-3.4
	c0.4-0.4,0.6-0.4,0.8,0.2c0.2,0.6,0.2,1.2,0.2,1.9C113.4,90.2,111.7,92.4,108.7,93.9z"/>
</svg>
