<?xml version="1.0" encoding="utf-8"?>
<!-- Generator: Adobe Illustrator 21.1.0, SVG Export Plug-In . SVG Version: 6.00 Build 0)  -->
<svg version="1.1" xmlns="http://www.w3.org/2000/svg" xmlns:xlink="http://www.w3.org/1999/xlink" x="0px" y="0px"
	 viewBox="0 0 114.3 114.3" style="enable-background:new 0 0 114.3 114.3;" xml:space="preserve">
<style type="text/css">
	.st0{fill:#FD393C;}
	.st1{fill:#333131;}
</style>
<g id="Calque_21">
</g>
<g id="Calque_9">
	<g id="Calque_6">
	</g>
	<g id="Calque_4">
	</g>
</g>
<g id="Calque_11">
	<g id="Calque_4_-_copie">
	</g>
	<g id="Calque_12">
	</g>
</g>
<g id="Calque_11_-_copie">
	<g id="Calque_4_-_copie_2">
	</g>
	<g id="Calque_12_-_copie">
	</g>
</g>
<g id="Calque_16">
</g>
<g id="Calque_17">
	<g>
		<polygon class="st0" points="0,57.2 0,114.3 57.2,114.3 114.3,114.3 114.3,57.2 114.3,0 57.2,0 0,0 		"/>
		<path class="st1" d="M25.3,57.5l0,4.7h7.4h7.4v21.1v21.1h5.3h5.3V83.3V62.2h7.4h7.4v-4.6c0-2.5-0.1-4.7-0.1-4.7
			c-0.1-0.1-9.1-0.1-20.1-0.1l-20,0.1L25.3,57.5z"/>
		<path class="st1" d="M92.2,52.7c2.9,0.7,5.1,2,7.1,4.1c1.1,1.1,2.6,3.2,2.7,3.7c0,0.1-4.9,3.5-7.9,5.4c-0.1,0.1-0.5-0.4-1-1.1
			c-1.5-2.1-3-3.1-5.4-3.2c-3.5-0.2-5.7,1.6-5.7,4.6c0,0.9,0.1,1.4,0.5,2.1c0.8,1.6,2.2,2.5,6.6,4.4c8.2,3.5,11.7,5.8,13.9,9.1
			c2.4,3.7,3,9.6,1.3,13.9c-1.8,4.8-6.3,8-12.6,9.1c-2,0.3-6.6,0.3-8.7-0.1c-4.6-0.8-8.9-3.1-11.6-6.1c-1.1-1.2-3.1-4.2-3-4.4
			c0.1-0.1,0.5-0.4,1.1-0.7c0.5-0.3,2.4-1.4,4.2-2.4l3.3-1.9l0.7,1c1,1.5,3.1,3.5,4.3,4.2c3.6,1.9,8.7,1.7,11.1-0.6
			c1.1-1,1.5-2,1.5-3.4c0-1.3-0.2-1.9-0.9-2.9c-0.9-1.3-2.7-2.3-7.9-4.6c-5.9-2.5-8.4-4.1-10.8-6.6c-1.3-1.5-2.6-3.8-3.1-5.7
			c-0.4-1.6-0.5-5.7-0.2-7.3c1.2-5.7,5.5-9.7,11.7-10.8C85.6,52.1,90.3,52.2,92.2,52.7z"/>
	</g>
</g>
<g id="Calque_19">
</g>
<g id="Calque_20">
</g>
<g id="Calque_14">
</g>
<g id="Calque_14_-_copie">
</g>
<g id="Calque_14_-_copie_3">
</g>
<g id="Calque_14_-_copie_2">
</g>
<g id="Calque_14_-_copie_4">
</g>
</svg>
