<?xml version="1.0" encoding="utf-8"?>
<!-- Generator: Adobe Illustrator 22.1.0, SVG Export Plug-In . SVG Version: 6.00 Build 0)  -->
<svg version="1.1" id="Calque_1" xmlns="http://www.w3.org/2000/svg" xmlns:xlink="http://www.w3.org/1999/xlink" x="0px" y="0px"
	 viewBox="0 0 101.4 130" style="enable-background:new 0 0 101.4 130;" xml:space="preserve">
<style type="text/css">
	.st0{fill:#FD393C;}
	.st1{fill:#333131;}
</style>
<g>
	<g id="Calque_21_16_">
	</g>
	<g id="Calque_9_16_">
		<g id="Calque_6_16_">
		</g>
		<g id="Calque_4_16_">
		</g>
	</g>
	<g id="Calque_11_16_">
		<g id="Calque_4_-_copie_16_">
		</g>
		<g id="Calque_12_16_">
		</g>
	</g>
	<g id="Calque_11_-_copie_16_">
		<g id="Calque_4_-_copie_2_16_">
		</g>
		<g id="Calque_12_-_copie_16_">
		</g>
	</g>
	<g id="Calque_16_16_">
	</g>
	<g id="Calque_17_16_">
	</g>
	<g id="Calque_19_16_">
	</g>
	<g id="Calque_20_16_">
	</g>
	<g id="Calque_14_16_">
	</g>
	<g id="Calque_14_-_copie_16_">
		<path class="st0" d="M0,15.2v99.7h101.4V15.2H0z M93.6,107H7.8V23.8h85.8V107z"/>
		<path class="st1" d="M39.4,42H29.2L15.1,85.4h8.6l3.7-12.1h13.4l3.9,12.1h8.6L39.4,42z M28.5,67.2l5.3-18.6l5.6,18.6
			C39.5,67.2,28.5,67.2,28.5,67.2z"/>
		<path class="st1" d="M84.1,72.5c0,0,0.3-0.9,0.3-3.3c0-12-8.3-15.2-13.8-15.2c-5.4,0-14.9,3.8-14.9,16.6s9.4,16,16,16
			s10.9-2.1,10.9-2.1L81.6,79c0,0-3.6,1.5-8.6,1.5c-9.7,0-9.6-8.1-9.6-8.1L84.1,72.5L84.1,72.5z M70.8,58.8c6.7,0,6.2,7.5,6.2,7.5
			H63.6C63.6,66.3,64.2,58.8,70.8,58.8z"/>
	</g>
	<g id="Calque_14_-_copie_3_16_">
	</g>
	<g id="Calque_14_-_copie_2_16_">
	</g>
	<g id="Calque_14_-_copie_4_16_">
	</g>
</g>
</svg>
