<?xml version="1.0" encoding="utf-8"?>
<!-- Generator: Adobe Illustrator 22.1.0, SVG Export Plug-In . SVG Version: 6.00 Build 0)  -->
<svg version="1.1" id="Calque_1" xmlns="http://www.w3.org/2000/svg" xmlns:xlink="http://www.w3.org/1999/xlink" x="0px" y="0px"
	 viewBox="0 0 105.3 130" style="enable-background:new 0 0 105.3 130;" xml:space="preserve">
<style type="text/css">
	.st0{fill:#FD393C;}
	.st1{fill:#333131;}
</style>
<g>
	<g id="Calque_21_1_">
	</g>
	<g id="Calque_9_1_">
		<g id="Calque_6_1_">
		</g>
		<g id="Calque_4_1_">
		</g>
	</g>
	<g id="Calque_11_1_">
		<g id="Calque_4_-_copie_1_">
		</g>
		<g id="Calque_12_1_">
		</g>
	</g>
	<g id="Calque_11_-_copie_1_">
		<g id="Calque_4_-_copie_2_1_">
		</g>
		<g id="Calque_12_-_copie_1_">
		</g>
	</g>
	<g id="Calque_16_1_">
	</g>
	<g id="Calque_17_1_">
	</g>
	<g id="Calque_19_1_">
		<path class="st0" d="M105.3,40.5c0-2-0.4-3.8-1.3-5.3s-2.2-2.7-3.8-3.7c-14-8.1-28.1-16.2-42.1-24.2C54.5,5.2,50.8,5.3,47,7.4
			c-5.7,3.3-33.6,19.3-41.9,24.1c-3.4,2-5.1,5-5.1,9C0,56.8,0,73,0,89.3c0,2,0.4,3.7,1.3,5.2s2.2,2.8,3.9,3.9
			c8.3,4.8,36.2,20.8,41.9,24.1c3.8,2.2,7.4,2.3,11.2,0.1c14-8.1,28.1-16.2,42.1-24.2c1.7-1,3.1-2.2,3.9-3.9
			c0.8-1.5,1.3-3.2,1.3-5.2C105.3,89.3,105.3,56.8,105.3,40.5z M52.7,99.9c-13,0-24.3-7.1-30.3-17.6c-3-5.1-4.7-11.1-4.7-17.4
			c0-19.3,15.7-35,35-35c12.9,0,24.2,7,30.3,17.5l-15.3,8.8c-3.1-5.2-8.6-8.7-15.1-8.7c-9.6,0-17.4,7.8-17.4,17.4
			c0,3.1,0.8,6.1,2.3,8.6c3,5.2,8.6,8.8,15.2,8.8c6.6,0,12.2-3.6,15.2-8.9l15.2,8.8C77.1,92.8,65.7,99.9,52.7,99.9z"/>
		<path class="st1" d="M97.8,63.2v-3.6h-2.7v-2.7h-3.6v2.7H87v-2.7h-3.6v2.7h-2.7v3.6h2.7v4.5h-2.7v2.7h2.7V73H87v-2.7h4.5V73h3.6
			v-2.7h2.7v-2.7h-2.7v-4.5H97.8z M91.5,67.7H87v-4.5h4.5V67.7z"/>
	</g>
	<g id="Calque_20_1_">
	</g>
	<g id="Calque_14_1_">
	</g>
	<g id="Calque_14_-_copie_1_">
	</g>
	<g id="Calque_14_-_copie_3_1_">
	</g>
	<g id="Calque_14_-_copie_2_1_">
	</g>
	<g id="Calque_14_-_copie_4_1_">
	</g>
</g>
</svg>
