<?xml version="1.0" encoding="utf-8"?>
<!-- Generator: Adobe Illustrator 21.1.0, SVG Export Plug-In . SVG Version: 6.00 Build 0)  -->
<svg version="1.1" xmlns="http://www.w3.org/2000/svg" xmlns:xlink="http://www.w3.org/1999/xlink" x="0px" y="0px"
	 viewBox="0 0 117.4 132" style="enable-background:new 0 0 117.4 132;" xml:space="preserve">
<style type="text/css">
	.st0{fill:#FD393C;}
	.st1{fill:#333131;}
</style>
<g id="Calque_21">
</g>
<g id="Calque_9">
	<g id="Calque_6">
	</g>
	<g id="Calque_4">
	</g>
</g>
<g id="Calque_11">
	<g id="Calque_4_-_copie">
	</g>
	<g id="Calque_12">
	</g>
</g>
<g id="Calque_11_-_copie">
	<g id="Calque_4_-_copie_2">
	</g>
	<g id="Calque_12_-_copie">
	</g>
</g>
<g id="Calque_16">
</g>
<g id="Calque_17">
</g>
<g id="Calque_19">
	<path class="st0" d="M117.4,38.8c0-2.2-0.5-4.2-1.4-5.9c-0.9-1.7-2.4-3-4.2-4.1c-15.6-9-31.3-18-46.9-27c-4.2-2.4-8.3-2.3-12.5,0.1
		C46.1,5.6,15,23.4,5.7,28.8C1.9,31,0,34.4,0,38.8C0,56.9,0,75,0,93.2c0,2.2,0.5,4.1,1.4,5.8c0.9,1.7,2.4,3.1,4.3,4.3
		c9.3,5.4,40.4,23.2,46.7,26.9c4.2,2.5,8.3,2.6,12.5,0.1c15.6-9,31.3-18,46.9-27c1.9-1.1,3.4-2.5,4.3-4.3c0.9-1.7,1.4-3.6,1.4-5.8
		C117.4,93.2,117.4,56.9,117.4,38.8z M58.7,105c-14.5,0-27.1-7.9-33.8-19.6C21.6,79.7,19.7,73,19.7,66c0-21.5,17.5-39,39-39
		c14.4,0,27,7.8,33.8,19.5l-17,9.8c-3.4-5.8-9.6-9.7-16.8-9.7C48,46.6,39.3,55.3,39.3,66c0,3.5,0.9,6.8,2.6,9.6
		c3.3,5.8,9.6,9.8,16.9,9.8c7.3,0,13.6-4,16.9-9.9l16.9,9.8C85.9,97.1,73.2,105,58.7,105z"/>
	<path class="st1" d="M108.8,63.8v-3.9h-3.1v-3.1h-3.9v3.1h-4.7v-3.1h-3.9v3.1h-3.1v3.9h3.1v4.7h-3.1v3.9h3.1v3.1h3.9v-3.1h4.7v3.1
		h3.9v-3.1h3.1v-3.9h-3.1v-4.7H108.8z M101.8,68.5h-4.7v-4.7h4.7V68.5z"/>
</g>
<g id="Calque_20">
</g>
<g id="Calque_14">
</g>
<g id="Calque_14_-_copie">
</g>
<g id="Calque_14_-_copie_3">
</g>
<g id="Calque_14_-_copie_2">
</g>
<g id="Calque_14_-_copie_4">
</g>
</svg>
