<?xml version="1.0" encoding="utf-8"?>
<!-- Generator: Adobe Illustrator 22.1.0, SVG Export Plug-In . SVG Version: 6.00 Build 0)  -->
<svg version="1.1" id="Calque_1" xmlns="http://www.w3.org/2000/svg" xmlns:xlink="http://www.w3.org/1999/xlink" x="0px" y="0px"
	 viewBox="0 0 91.4 130" style="enable-background:new 0 0 91.4 130;" xml:space="preserve">
<style type="text/css">
	.st0{fill:#FD393C;}
	.st1{fill:#333131;}
</style>
<g>
	<g id="Calque_21_2_">
	</g>
	<g id="Calque_9_2_">
		<g id="Calque_6_2_">
		</g>
		<g id="Calque_4_2_">
		</g>
	</g>
	<g id="Calque_11_2_">
		<g id="Calque_4_-_copie_2_">
			<path class="st0" d="M0,25.8l8.3,93.3l37.3,10.3l37.5-10.4l8.3-93.2C91.4,25.8,0,25.8,0,25.8z M76,113.7l-30.1,8.2l-30.1-8.2
				L8.5,34h37.2h37.2L76,113.7z"/>
		</g>
		<polygon class="st1" points="45.7,44.9 17.1,44.9 18,56.6 45.7,56.6 62,56.6 60.8,68.4 46,68.4 18.7,68.4 19.8,80.2 46.1,80.2 
			59.3,80.2 58,94.1 46.1,97.4 45.7,97.4 32.6,93.9 31.8,84.7 19.9,84.7 21.2,103.2 45.8,110 45.7,110 69.3,103.2 74.3,44.9 		"/>
		<g id="Calque_12_2_">
			<polygon class="st1" points="35.3,12.3 35.3,17.7 19,17.7 19,0.5 35.3,0.5 35.3,6.8 26.3,6.8 26.3,12.3 			"/>
			<polygon class="st1" points="56.1,17.7 72.4,17.7 72.4,12.4 65.4,6.8 72.4,6.8 72.4,0.5 56.1,0.5 56.1,6.9 63.2,12.3 56.1,12.3 
				56.1,17.7 72.4,17.7 56.1,17.7 72.4,17.7 			"/>
			<polygon class="st1" points="39.9,17.7 53.4,17.7 53.4,12.4 46.4,6.8 53.4,6.8 53.4,0.5 37.1,0.5 37.1,6.9 44.3,12.3 37.1,12.3 
				37.1,17.7 53.4,17.7 37.1,17.7 53.4,17.7 			"/>
		</g>
	</g>
	<g id="Calque_11_-_copie_2_">
		<g id="Calque_4_-_copie_2_2_">
		</g>
		<g id="Calque_12_-_copie_2_">
		</g>
	</g>
	<g id="Calque_16_2_">
	</g>
	<g id="Calque_17_2_">
	</g>
	<g id="Calque_19_2_">
	</g>
	<g id="Calque_20_2_">
	</g>
	<g id="Calque_14_2_">
	</g>
	<g id="Calque_14_-_copie_2_">
	</g>
	<g id="Calque_14_-_copie_3_2_">
	</g>
	<g id="Calque_14_-_copie_2_2_">
	</g>
	<g id="Calque_14_-_copie_4_2_">
	</g>
</g>
</svg>
