<?xml version="1.0" encoding="utf-8"?>
<!-- Generator: Adobe Illustrator 21.1.0, SVG Export Plug-In . SVG Version: 6.00 Build 0)  -->
<svg version="1.1" xmlns="http://www.w3.org/2000/svg" xmlns:xlink="http://www.w3.org/1999/xlink" x="0px" y="0px"
	 viewBox="0 0 100.9 142.7" style="enable-background:new 0 0 100.9 142.7;" xml:space="preserve">
<style type="text/css">
	.st0{fill:#FD393C;}
	.st1{fill:#333131;}
</style>
<g id="Calque_21">
</g>
<g id="Calque_9">
	<g id="Calque_6">
	</g>
	<g id="Calque_4">
	</g>
</g>
<g id="Calque_11">
	<g id="Calque_4_-_copie">
		<path class="st0" d="M0,28.2l9.2,103.1l41.2,11.4l41.4-11.5l9.2-103H0z M83.9,124.6l-33.3,9.1l-33.3-9.1l-7.9-88h41.1h41.1
			L83.9,124.6z"/>
	</g>
	<polygon class="st1" points="50.6,49.2 18.9,49.2 19.9,61.8 50.6,61.8 68.3,61.8 67,74.6 50.6,74.6 20.9,74.6 22.1,87.4 50.6,87.4 
		65.8,87.4 64.3,103.4 50.6,107.2 50.5,107.2 36,103.4 35.1,93.1 22.1,93.1 23.5,113.4 50.5,120.9 50.6,120.9 76.5,113.4 82,49.2 	
		"/>
	<g id="Calque_12">
		<polygon class="st1" points="38.6,13.1 38.6,19.3 20.7,19.3 20.7,0 38.6,0 38.6,7 28.5,7 28.5,13.1 		"/>
		<polygon class="st1" points="62.1,19.3 80.1,19.3 80.1,13.1 72.3,7 80.1,7 80.1,0 62.1,0 62.1,7 69.9,13.1 62.1,13.1 62.1,19.3 
			80.1,19.3 62.1,19.3 80.1,19.3 		"/>
		<polygon class="st1" points="44.4,19.3 59.3,19.3 59.3,13.1 51.6,7 59.3,7 59.3,0 41.3,0 41.3,7 49.2,13.1 41.3,13.1 41.3,19.3 
			59.3,19.3 41.3,19.3 59.3,19.3 		"/>
	</g>
</g>
<g id="Calque_11_-_copie">
	<g id="Calque_4_-_copie_2">
	</g>
	<g id="Calque_12_-_copie">
	</g>
</g>
<g id="Calque_16">
</g>
<g id="Calque_17">
</g>
<g id="Calque_19">
</g>
<g id="Calque_20">
</g>
<g id="Calque_14">
</g>
<g id="Calque_14_-_copie">
</g>
<g id="Calque_14_-_copie_3">
</g>
<g id="Calque_14_-_copie_2">
</g>
<g id="Calque_14_-_copie_4">
</g>
</svg>
