<?xml version="1.0" encoding="utf-8"?>
<!-- Generator: Adobe Illustrator 22.1.0, SVG Export Plug-In . SVG Version: 6.00 Build 0)  -->
<svg version="1.1" id="Calque_1" xmlns="http://www.w3.org/2000/svg" xmlns:xlink="http://www.w3.org/1999/xlink" x="0px" y="0px"
	 viewBox="0 0 91.4 130" style="enable-background:new 0 0 91.4 130;" xml:space="preserve">
<style type="text/css">
	.st0{fill:#333131;}
	.st1{fill:#FD393C;}
</style>
<g>
	<g id="Calque_21_3_">
	</g>
	<g id="Calque_9_3_">
		<g id="Calque_6_3_">
			<polygon class="st0" points="68.8,0.5 75.1,0.5 75.1,12.3 83.3,12.3 83.3,17.7 68.8,17.7 			"/>
			<polygon class="st0" points="46.2,0.5 52.3,0.5 56.2,6.3 60,0.5 66.1,0.5 66.1,17.7 59.7,17.7 59.7,9.1 55.8,15.3 51.6,9.3 
				51.6,17.7 46.2,17.7 			"/>
			<polygon class="st0" points="28.1,0.5 44.4,0.5 44.4,5.9 38.9,5.9 38.9,17.7 33.5,17.7 33.5,5.9 28.1,5.9 			"/>
			<polygon class="st0" points="8.1,0.5 13.6,0.5 13.6,6.8 19,6.8 19,0.5 25.3,0.5 25.3,17.7 19,17.7 19,12.3 13.6,12.3 13.6,17.7 
				8.1,17.7 			"/>
		</g>
		<g id="Calque_4_3_">
			<path class="st1" d="M0,25.8l8.3,93.3l37.3,10.3l37.5-10.4l8.3-93.2C91.4,25.8,0,25.8,0,25.8z M76,113.7l-30.1,8.2l-30.1-8.2
				L8.5,34h37.2h37.2L76,113.7z"/>
			<polygon class="st0" points="73.7,56.6 74.6,44.9 45.7,44.9 17,44.9 20.2,79.3 45.5,79.3 59.9,79.3 58.8,94.8 45.5,98.3 
				45.8,98.3 32.9,94.8 32,85.6 20.6,85.6 22.2,103.5 45.6,110 45.8,110 69.1,103.5 72.3,68.4 45.9,68.4 30.5,68.4 29.5,56.6 
				45.4,56.6 			"/>
		</g>
	</g>
	<g id="Calque_11_3_">
		<g id="Calque_4_-_copie_3_">
		</g>
		<g id="Calque_12_3_">
		</g>
	</g>
	<g id="Calque_11_-_copie_3_">
		<g id="Calque_4_-_copie_2_3_">
		</g>
		<g id="Calque_12_-_copie_3_">
		</g>
	</g>
	<g id="Calque_16_3_">
	</g>
	<g id="Calque_17_3_">
	</g>
	<g id="Calque_19_3_">
	</g>
	<g id="Calque_20_3_">
	</g>
	<g id="Calque_14_3_">
	</g>
	<g id="Calque_14_-_copie_3_">
	</g>
	<g id="Calque_14_-_copie_3_3_">
	</g>
	<g id="Calque_14_-_copie_2_3_">
	</g>
	<g id="Calque_14_-_copie_4_3_">
	</g>
</g>
</svg>
