<?xml version="1.0" encoding="utf-8"?>
<!-- Generator: Adobe Illustrator 21.1.0, SVG Export Plug-In . SVG Version: 6.00 Build 0)  -->
<svg version="1.1" xmlns="http://www.w3.org/2000/svg" xmlns:xlink="http://www.w3.org/1999/xlink" x="0px" y="0px"
	 viewBox="0 0 100.9 142.7" style="enable-background:new 0 0 100.9 142.7;" xml:space="preserve">
<style type="text/css">
	.st0{fill:#333131;}
	.st1{fill:#FD393C;}
</style>
<g id="Calque_21">
</g>
<g id="Calque_9">
	<g id="Calque_6">
		<polygon class="st0" points="75.9,0 82.5,0 82.5,13 91.5,13 91.5,19.3 75.9,19.3 		"/>
		<polygon class="st0" points="51.2,0 57.8,0 62.1,6.5 66.2,0 72.8,0 72.8,19.3 66.4,19.3 66.4,9.8 62.1,16.7 57.5,10 57.5,19.3 
			51.2,19.3 		"/>
		<polygon class="st0" points="30.6,0 48.4,0 48.4,6.5 42.7,6.5 42.7,19.3 36.3,19.3 36.3,6.5 30.6,6.5 		"/>
		<polygon class="st0" points="9.1,0 15.5,0 15.5,6.5 21.4,6.5 21.4,0 27.8,0 27.8,19.3 21.4,19.3 21.4,13 15.5,13 15.5,19.3 
			9.1,19.3 		"/>
	</g>
	<g id="Calque_4">
		<path class="st1" d="M0,28.2l9.2,103.1l41.2,11.4l41.4-11.5l9.2-103H0z M83.9,124.6l-33.3,9.1l-33.3-9.1l-7.9-88h41.1h41.1
			L83.9,124.6z"/>
		<polygon class="st0" points="81,61.9 81.9,49.3 50.6,49.3 18.7,49.3 22.3,87.5 50.6,87.5 65.8,87.5 64.6,103.8 50.6,107.5 
			50.4,107.5 36.5,103.8 35.5,93.8 22.7,93.8 24.5,113.6 50.4,120.9 50.6,120.9 76.4,113.7 79.9,74.8 50.6,74.8 33.8,74.8 
			32.7,61.9 50.6,61.9 		"/>
	</g>
</g>
<g id="Calque_11">
	<g id="Calque_4_-_copie">
	</g>
	<g id="Calque_12">
	</g>
</g>
<g id="Calque_11_-_copie">
	<g id="Calque_4_-_copie_2">
	</g>
	<g id="Calque_12_-_copie">
	</g>
</g>
<g id="Calque_16">
</g>
<g id="Calque_17">
</g>
<g id="Calque_19">
</g>
<g id="Calque_20">
</g>
<g id="Calque_14">
</g>
<g id="Calque_14_-_copie">
</g>
<g id="Calque_14_-_copie_3">
</g>
<g id="Calque_14_-_copie_2">
</g>
<g id="Calque_14_-_copie_4">
</g>
</svg>
