<?xml version="1.0" encoding="utf-8"?>
<!-- Generator: Adobe Illustrator 21.1.0, SVG Export Plug-In . SVG Version: 6.00 Build 0)  -->
<svg version="1.1" xmlns="http://www.w3.org/2000/svg" xmlns:xlink="http://www.w3.org/1999/xlink" x="0px" y="0px"
	 viewBox="0 0 117.4 114.9" style="enable-background:new 0 0 117.4 114.9;" xml:space="preserve">
<style type="text/css">
	.st0{fill:#FD393C;}
	.st1{fill:#333131;}
</style>
<g id="Calque_21">
</g>
<g id="Calque_9">
	<g id="Calque_6">
	</g>
	<g id="Calque_4">
	</g>
</g>
<g id="Calque_11">
	<g id="Calque_4_-_copie">
	</g>
	<g id="Calque_12">
	</g>
</g>
<g id="Calque_11_-_copie">
	<g id="Calque_4_-_copie_2">
	</g>
	<g id="Calque_12_-_copie">
	</g>
</g>
<g id="Calque_16">
</g>
<g id="Calque_17">
</g>
<g id="Calque_19">
</g>
<g id="Calque_20">
</g>
<g id="Calque_14">
</g>
<g id="Calque_14_-_copie">
</g>
<g id="Calque_14_-_copie_3">
</g>
<g id="Calque_14_-_copie_2">
	<path class="st0" d="M0,0v114.9h117.4V0H0z M108,105.8H9.5V9.4H108V105.8z"/>
	<rect x="34.6" y="32.4" class="st1" width="8.9" height="48.5"/>
	<path class="st1" d="M74.1,29.9L74,49.7c0,0-2.4-4.8-9.3-4.8c-8.7,0-14.3,8.4-14.3,18.8S56,81.9,64,81.9c7.9,0,10.7-6.3,10.7-6.3
		l0.4,5.4h7.1V29.8L74.1,29.9z M74,66.7c0,0-0.6,7.9-7.3,7.9c-6.6,0-8-7.7-8-11c0-3.3,1.2-11.5,8.1-11.5s7.1,7.6,7.1,7.6V66.7z"/>
</g>
<g id="Calque_14_-_copie_4">
</g>
</svg>
