<?xml version="1.0" encoding="utf-8"?>
<!-- Generator: Adobe Illustrator 22.1.0, SVG Export Plug-In . SVG Version: 6.00 Build 0)  -->
<svg version="1.1" id="Calque_1" xmlns="http://www.w3.org/2000/svg" xmlns:xlink="http://www.w3.org/1999/xlink" x="0px" y="0px"
	 viewBox="0 0 101.4 130" style="enable-background:new 0 0 101.4 130;" xml:space="preserve">
<style type="text/css">
	.st0{fill:#FD393C;}
	.st1{fill:#333131;}
</style>
<g>
	<g id="Calque_21_4_">
	</g>
	<g id="Calque_9_4_">
		<g id="Calque_6_4_">
		</g>
		<g id="Calque_4_4_">
		</g>
	</g>
	<g id="Calque_11_4_">
		<g id="Calque_4_-_copie_4_">
		</g>
		<g id="Calque_12_4_">
		</g>
	</g>
	<g id="Calque_11_-_copie_4_">
		<g id="Calque_4_-_copie_2_4_">
		</g>
		<g id="Calque_12_-_copie_4_">
		</g>
	</g>
	<g id="Calque_16_4_">
	</g>
	<g id="Calque_17_4_">
	</g>
	<g id="Calque_19_4_">
	</g>
	<g id="Calque_20_4_">
	</g>
	<g id="Calque_14_4_">
	</g>
	<g id="Calque_14_-_copie_4_">
	</g>
	<g id="Calque_14_-_copie_3_4_">
	</g>
	<g id="Calque_14_-_copie_2_4_">
		<path class="st0" d="M0,15.2v99.7h101.4V15.2H0z M93.6,107H7.8V23.8h85.8V107z"/>
		<rect x="30.3" y="42.9" class="st1" width="7.8" height="42.5"/>
		<path class="st1" d="M64.2,41.2l-0.1,17.1c0,0-2.1-4.1-8-4.1c-7.4,0-12.2,7.3-12.2,16.2s4.8,15.7,11.6,15.7c6.8,0,9.2-5.4,9.2-5.4
			l0.3,4.7h6.1V41.2L64.2,41.2z M64.2,73.2c0,0-0.5,6.8-6.3,6.8c-5.7,0-6.9-6.7-6.9-9.5s1-10,7-10s6.2,6.6,6.2,6.6L64.2,73.2
			L64.2,73.2z"/>
	</g>
	<g id="Calque_14_-_copie_4_4_">
	</g>
</g>
</svg>
