<?xml version="1.0" encoding="utf-8"?>
<!-- Generator: Adobe Illustrator 22.1.0, SVG Export Plug-In . SVG Version: 6.00 Build 0)  -->
<svg version="1.1" id="Calque_1" xmlns="http://www.w3.org/2000/svg" xmlns:xlink="http://www.w3.org/1999/xlink" x="0px" y="0px"
	 viewBox="0 0 194.7 130" style="enable-background:new 0 0 194.7 130;" xml:space="preserve">
<style type="text/css">
	.st0{display:none;}
	.st1{display:inline;}
	.st2{fill:#FD393C;}
	.st3{fill:#333131;}
</style>
<g class="st0">
	<g id="Calque_21_1_" class="st1">
	</g>
	<g id="Calque_9_1_" class="st1">
		<g id="Calque_6_1_">
		</g>
		<g id="Calque_4_1_">
		</g>
	</g>
	<g id="Calque_11_1_" class="st1">
		<g id="Calque_4_-_copie_1_">
		</g>
		<g id="Calque_12_1_">
		</g>
	</g>
	<g id="Calque_11_-_copie_1_" class="st1">
		<g id="Calque_4_-_copie_2_1_">
		</g>
		<g id="Calque_12_-_copie_1_">
		</g>
	</g>
	<g id="Calque_16_1_" class="st1">
	</g>
	<g id="Calque_17_1_" class="st1">
	</g>
	<g id="Calque_19_1_" class="st1">
		<path class="st2" d="M150,40.5c0-2-0.4-3.8-1.3-5.3c-0.8-1.5-2.2-2.7-3.8-3.7c-14-8.1-28.1-16.2-42.1-24.2
			c-3.8-2.2-7.4-2.1-11.2,0.1C86,10.7,58.1,26.7,49.7,31.5c-3.4,2-5.1,5-5.1,9c0,16.2,0,32.5,0,48.8c0,2,0.4,3.7,1.3,5.2
			s2.2,2.8,3.9,3.9c8.3,4.8,36.2,20.8,41.9,24.1c3.8,2.2,7.4,2.3,11.2,0.1c14-8.1,28.1-16.2,42.1-24.2c1.7-1,3.1-2.2,3.9-3.9
			c0.8-1.5,1.3-3.2,1.3-5.2C150,89.3,150,56.8,150,40.5z M97.3,99.9c-13,0-24.3-7.1-30.3-17.6c-3-5.1-4.7-11.1-4.7-17.4
			c0-19.3,15.7-35,35-35c12.9,0,24.2,7,30.3,17.5l-15.3,8.8c-3.1-5.2-8.6-8.7-15.1-8.7c-9.6,0-17.4,7.8-17.4,17.4
			c0,3.1,0.8,6.1,2.3,8.6c3,5.2,8.6,8.8,15.2,8.8c6.6,0,12.2-3.6,15.2-8.9l15.2,8.8C121.7,92.8,110.3,99.9,97.3,99.9z"/>
		<path class="st3" d="M142.4,63.2v-3.6h-2.7v-2.7h-3.6v2.7h-4.5v-2.7h-3.6v2.7h-2.7v3.6h2.7v4.5h-2.7v2.7h2.7V73h3.6v-2.7h4.5V73
			h3.6v-2.7h2.7v-2.7h-2.7v-4.5H142.4z M136.1,67.7h-4.5v-4.5h4.5V67.7z"/>
	</g>
	<g id="Calque_20_1_" class="st1">
	</g>
	<g id="Calque_14_1_" class="st1">
	</g>
	<g id="Calque_14_-_copie_1_" class="st1">
	</g>
	<g id="Calque_14_-_copie_3_1_" class="st1">
	</g>
	<g id="Calque_14_-_copie_2_1_" class="st1">
	</g>
	<g id="Calque_14_-_copie_4_1_" class="st1">
	</g>
</g>
<g>
	<g id="Calque_21_5_">
	</g>
	<g id="Calque_9_5_">
		<g id="Calque_6_5_">
		</g>
		<g id="Calque_4_5_">
		</g>
	</g>
	<g id="Calque_11_5_">
		<g id="Calque_4_-_copie_5_">
		</g>
		<g id="Calque_12_5_">
		</g>
	</g>
	<g id="Calque_11_-_copie_5_">
		<g id="Calque_4_-_copie_2_5_">
		</g>
		<g id="Calque_12_-_copie_5_">
		</g>
	</g>
	<g id="Calque_16_5_">
	</g>
	<g id="Calque_17_5_">
	</g>
	<g id="Calque_19_5_">
	</g>
	<g id="Calque_20_5_">
	</g>
	<g id="Calque_14_5_">
	</g>
	<g id="Calque_14_-_copie_5_">
	</g>
	<g id="Calque_14_-_copie_3_5_">
	</g>
	<g id="Calque_14_-_copie_2_5_">
	</g>
	<g id="Calque_14_-_copie_4_5_">
	</g>
	<g id="Calque_22_4_">
	</g>
	<g id="Calque_23_4_">
	</g>
	<g id="Calque_24_2_">
	</g>
	<g id="Calque_25_2_">
	</g>
	<g id="Calque_26_1_">
		<g id="XMLID_2_">
			<path id="XMLID_32_" class="st3" d="M186.5,46.3l8.1,0c0,0-15.1,20.4-16.3,22.1c-0.4,0.5-1,1.1-1.3,1.8c-0.8,1.8-1.6,5.8-1.6,5.8
				l-7.6,0c0,0,1.2-4.2,1.1-6.4c0-2-1-3.9-1.6-5.9c-0.6-2-1.3-5.9-1.3-5.9h7.7l1.1,4.2l11.7-16.2"/>
			<path id="XMLID_24_" class="st3" d="M171.1,50.2c1.5,0.9,2.4,5.9,2.4,5.9l-12.2,0.5h-3.7l-4.5,19.5h-6.9c0,0,4.3-21.5,5.4-25.3
				c0.3-1.3,2.3-1,5.5-1h5.1c3.3,0,7.2-0.4,8.9,0.6"/>
			<path id="XMLID_23_" class="st3" d="M139,60.1c0,0,0.2-1.3-0.7-2.7c-0.8-1.2-1.6-1.5-3.7-1.6c-6-0.2-5.9,4.2-5.9,4.2L139,60.1z
				 M145.5,55c0.9,3.2-0.8,10.6-0.8,10.6s-8.7-0.1-13.5,0c-1.5,0-3.3-0.1-3.7,0.5c-0.6,1,0.2,2.4,0.9,3.1c0.8,0.7,2.4,0.8,3,0.9
				c3.9,0.5,12,0.1,12,0.1l-1.4,6.3c0,0-11.5,0.6-17.2-0.8c-1.1-0.3-2.2-0.8-2.9-1.6c-0.2-0.2-0.3-0.5-0.5-0.7
				c-0.1-0.2-0.6-0.8-0.8-1.4c-1.3-3.5,0.1-10.2,1.6-13.8c0.1-0.4,0.4-0.9,0.6-1.4c0.3-0.5,0.5-1.2,0.7-1.5c0.1-0.2,0.3-0.4,0.5-0.6
				c0.2-0.2,0.4-0.5,0.6-0.7c0.5-0.6,1.1-1.1,1.9-1.6c2.4-1.8,6.7-3.2,11.9-2.6c2,0.2,4.9,0.9,6.3,2.9
				C145.1,53.2,145.3,54.2,145.5,55z"/>
			<path id="XMLID_22_" class="st3" d="M113.8,49.8l6.8,0c0,0-3.7,17.7-5.6,26.4h-7.7c-5.4,0-10.2,0.7-12.3-3.2
				c-2-3.8-0.1-9.9,0.8-14.1c0.6-3,2-9,2-9l7,0c0,0-2,9.5-2.8,14.2c-0.3,1.7-0.9,3.3-0.2,4.5c0.6,1.2,1.4,1.3,4,1.3
				c0.8,0,3.5,0,3.5,0l4.8-19.9"/>
			<path id="XMLID_21_" class="st3" d="M82.6,62.7c0.7-2.5,1.7-5.2,1.6-7.4c-0.1-2.4-2.1-4.6-3.5-5c-3.9-1.4-7.6,0.5-9,2.1
				c-1.9,2.1-2.5,4.4-3.2,7.7c-0.5,2.4-0.9,5,0,6.9c1.6,3.4,6.6,2.6,11.9,2.6C81.3,67.4,81.9,65,82.6,62.7z M91.9,52.9
				c0.8,5.6-2.1,11.7-4.2,17c2.1,0.2,3.9,0,4,0.1c0.1,0.2-1.4,6.3-1.9,6.4c-1.6,0-7,0.1-9.3,0.1c-7.4,0-14.3,0.5-17.8-3.2
				c-1.4-1.5-2.4-4.1-2.6-5.9c-0.4-3,0.1-6.3,0.8-9c0.6-2.4,1.4-4.8,2.6-6.9c3.1-5.4,8.5-9.4,17.5-8.5c1.8,0.2,4.2,0.9,5.9,1.9
				c0.1,0,0.5,0.3,0.6,0.4C89.5,46.7,91.5,49.9,91.9,52.9z"/>
			<path id="XMLID_20_" class="st3" d="M59.2,49.8c-0.4,2.1-0.9,4.3-1.4,6.3h-7.4c0.6-2.2,1-4.4,1.6-6.3
				C54.4,49.7,56.6,49.8,59.2,49.8"/>
			<path id="XMLID_11_" class="st3" d="M50.3,58.1h7.1c-0.9,5.2-2.8,13.5-4.2,19.4c-0.9,3.7-1.5,6.3-4,8.2c-0.2,0.2-0.3,0.1-0.5,0.2
				c-0.4,0.4-2.5,0.9-3.7,1.1c-1.9,0.2-4,0-6.3,0c0.6-2.2,1.3-4.9,1.9-6.9c5.7,0.7,5.8-4.6,6.9-9.8C47.9,67.3,49.9,59.3,50.3,58.1"
				/>
			<path id="XMLID_10_" class="st2" d="M33.5,71.7l-0.1,0.4c-2.6,5.1-7.2,8.2-13.9,8.4c-3.1,0-6.1-0.7-8-1.6c-4.2-1.8-7.7-5.3-9.6-9
				c-2.7-5.3-3.2-12.7,2.4-18.2c0.1,0-0.7,1.2-0.6,1.2l-0.1,0.5c-4.1,12.9,8.5,23.9,20.8,22.6C27.4,75.6,31.2,74,33.5,71.7"/>
			<path id="XMLID_7_" class="st2" d="M26.1,66.4c3.1,0,6.3-1.4,8.2-3.5c-1.7,4.2-6.5,7-13,6.1c-5.4-0.7-10.6-6.2-11.1-11.7
				c-0.4-4,1-6.3,3.3-9.2c-0.8,1.5-1.1,2.7-1.2,3.4C11.4,60.2,19.1,66.4,26.1,66.4"/>
			<path id="XMLID_6_" class="st2" d="M34,55.7c-0.5,1.1-3.2,3.2-4.4,3.4c-4.8,1-7.9-1.3-9.6-3.9c-0.2-0.4-0.7-1.5-0.8-1.7
				c-0.6-2.1-0.3-5.4,1.5-7c-0.6,1.6-0.6,3.4-0.3,4.6c0.2,0.7,0.7,2,1.3,2.8c1,1.5,1.6,1.8,2.9,2.6c0.6,0.3,1.2,0.6,1.5,0.7
				C27.2,57.6,29.8,58.5,34,55.7"/>
		</g>
	</g>
</g>
</svg>
