<?xml version="1.0" encoding="utf-8"?>
<!-- Generator: Adobe Illustrator 22.1.0, SVG Export Plug-In . SVG Version: 6.00 Build 0)  -->
<svg version="1.1" id="Calque_1" xmlns="http://www.w3.org/2000/svg" xmlns:xlink="http://www.w3.org/1999/xlink" x="0px" y="0px"
	 viewBox="0 0 91.4 130" style="enable-background:new 0 0 91.4 130;" xml:space="preserve">
<style type="text/css">
	.st0{fill:#FD393C;}
	.st1{fill:#333131;}
</style>
<g>
	<g id="Calque_21_6_">
	</g>
	<g id="Calque_9_6_">
		<g id="Calque_6_6_">
		</g>
		<g id="Calque_4_6_">
		</g>
	</g>
	<g id="Calque_11_6_">
		<g id="Calque_4_-_copie_6_">
		</g>
		<g id="Calque_12_6_">
		</g>
	</g>
	<g id="Calque_11_-_copie_6_">
		<g id="Calque_4_-_copie_2_6_">
			<path class="st0" d="M0,25.8l8.3,93.3l37.3,10.3l37.5-10.4l8.3-93.2C91.4,25.8,0,25.8,0,25.8z M76,113.7l-30.1,8.2l-30.1-8.2
				L8.5,34h37.2h37.2L76,113.7z"/>
		</g>
		<polygon class="st1" points="45.7,44.9 17.1,44.9 18,56.6 45.9,56.6 61.8,56.6 58.2,94 45.9,97.4 45.7,97.4 32.6,93.9 31.8,84.7 
			19.9,84.7 21.2,103.2 45.8,110 45.7,110 69.3,103.2 74.3,44.9 		"/>
		<g id="Calque_12_-_copie_6_">
			<polygon class="st1" points="28.1,17.7 44.4,17.7 44.4,0.5 37.1,0.5 37.1,11.4 28.1,11.4 			"/>
			<polygon class="st1" points="49.9,17.7 63.4,17.7 63.4,12.4 56.4,6.8 63.4,6.8 63.4,0.5 47.1,0.5 47.1,6.9 54.2,12.3 47.1,12.3 
				47.1,17.7 63.4,17.7 47.1,17.7 63.4,17.7 			"/>
		</g>
	</g>
	<g id="Calque_16_6_">
	</g>
	<g id="Calque_17_6_">
	</g>
	<g id="Calque_19_6_">
	</g>
	<g id="Calque_20_6_">
	</g>
	<g id="Calque_14_6_">
	</g>
	<g id="Calque_14_-_copie_6_">
	</g>
	<g id="Calque_14_-_copie_3_6_">
	</g>
	<g id="Calque_14_-_copie_2_6_">
	</g>
	<g id="Calque_14_-_copie_4_6_">
	</g>
</g>
</svg>
