<?xml version="1.0" encoding="utf-8"?>
<!-- Generator: Adobe Illustrator 21.1.0, SVG Export Plug-In . SVG Version: 6.00 Build 0)  -->
<svg version="1.1" xmlns="http://www.w3.org/2000/svg" xmlns:xlink="http://www.w3.org/1999/xlink" x="0px" y="0px"
	 viewBox="0 0 188.6 128.1" style="enable-background:new 0 0 188.6 128.1;" xml:space="preserve">
<style type="text/css">
	.st0{fill:#333131;}
	.st1{fill:#FD393C;}
	.st2{fill-rule:evenodd;clip-rule:evenodd;fill:#FD393C;}
	.st3{fill-rule:evenodd;clip-rule:evenodd;fill:#333131;}
</style>
<g id="Calque_21">
</g>
<g id="Calque_9">
	<g id="Calque_6">
	</g>
	<g id="Calque_4">
	</g>
</g>
<g id="Calque_11">
	<g id="Calque_4_-_copie">
	</g>
	<g id="Calque_12">
	</g>
</g>
<g id="Calque_11_-_copie">
	<g id="Calque_4_-_copie_2">
	</g>
	<g id="Calque_12_-_copie">
	</g>
</g>
<g id="Calque_16">
</g>
<g id="Calque_17">
</g>
<g id="Calque_19">
</g>
<g id="Calque_20">
</g>
<g id="Calque_14">
</g>
<g id="Calque_14_-_copie">
</g>
<g id="Calque_14_-_copie_3">
</g>
<g id="Calque_14_-_copie_2">
</g>
<g id="Calque_14_-_copie_4">
</g>
<g id="Calque_22">
	<path id="XMLID_4_" class="st0" d="M45.4,116.7h-7.3c-0.3-12.3-1-23.8-2.1-34.7h-0.1l-11.1,34.7h-5.5L8.2,82H8.2
		C7.4,92.4,6.8,104,6.6,116.7H0c0.4-15.5,1.5-30,3.2-43.5h9l10.5,32h0.1l10.6-32H42C43.9,89.1,45,103.6,45.4,116.7"/>
	<path id="XMLID_18_" class="st0" d="M76.9,84.6c-3,16.1-6.9,27.8-11.7,35.1c-3.8,5.6-7.9,8.4-12.4,8.4c-1.2,0-2.7-0.4-4.4-1.1v-3.9
		c0.9,0.1,1.9,0.2,3,0.2c2.1,0,3.8-0.6,5.1-1.7c1.5-1.4,2.3-3,2.3-4.8c0-1.2-0.6-3.7-1.8-7.4l-8-24.8h7.2l5.7,18.6
		c1.3,4.2,1.8,7.2,1.6,8.8c3.1-8.4,5.3-17.5,6.6-27.4H76.9z"/>
	<polygon id="XMLID_19_" class="st1" points="173.8,116.7 153.1,116.7 153.1,73.2 160.1,73.2 160.1,111.4 173.8,111.4 	"/>
	<path id="XMLID_25_" class="st2" d="M147.7,117.8l-8-3.9c0.7-0.6,1.4-1.2,2-1.9c3.4-4,5.1-9.9,5.1-17.7c0-14.4-5.6-21.6-16.9-21.6
		c-5.5,0-9.9,1.8-12.9,5.5c-3.4,4-5.1,9.9-5.1,17.7c0,7.6,1.5,13.3,4.5,16.8c2.7,3.2,6.9,4.8,12.4,4.8c2.1,0,4-0.3,5.7-0.8l10.4,6.1
		L147.7,117.8z M121.8,108c-1.8-2.8-2.6-7.4-2.6-13.7c0-11,3.3-16.4,10-16.4c3.5,0,6,1.3,7.7,3.9c1.8,2.8,2.6,7.3,2.6,13.5
		c0,11-3.3,16.6-10,16.6C126,111.9,123.5,110.6,121.8,108"/>
	<path id="XMLID_26_" class="st1" d="M108.8,104.7c0,3.7-1.4,6.7-4.1,9.1c-2.7,2.4-6.3,3.5-10.9,3.5c-4.3,0-8.4-1.4-12.4-4.1
		l1.9-3.7c3.4,1.7,6.5,2.6,9.3,2.6c2.6,0,4.7-0.6,6.2-1.7c1.5-1.2,2.4-2.8,2.4-4.8c0-2.6-1.8-4.8-5.1-6.6c-3.1-1.7-9.1-5.2-9.1-5.2
		c-3.3-2.4-5-5-5-9.3c0-3.5,1.2-6.4,3.7-8.5c2.5-2.2,5.7-3.3,9.6-3.3c4,0,7.7,1.1,11,3.2l-1.7,3.7c-2.8-1.2-5.6-1.8-8.4-1.8
		c-2.2,0-4,0.5-5.2,1.6c-1.2,1.1-2,2.4-2,4.1c0,2.6,1.8,4.8,5.2,6.7c3.1,1.7,9.3,5.2,9.3,5.2C107.1,97.9,108.8,100.4,108.8,104.7"/>
	<path id="XMLID_27_" class="st3" d="M182.5,58.7c-4.2-0.1-7.5,0.3-10.2,1.5c-0.8,0.3-2,0.3-2.2,1.3c0.4,0.4,0.5,1.1,0.8,1.7
		c0.6,1.1,1.7,2.5,2.7,3.2c1.1,0.8,2.2,1.7,3.4,2.4c2,1.3,4.4,2,6.4,3.3c1.2,0.7,2.3,1.7,3.5,2.5c0.6,0.4,0.9,1.1,1.7,1.4v-0.2
		c-0.4-0.5-0.5-1.2-0.8-1.7c-0.5-0.5-1.1-1-1.6-1.5c-1.5-2-3.4-3.8-5.5-5.3c-1.7-1.2-5.4-2.7-6-4.7l-0.1-0.1
		c1.2-0.1,2.5-0.5,3.6-0.8c1.8-0.5,3.4-0.4,5.3-0.8c0.8-0.2,1.7-0.5,2.5-0.7v-0.5c-1-0.9-1.6-2.2-2.6-3.1c-2.7-2.3-5.6-4.6-8.7-6.5
		c-1.6-1.1-3.7-1.7-5.5-2.6c-0.6-0.3-1.7-0.5-2-1c-0.9-1.2-1.5-2.7-2.2-4c-1.5-2.9-3-6.1-4.3-9.1c-0.9-2-1.5-4.1-2.7-6
		c-5.4-8.9-11.3-14.3-20.3-19.7c-1.9-1.1-4.3-1.6-6.7-2.2c-1.3-0.1-2.6-0.2-3.9-0.2c-0.8-0.4-1.7-1.4-2.4-1.8
		c-3-1.9-10.7-6-12.9-0.6c-1.4,3.4,2.1,6.8,3.3,8.5c0.9,1.2,2.1,2.6,2.7,3.9c0.4,0.9,0.5,1.8,0.8,2.8c0.8,2.3,1.6,4.9,2.7,7
		c0.6,1.1,1.2,2.3,1.9,3.3c0.4,0.6,1.2,0.8,1.3,1.8c-0.7,1-0.8,2.6-1.2,3.9c-1.9,5.9-1.2,13.3,1.5,17.7c0.8,1.3,2.8,4.2,5.5,3.1
		c2.4-0.9,1.8-3.9,2.5-6.6c0.2-0.6,0.1-1.1,0.4-1.5v0.1c0.7,1.5,1.5,2.9,2.2,4.4c1.6,2.6,4.5,5.3,6.8,7c1.3,0.9,2.3,2.6,3.8,3.2
		v-0.2H146c-0.3-0.5-0.8-0.7-1.2-1c-0.9-0.9-2-2.1-2.7-3.2c-2.2-2.9-4.2-6.2-5.9-9.6c-0.8-1.6-1.6-3.4-2.3-5
		c-0.3-0.6-0.3-1.6-0.8-1.9c-0.8,1.2-1.9,2.2-2.5,3.6c-1,2.3-1.1,5-1.5,7.9c-0.2,0.1-0.1,0-0.2,0.1c-1.7-0.4-2.3-2.2-2.9-3.6
		c-1.6-3.7-1.8-9.7-0.5-14c0.4-1.1,1.9-4.6,1.3-5.6c-0.3-1-1.4-1.6-1.9-2.4c-0.7-1-1.4-2.3-1.9-3.4c-1.3-2.9-1.9-6.2-3.3-9.1
		c-0.6-1.4-1.7-2.8-2.6-4c-1-1.4-2.1-2.4-2.9-4.1c-0.3-0.6-0.6-1.5-0.2-2.2c0.1-0.4,0.3-0.6,0.7-0.7c0.7-0.6,2.6,0.2,3.3,0.5
		c1.9,0.8,3.6,1.5,5.2,2.6c0.7,0.5,1.5,1.5,2.5,1.8h1.1c1.7,0.4,3.6,0.1,5.2,0.6c2.8,0.9,5.3,2.2,7.6,3.6c6.9,4.4,12.6,10.6,16.4,18
		c0.6,1.2,0.9,2.3,1.5,3.6c1.1,2.6,2.5,5.2,3.6,7.7c1.1,2.5,2.2,5,3.7,7c0.8,1.1,3.9,1.7,5.4,2.3c1,0.5,2.7,0.9,3.6,1.5
		c1.8,1.1,3.6,2.4,5.3,3.6C179.8,56.3,182.4,57.6,182.5,58.7"/>
	<path id="XMLID_28_" class="st3" d="M128.9,13c-0.9,0-1.5,0.1-2.2,0.3v0.1h0.1c0.4,0.8,1.2,1.4,1.7,2.2c0.4,0.8,0.8,1.7,1.2,2.5
		l0.1-0.1c0.7-0.5,1.1-1.4,1.1-2.6c-0.3-0.4-0.4-0.7-0.6-1.1C130,13.7,129.4,13.4,128.9,13"/>
</g>
<g id="Calque_23">
</g>
</svg>
