<?xml version="1.0" encoding="utf-8"?>
<!-- Generator: Adobe Illustrator 22.1.0, SVG Export Plug-In . SVG Version: 6.00 Build 0)  -->
<svg version="1.1" id="Calque_1" xmlns="http://www.w3.org/2000/svg" xmlns:xlink="http://www.w3.org/1999/xlink" x="0px" y="0px"
	 viewBox="0 0 149.7 130" style="enable-background:new 0 0 149.7 130;" xml:space="preserve">
<style type="text/css">
	.st0{display:none;}
	.st1{display:inline;}
	.st2{fill:#FD393C;}
	.st3{fill:#333131;}
</style>
<g class="st0">
	<g id="Calque_21_1_" class="st1">
	</g>
	<g id="Calque_9_1_" class="st1">
		<g id="Calque_6_1_">
		</g>
		<g id="Calque_4_1_">
		</g>
	</g>
	<g id="Calque_11_1_" class="st1">
		<g id="Calque_4_-_copie_1_">
		</g>
		<g id="Calque_12_1_">
		</g>
	</g>
	<g id="Calque_11_-_copie_1_" class="st1">
		<g id="Calque_4_-_copie_2_1_">
		</g>
		<g id="Calque_12_-_copie_1_">
		</g>
	</g>
	<g id="Calque_16_1_" class="st1">
	</g>
	<g id="Calque_17_1_" class="st1">
	</g>
	<g id="Calque_19_1_" class="st1">
		<path class="st2" d="M127.8,40.5c0-2-0.4-3.8-1.3-5.3s-2.2-2.7-3.8-3.7c-14-8.1-28.1-16.2-42.1-24.2c-3.8-2.2-7.4-2.1-11.2,0.1
			c-5.7,3.3-33.6,19.3-41.9,24.1c-3.4,2-5.1,5-5.1,9c0,16.2,0,32.5,0,48.8c0,2,0.4,3.7,1.3,5.2s2.2,2.8,3.9,3.9
			c8.3,4.8,36.2,20.8,41.9,24.1c3.8,2.2,7.4,2.3,11.2,0.1c14-8.1,28.1-16.2,42.1-24.2c1.7-1,3.1-2.2,3.9-3.9
			c0.8-1.5,1.3-3.2,1.3-5.2C127.8,89.3,127.8,56.8,127.8,40.5z M75.1,99.9c-13,0-24.3-7.1-30.3-17.6c-3-5.1-4.7-11.1-4.7-17.4
			c0-19.3,15.7-35,35-35c12.9,0,24.2,7,30.3,17.5l-15.3,8.8c-3.1-5.2-8.6-8.7-15.1-8.7c-9.6,0-17.4,7.8-17.4,17.4
			c0,3.1,0.8,6.1,2.3,8.6c3,5.2,8.6,8.8,15.2,8.8c6.6,0,12.2-3.6,15.2-8.9l15.2,8.8C99.5,92.8,88.1,99.9,75.1,99.9z"/>
		<path class="st3" d="M120.2,63.2v-3.6h-2.7v-2.7H114v2.7h-4.5v-2.7h-3.6v2.7h-2.7v3.6h2.7v4.5h-2.7v2.7h2.7V73h3.6v-2.7h4.5V73
			h3.6v-2.7h2.7v-2.7h-2.7v-4.5H120.2z M114,67.7h-4.5v-4.5h4.5V67.7z"/>
	</g>
	<g id="Calque_20_1_" class="st1">
	</g>
	<g id="Calque_14_1_" class="st1">
	</g>
	<g id="Calque_14_-_copie_1_" class="st1">
	</g>
	<g id="Calque_14_-_copie_3_1_" class="st1">
	</g>
	<g id="Calque_14_-_copie_2_1_" class="st1">
	</g>
	<g id="Calque_14_-_copie_4_1_" class="st1">
	</g>
</g>
<g class="st0">
	<g id="Calque_21_2_" class="st1">
	</g>
	<g id="Calque_9_2_" class="st1">
		<g id="Calque_6_2_">
		</g>
		<g id="Calque_4_2_">
		</g>
	</g>
	<g id="Calque_11_2_" class="st1">
		<g id="Calque_4_-_copie_2_">
			<path class="st2" d="M29.4,25.8l8.3,93.3l37.3,10.3l37.5-10.4l8.3-93.2C120.9,25.8,29.4,25.8,29.4,25.8z M105.4,113.7l-30.1,8.2
				l-30.1-8.2L38,34h37.2h37.2L105.4,113.7z"/>
		</g>
		<polygon class="st3" points="75.2,44.9 46.5,44.9 47.5,56.6 75.1,56.6 91.4,56.6 90.2,68.4 75.5,68.4 48.2,68.4 49.3,80.2 
			75.5,80.2 88.7,80.2 87.4,94.1 75.5,97.4 75.1,97.4 62.1,93.9 61.3,84.7 49.4,84.7 50.6,103.2 75.3,110 75.2,110 98.7,103.2 
			103.7,44.9 		"/>
		<g id="Calque_12_2_">
			<polygon class="st3" points="64.7,12.3 64.7,17.7 48.5,17.7 48.5,0.5 64.7,0.5 64.7,6.8 55.7,6.8 55.7,12.3 			"/>
			<polygon class="st3" points="85.6,17.7 101.9,17.7 101.9,12.4 94.8,6.8 101.9,6.8 101.9,0.5 85.6,0.5 85.6,6.9 92.6,12.3 
				85.6,12.3 85.6,17.7 101.9,17.7 85.6,17.7 101.9,17.7 			"/>
			<polygon class="st3" points="69.4,17.7 82.9,17.7 82.9,12.4 75.9,6.8 82.9,6.8 82.9,0.5 66.6,0.5 66.6,6.9 73.7,12.3 66.6,12.3 
				66.6,17.7 82.9,17.7 66.6,17.7 82.9,17.7 			"/>
		</g>
	</g>
	<g id="Calque_11_-_copie_2_" class="st1">
		<g id="Calque_4_-_copie_2_2_">
		</g>
		<g id="Calque_12_-_copie_2_">
		</g>
	</g>
	<g id="Calque_16_2_" class="st1">
	</g>
	<g id="Calque_17_2_" class="st1">
	</g>
	<g id="Calque_19_2_" class="st1">
	</g>
	<g id="Calque_20_2_" class="st1">
	</g>
	<g id="Calque_14_2_" class="st1">
	</g>
	<g id="Calque_14_-_copie_2_" class="st1">
	</g>
	<g id="Calque_14_-_copie_3_2_" class="st1">
	</g>
	<g id="Calque_14_-_copie_2_2_" class="st1">
	</g>
	<g id="Calque_14_-_copie_4_2_" class="st1">
	</g>
</g>
<g class="st0">
	<g id="Calque_21_3_" class="st1">
	</g>
	<g id="Calque_9_3_" class="st1">
		<g id="Calque_6_3_">
			<polygon class="st3" points="98.2,0.5 104.6,0.5 104.6,12.3 112.7,12.3 112.7,17.7 98.2,17.7 			"/>
			<polygon class="st3" points="75.6,0.5 81.7,0.5 85.7,6.3 89.4,0.5 95.5,0.5 95.5,17.7 89.2,17.7 89.2,9.1 85.3,15.3 81,9.3 
				81,17.7 75.6,17.7 			"/>
			<polygon class="st3" points="57.5,0.5 73.8,0.5 73.8,5.9 68.4,5.9 68.4,17.7 62.9,17.7 62.9,5.9 57.5,5.9 			"/>
			<polygon class="st3" points="37.6,0.5 43,0.5 43,6.8 48.5,6.8 48.5,0.5 54.8,0.5 54.8,17.7 48.5,17.7 48.5,12.3 43,12.3 43,17.7 
				37.6,17.7 			"/>
		</g>
		<g id="Calque_4_3_">
			<path class="st2" d="M29.4,25.8l8.3,93.3l37.3,10.3l37.5-10.4l8.3-93.2C120.9,25.8,29.4,25.8,29.4,25.8z M105.4,113.7l-30.1,8.2
				l-30.1-8.2L38,34h37.2h37.2L105.4,113.7z"/>
			<polygon class="st3" points="103.2,56.6 104,44.9 75.2,44.9 46.4,44.9 49.7,79.3 74.9,79.3 89.4,79.3 88.2,94.8 74.9,98.3 
				75.2,98.3 62.4,94.8 61.4,85.6 50,85.6 51.7,103.5 75,110 75.3,110 98.6,103.5 101.7,68.4 75.3,68.4 60,68.4 59,56.6 74.8,56.6 
							"/>
		</g>
	</g>
	<g id="Calque_11_3_" class="st1">
		<g id="Calque_4_-_copie_3_">
		</g>
		<g id="Calque_12_3_">
		</g>
	</g>
	<g id="Calque_11_-_copie_3_" class="st1">
		<g id="Calque_4_-_copie_2_3_">
		</g>
		<g id="Calque_12_-_copie_3_">
		</g>
	</g>
	<g id="Calque_16_3_" class="st1">
	</g>
	<g id="Calque_17_3_" class="st1">
	</g>
	<g id="Calque_19_3_" class="st1">
	</g>
	<g id="Calque_20_3_" class="st1">
	</g>
	<g id="Calque_14_3_" class="st1">
	</g>
	<g id="Calque_14_-_copie_3_" class="st1">
	</g>
	<g id="Calque_14_-_copie_3_3_" class="st1">
	</g>
	<g id="Calque_14_-_copie_2_3_" class="st1">
	</g>
	<g id="Calque_14_-_copie_4_3_" class="st1">
	</g>
</g>
<g class="st0">
	<g id="Calque_21_5_" class="st1">
	</g>
	<g id="Calque_9_5_" class="st1">
		<g id="Calque_6_5_">
		</g>
		<g id="Calque_4_5_">
		</g>
	</g>
	<g id="Calque_11_5_" class="st1">
		<g id="Calque_4_-_copie_5_">
		</g>
		<g id="Calque_12_5_">
		</g>
	</g>
	<g id="Calque_11_-_copie_5_" class="st1">
		<g id="Calque_4_-_copie_2_5_">
		</g>
		<g id="Calque_12_-_copie_5_">
		</g>
	</g>
	<g id="Calque_16_5_" class="st1">
	</g>
	<g id="Calque_17_5_" class="st1">
	</g>
	<g id="Calque_19_5_" class="st1">
	</g>
	<g id="Calque_20_5_" class="st1">
	</g>
	<g id="Calque_14_5_" class="st1">
	</g>
	<g id="Calque_14_-_copie_5_" class="st1">
	</g>
	<g id="Calque_14_-_copie_3_5_" class="st1">
	</g>
	<g id="Calque_14_-_copie_2_5_" class="st1">
	</g>
	<g id="Calque_14_-_copie_4_5_" class="st1">
	</g>
	<g id="Calque_22_4_" class="st1">
	</g>
	<g id="Calque_23_4_" class="st1">
	</g>
	<g id="Calque_24_2_" class="st1">
	</g>
	<g id="Calque_25_2_" class="st1">
	</g>
	<g id="Calque_26_1_" class="st1">
		<g id="XMLID_2_">
			<path id="XMLID_32_" class="st3" d="M179.4,43.2l9.5,0.1c0,0-17.6,23.9-19.1,25.8c-0.5,0.6-1.2,1.3-1.5,2.2
				c-0.9,2.1-1.9,6.8-1.9,6.8l-8.8,0.1c0,0,1.4-4.9,1.3-7.5c-0.1-2.3-1.2-4.6-1.9-6.8c-0.7-2.3-1.5-6.8-1.5-6.8h9l1.3,5l13.7-18.9"
				/>
			<path id="XMLID_24_" class="st3" d="M161.4,47.7c1.8,1.1,2.9,6.9,2.9,6.9l-14.3,0.6h-4.3L140.4,78h-8.1c0,0,5-25.1,6.3-29.6
				c0.4-1.5,2.6-1.2,6.4-1.2h6c3.9,0,8.4-0.5,10.4,0.7"/>
			<path id="XMLID_23_" class="st3" d="M123.8,59.3c0,0,0.2-1.5-0.9-3.2c-1-1.4-1.8-1.8-4.3-1.9c-7-0.2-6.8,5-6.8,5L123.8,59.3z
				 M131.5,53.3c1,3.7-0.9,12.4-0.9,12.4s-10.2-0.2-15.8,0c-1.7,0.1-3.8-0.2-4.3,0.6c-0.7,1.1,0.3,2.9,1.1,3.6c1,0.9,2.9,1,3.5,1
				c4.6,0.6,14,0.2,14,0.2l-1.7,7.3c0,0-13.4,0.7-20.1-0.9c-1.3-0.3-2.6-1-3.4-1.9c-0.2-0.2-0.4-0.6-0.6-0.9c-0.2-0.2-0.7-1-0.9-1.6
				c-1.5-4.1,0.2-11.9,1.9-16.1c0.2-0.5,0.5-1.1,0.7-1.7c0.3-0.6,0.6-1.4,0.9-1.8c0.2-0.3,0.4-0.5,0.6-0.7c0.2-0.3,0.5-0.6,0.7-0.9
				c0.6-0.7,1.3-1.3,2.2-1.9c2.8-2.1,7.9-3.7,13.9-3.1c2.3,0.2,5.8,1,7.4,3.4C131,51.2,131.2,52.4,131.5,53.3z"/>
			<path id="XMLID_22_" class="st3" d="M94.4,47.2l8-0.1c0,0-4.4,20.7-6.6,30.9h-9c-6.3,0-11.9,0.8-14.3-3.7
				c-2.3-4.4-0.1-11.6,0.9-16.5c0.7-3.5,2.3-10.6,2.3-10.6l8.1-0.1c0,0-2.3,11.1-3.3,16.6c-0.3,2-1,3.9-0.3,5.3
				c0.7,1.4,1.7,1.5,4.7,1.6c1,0,4,0,4,0l5.6-23.3"/>
			<path id="XMLID_21_" class="st3" d="M57.9,62.3c0.8-2.9,2-6,1.9-8.7c-0.2-2.8-2.5-5.4-4.1-5.9c-4.6-1.6-8.8,0.6-10.6,2.5
				c-2.2,2.4-3,5.1-3.7,9c-0.6,2.9-1,5.8,0,8c1.9,3.9,7.7,3.1,13.9,3.1C56.4,67.8,57.1,65,57.9,62.3z M68.8,50.8
				c0.9,6.5-2.5,13.6-4.9,19.9c2.4,0.2,4.5-0.1,4.7,0.2c0.2,0.2-1.6,7.4-2.2,7.5c-1.9,0.1-8.2,0.1-10.9,0.1
				c-8.6,0-16.7,0.6-20.8-3.7C33,73,31.9,70,31.6,67.9c-0.5-3.5,0.1-7.4,0.9-10.6c0.7-2.9,1.7-5.6,3.1-8c3.6-6.3,9.9-11,20.5-9.9
				c2.1,0.2,5,1.1,6.8,2.2c0.1,0.1,0.6,0.4,0.7,0.5C66,43.6,68.3,47.4,68.8,50.8z"/>
			<path id="XMLID_20_" class="st3" d="M30.7,47.2c-0.5,2.4-1,5.1-1.6,7.4h-8.7c0.7-2.6,1.2-5.2,1.9-7.4
				C25.1,47.1,27.6,47.2,30.7,47.2"/>
			<path id="XMLID_11_" class="st3" d="M20.2,56.9h8.3c-1.1,6-3.3,15.8-5,22.6c-1.1,4.3-1.8,7.4-4.6,9.6c-0.3,0.2-0.4,0.1-0.6,0.3
				c-0.5,0.5-3,1.1-4.3,1.3c-2.2,0.2-4.7,0.1-7.4,0c0.7-2.6,1.5-5.7,2.2-8c6.6,0.8,6.8-5.4,8-11.5C17.4,67.7,19.7,58.3,20.2,56.9"/>
			<path id="XMLID_10_" class="st2" d="M0.6,72.8l-0.2,0.5C-2.7,79.2-8,82.8-15.8,83c-3.6,0.1-7.1-0.9-9.3-1.9
				c-4.8-2.1-9-6.2-11.2-10.5c-3.2-6.2-3.8-14.8,2.9-21.2c0.1,0-0.8,1.4-0.7,1.4l-0.2,0.6C-39,66.4-24.3,79.2-10,77.8
				C-6.5,77.4-2.1,75.5,0.6,72.8"/>
			<path id="XMLID_7_" class="st2" d="M-8.1,66.6c3.6,0,7.4-1.7,9.6-4.1c-1.9,5-7.6,8.2-15.2,7.1c-6.3-0.9-12.4-7.2-13-13.6
				c-0.5-4.7,1.1-7.4,3.8-10.8c-0.9,1.8-1.3,3.1-1.4,4C-25.2,59.3-16.2,66.6-8.1,66.6"/>
			<path id="XMLID_6_" class="st2" d="M1.2,54.1c-0.6,1.3-3.8,3.7-5.2,4c-5.6,1.2-9.2-1.5-11.2-4.5c-0.3-0.5-0.8-1.7-0.9-2
				c-0.7-2.5-0.4-6.3,1.8-8.2c-0.7,1.9-0.7,4-0.4,5.4c0.2,0.9,0.9,2.3,1.5,3.3c1.1,1.7,1.9,2.1,3.4,3c0.7,0.4,1.4,0.7,1.7,0.8
				C-6.7,56.3-3.7,57.4,1.2,54.1"/>
		</g>
	</g>
</g>
<g class="st0">
	<g id="Calque_21_6_" class="st1">
	</g>
	<g id="Calque_9_6_" class="st1">
		<g id="Calque_6_6_">
		</g>
		<g id="Calque_4_6_">
		</g>
	</g>
	<g id="Calque_11_6_" class="st1">
		<g id="Calque_4_-_copie_6_">
		</g>
		<g id="Calque_12_6_">
		</g>
	</g>
	<g id="Calque_11_-_copie_6_" class="st1">
		<g id="Calque_4_-_copie_2_6_">
			<path class="st2" d="M29.4,25.8l8.3,93.3l37.3,10.3l37.5-10.4l8.3-93.2C120.9,25.8,29.4,25.8,29.4,25.8z M105.4,113.7l-30.1,8.2
				l-30.1-8.2L38,34h37.2h37.2L105.4,113.7z"/>
		</g>
		<polygon class="st3" points="75.2,44.9 46.5,44.9 47.5,56.6 75.3,56.6 91.2,56.6 87.6,94 75.3,97.4 75.1,97.4 62.1,93.9 
			61.3,84.7 49.4,84.7 50.6,103.2 75.3,110 75.2,110 98.7,103.2 103.7,44.9 		"/>
		<g id="Calque_12_-_copie_6_">
			<polygon class="st3" points="57.5,17.7 73.8,17.7 73.8,0.5 66.6,0.5 66.6,11.4 57.5,11.4 			"/>
			<polygon class="st3" points="79.3,17.7 92.8,17.7 92.8,12.4 85.8,6.8 92.8,6.8 92.8,0.5 76.5,0.5 76.5,6.9 83.7,12.3 76.5,12.3 
				76.5,17.7 92.8,17.7 76.5,17.7 92.8,17.7 			"/>
		</g>
	</g>
	<g id="Calque_16_6_" class="st1">
	</g>
	<g id="Calque_17_6_" class="st1">
	</g>
	<g id="Calque_19_6_" class="st1">
	</g>
	<g id="Calque_20_6_" class="st1">
	</g>
	<g id="Calque_14_6_" class="st1">
	</g>
	<g id="Calque_14_-_copie_6_" class="st1">
	</g>
	<g id="Calque_14_-_copie_3_6_" class="st1">
	</g>
	<g id="Calque_14_-_copie_2_6_" class="st1">
	</g>
	<g id="Calque_14_-_copie_4_6_" class="st1">
	</g>
</g>
<g>
	<g id="Calque_21_7_">
	</g>
	<g id="Calque_9_7_">
		<g id="Calque_6_7_">
		</g>
		<g id="Calque_4_7_">
		</g>
	</g>
	<g id="Calque_11_7_">
		<g id="Calque_4_-_copie_7_">
		</g>
		<g id="Calque_12_7_">
		</g>
	</g>
	<g id="Calque_11_-_copie_7_">
		<g id="Calque_4_-_copie_2_7_">
		</g>
		<g id="Calque_12_-_copie_7_">
		</g>
	</g>
	<g id="Calque_16_7_">
	</g>
	<g id="Calque_17_7_">
	</g>
	<g id="Calque_19_7_">
	</g>
	<g id="Calque_20_7_">
	</g>
	<g id="Calque_14_7_">
	</g>
	<g id="Calque_14_-_copie_7_">
	</g>
	<g id="Calque_14_-_copie_3_7_">
	</g>
	<g id="Calque_14_-_copie_2_7_">
	</g>
	<g id="Calque_14_-_copie_4_7_">
	</g>
	<g id="Calque_22_5_">
		<path id="XMLID_15_" class="st3" d="M36.1,107h-5.4c-0.2-9.8-0.8-18.9-1.7-27.6h-0.1L20.1,107h-4.2L7,79.3l0,0
			C6.4,87.6,5.9,96.9,5.8,107H0.5c0.3-12.4,1.2-23.9,2.6-34.7h7.2l8.3,25.2h0.1l8.4-25.2h6.8c1.5,12.5,2.4,24,2.7,34.3"/>
		<path id="XMLID_14_" class="st3" d="M60.9,81c-2.4,12.7-5.4,21.9-9.2,27.7c-3,4.4-6.2,6.6-9.8,6.6c-0.9,0-2.1-0.3-3.5-0.9v-3.1
			c0.7,0.1,1.5,0.2,2.4,0.2c1.7,0,3-0.5,4-1.3c1.2-1.1,1.8-2.4,1.8-3.8c0-0.9-0.5-2.9-1.4-5.8L38.9,81h5.7l4.5,14.7
			c1,3.3,1.4,5.7,1.3,6.9c2.4-6.6,4.2-13.8,5.2-21.6C55.6,81,60.9,81,60.9,81z"/>
		<polygon id="XMLID_13_" class="st2" points="137.9,107 121.3,107 121.3,72.3 126.8,72.3 126.8,102.3 137.9,102.3 		"/>
		<path id="XMLID_12_" class="st2" d="M117.1,107.5l-6.3-3.1c0.6-0.5,1.1-0.9,1.6-1.5c2.7-3.2,4-7.8,4-14c0-11.4-4.4-17-13.3-17
			c-4.3,0-7.8,1.4-10.2,4.3c-2.7,3.2-4,7.8-4,14c0,6,1.2,10.5,3.6,13.3c2.1,2.5,5.4,3.8,9.8,3.8c1.7,0,3.2-0.2,4.5-0.6l8.2,4.8
			L117.1,107.5z M96.7,99.7c-1.4-2.2-2.1-5.8-2.1-10.8c0-8.7,2.6-12.9,7.9-12.9c2.8,0,4.7,1,6.1,3.1c1.4,2.2,2.1,5.8,2.1,10.7
			c0,8.7-2.6,13.1-7.9,13.1C100,102.8,98,101.8,96.7,99.7"/>
		<path id="XMLID_5_" class="st2" d="M86.4,97.1c0,2.9-1.1,5.3-3.2,7.2s-5,2.8-8.6,2.8c-3.4,0-6.6-1.1-9.8-3.2l1.5-2.9
			c2.7,1.3,5.1,2.1,7.3,2.1c2.1,0,3.7-0.5,4.9-1.3c1.2-0.9,1.9-2.2,1.9-3.8c0-2.1-1.4-3.8-4-5.2c-2.4-1.3-7.2-4.1-7.2-4.1
			c-2.6-1.9-3.9-3.9-3.9-7.3c0-2.8,0.9-5,2.9-6.7c2-1.7,4.5-2.6,7.6-2.6c3.2,0,6.1,0.9,8.7,2.5l-1.3,2.9c-2.2-0.9-4.4-1.4-6.6-1.4
			c-1.7,0-3.2,0.4-4.1,1.3c-0.9,0.9-1.6,1.9-1.6,3.2c0,2.1,1.4,3.8,4.1,5.3c2.4,1.3,7.3,4.1,7.3,4.1C85.1,91.8,86.4,93.7,86.4,97.1"
			/>
		<path id="XMLID_3_" class="st3" d="M144.9,60.8c-3.3-0.1-5.9,0.2-8,1.2c-0.6,0.2-1.6,0.2-1.7,1c0.3,0.3,0.4,0.9,0.6,1.3
			c0.5,0.9,1.3,2,2.1,2.5c0.9,0.6,1.7,1.3,2.7,1.9c1.6,1,3.5,1.6,5,2.6c0.9,0.6,1.8,1.3,2.8,2c0.5,0.3,0.7,0.9,1.3,1.1v-0.2
			c0,0-0.7-0.9-0.9-1.3c-0.4-0.4-0.9-0.8-1.3-1.2c-1.2-1.6-2.7-3-4.3-4.2c-1.3-0.9-4.3-2.1-4.7-3.7l-0.1-0.1c0.9-0.1,2-0.4,2.8-0.6
			c1.4-0.4,2.7-0.3,4.2-0.6c0.6-0.2,1.3-0.4,2-0.6v-0.3c-0.8-0.7-1.3-1.7-2.1-2.5c-2.1-1.8-4.4-3.6-6.9-5.1
			c-1.3-0.9-2.9-1.3-4.4-2.1c-0.5-0.2-1.3-0.4-1.6-0.8c-0.7-1-1.2-2.1-1.7-3.2c-1.2-2.3-2.4-4.8-3.4-7.2c-0.7-1.6-1.2-3.2-2.1-4.8
			c-4.3-7-8.9-11.3-16.1-15.6c-1.5-0.9-3.4-1.3-5.3-1.7c-1-0.1-2.1-0.2-3.1-0.2c-0.6-0.3-1.3-1.1-1.9-1.4c-2.4-1.5-8.5-4.8-10.2-0.5
			c-1.1,2.7,1.7,5.4,2.6,6.7c0.7,1,1.7,2.1,2.1,3.1c0.3,0.7,0.4,1.4,0.6,2.2c0.6,1.8,1.3,3.9,2.1,5.5c0.5,0.9,1,1.8,1.5,2.6
			c0.3,0.5,1,0.6,1,1.4c-0.6,0.8-0.6,2.1-1,3.1c-1.5,4.7-1,10.5,1.2,14c0.6,1,2.2,3.3,4.4,2.5c1.9-0.7,1.4-3.1,2-5.2
			c0.2-0.5,0.1-0.9,0.3-1.2v0.2c0.6,1.2,1.2,2.3,1.8,3.5c1.3,2.1,3.6,4.2,5.4,5.5c1,0.7,1.8,2.1,3,2.5v-0.2h0
			c-0.2-0.4-0.6-0.6-1-0.8c-0.7-0.7-1.6-1.7-2.2-2.5c-1.8-2.3-3.4-4.9-4.7-7.6c-0.6-1.3-1.3-2.7-1.8-3.9c-0.2-0.5-0.2-1.3-0.6-1.5
			c-0.6,0.9-1.5,1.7-2,2.8c-0.8,1.8-0.9,3.9-1.2,6.2c-0.2,0.1-0.1,0-0.2,0.1c-1.4-0.3-1.8-1.7-2.3-2.8c-1.3-2.9-1.4-7.7-0.4-11
			c0.3-0.9,1.5-3.6,1-4.4c-0.2-0.8-1.1-1.3-1.5-1.9c-0.6-0.8-1.1-1.8-1.5-2.7c-1-2.3-1.5-4.9-2.6-7.2c-0.5-1.1-1.4-2.2-2.1-3.2
			c-0.8-1.1-1.7-1.9-2.3-3.2c-0.2-0.5-0.5-1.2-0.2-1.7c0.1-0.3,0.2-0.5,0.6-0.6c0.6-0.5,2.1,0.2,2.6,0.4c1.5,0.6,2.9,1.2,4.2,2.1
			c0.6,0.4,1.2,1.2,2,1.4h1.1c1.3,0.3,2.8,0.1,4.1,0.5c2.2,0.7,4.2,1.7,6,2.8c5.4,3.5,9.9,8.4,12.9,14.2c0.5,0.9,0.7,1.8,1.2,2.8
			c0.9,2.1,2,4.1,2.8,6.1c0.9,2,1.7,3.9,2.9,5.5c0.6,0.9,3.1,1.3,4.3,1.8c0.8,0.4,2.1,0.7,2.8,1.2c1.4,0.9,2.8,1.9,4.2,2.8
			c0.6,0.3,2.6,1.3,2.7,2.2"/>
		<path id="XMLID_1_" class="st3" d="M102.5,24.6c-0.7,0-1.2,0.1-1.7,0.2v0.1h0.1c0.3,0.6,0.9,1.1,1.3,1.7c0.3,0.6,0.6,1.3,0.9,2
			l0.1-0.1c0.6-0.4,0.9-1.1,0.9-2.1c-0.2-0.3-0.3-0.6-0.5-0.9C103.4,25.2,102.9,24.9,102.5,24.6"/>
	</g>
	<g id="Calque_23_5_">
	</g>
</g>
</svg>
