<?xml version="1.0" encoding="utf-8"?>
<!-- Generator: Adobe Illustrator 22.1.0, SVG Export Plug-In . SVG Version: 6.00 Build 0)  -->
<svg version="1.1" id="Calque_1" xmlns="http://www.w3.org/2000/svg" xmlns:xlink="http://www.w3.org/1999/xlink" x="0px" y="0px"
	 viewBox="0 0 113.1 130" style="enable-background:new 0 0 113.1 130;" xml:space="preserve">
<style type="text/css">
	.st0{fill:#FD393C;}
</style>
<g>
	<g id="Calque_21_8_">
	</g>
	<g id="Calque_9_8_">
		<g id="Calque_6_8_">
		</g>
		<g id="Calque_4_8_">
		</g>
	</g>
	<g id="Calque_11_8_">
		<g id="Calque_4_-_copie_8_">
		</g>
		<g id="Calque_12_8_">
		</g>
	</g>
	<g id="Calque_11_-_copie_8_">
		<g id="Calque_4_-_copie_2_8_">
		</g>
		<g id="Calque_12_-_copie_8_">
		</g>
	</g>
	<g id="Calque_16_8_">
	</g>
	<g id="Calque_17_8_">
	</g>
	<g id="Calque_19_8_">
	</g>
	<g id="Calque_20_8_">
	</g>
	<g id="Calque_14_8_">
	</g>
	<g id="Calque_14_-_copie_8_">
	</g>
	<g id="Calque_14_-_copie_3_8_">
	</g>
	<g id="Calque_14_-_copie_2_8_">
	</g>
	<g id="Calque_14_-_copie_4_8_">
	</g>
	<g id="Calque_22_1_">
	</g>
	<g id="Calque_23_1_">
	</g>
	<g id="Calque_24_3_">
	</g>
	<g id="Calque_25_3_">
		<path class="st0" d="M56.7,128.9c-1.8,0-3.4-0.4-4.9-1.3l-15.6-9.3c-2.3-1.3-1.2-1.8-0.4-2c3.1-1.1,3.8-1.3,7.1-3.1
			c0.4-0.3,0.8-0.1,1.2,0.1l12,7.1c0.4,0.3,1.1,0.3,1.4,0l46.9-27.2c0.4-0.3,0.3-1.3,0.3-1.3V37.8c0-0.6-0.3-1.1-0.7-1.2l-46.9-27
			c-0.4-0.3-1.1-0.3-1.4,0l-46.7,27C8.3,36.9,8,37.4,8,37.8v54.3c0,0.4,0.3,1.1,0.7,1.3l12.9,7.4c7,3.5,11.4-0.6,11.4-4.7V42.7
			c0-0.7,0.6-1.4,1.4-1.4h6.1c0.7,0,1.4,0.6,1.4,1.4v53.4c0,9.3-5.1,14.6-13.9,14.6c-2.7,0-4.8,0-10.8-2.9l-12.4-7.1
			C1.9,99,0,95.7,0,92.2V38c0-3.5,1.9-6.8,4.9-8.6L51.8,2.3c2.9-1.6,7-1.6,9.8,0l46.9,27.2c3,1.8,4.9,5.1,4.9,8.6v54.1
			c0,0-1.9,6.8-4.9,8.6l-46.9,27.1C60.1,128.5,58.3,128.9,56.7,128.9z M71.2,91.2c-20.3,0-24.5-9.3-24.5-17.2c0-0.7,0.6-1.4,1.4-1.4
			h6c0.7,0,1.2,0.4,1.2,1.1c1,6.2,3.6,9.2,15.9,9.2c9.7,0,13.9-2.2,13.9-7.4c0-3-1.1-5.2-16.3-6.7c-12.6-1.2-20.6-4.1-20.6-14.1
			c0-9.4,7.9-15,21.1-15c14.8,0,22.2,5.1,23.1,16.2c0,0.4-0.1,0.7-0.4,1.1c-0.3,0.3-0.6,0.4-1,0.4h-6c-0.6,0-1.1-0.4-1.2-1.1
			c-1.4-6.4-5-8.5-14.5-8.5c-10.7,0-11.9,3.7-11.9,6.5c0,3.4,1.5,4.4,15.9,6.3c14.1,1.9,20.9,4.6,20.9,14.6
			C94.2,85.4,85.9,91.2,71.2,91.2z"/>
	</g>
</g>
</svg>
