<?xml version="1.0" encoding="utf-8"?>
<!-- Generator: Adobe Illustrator 22.1.0, SVG Export Plug-In . SVG Version: 6.00 Build 0)  -->
<svg version="1.1" xmlns="http://www.w3.org/2000/svg" xmlns:xlink="http://www.w3.org/1999/xlink" x="0px" y="0px"
	 viewBox="0 0 127 143.1" style="enable-background:new 0 0 127 143.1;" xml:space="preserve">
<style type="text/css">
	.st0{fill:#FD393C;}
</style>
<g id="Calque_21">
</g>
<g id="Calque_9">
	<g id="Calque_6">
	</g>
	<g id="Calque_4">
	</g>
</g>
<g id="Calque_11">
	<g id="Calque_4_-_copie">
	</g>
	<g id="Calque_12">
	</g>
</g>
<g id="Calque_11_-_copie">
	<g id="Calque_4_-_copie_2">
	</g>
	<g id="Calque_12_-_copie">
	</g>
</g>
<g id="Calque_16">
</g>
<g id="Calque_17">
</g>
<g id="Calque_19">
</g>
<g id="Calque_20">
</g>
<g id="Calque_14">
</g>
<g id="Calque_14_-_copie">
</g>
<g id="Calque_14_-_copie_3">
</g>
<g id="Calque_14_-_copie_2">
</g>
<g id="Calque_14_-_copie_4">
</g>
<g id="Calque_22">
</g>
<g id="Calque_23">
</g>
<g id="Calque_24">
</g>
<g id="Calque_25">
	<path class="st0" d="M63.5,143.1c-2,0-3.8-0.5-5.5-1.4l-17.5-10.4c-2.6-1.4-1.3-2-0.5-2.2c3.5-1.2,4.2-1.4,7.9-3.5
		c0.4-0.3,0.9-0.1,1.3,0.1l13.4,8c0.5,0.3,1.2,0.3,1.6,0l52.5-30.4c0.5-0.3,0.8-0.8,0.8-1.4V41.2c0-0.7-0.3-1.2-0.8-1.4L64.1,9.5
		c-0.5-0.3-1.2-0.3-1.6,0L10.1,39.8c-0.5,0.3-0.8,0.9-0.8,1.4v60.6c0,0.5,0.3,1.2,0.8,1.4l14.3,8.3c7.8,3.9,12.6-0.7,12.6-5.3V46.5
		c0-0.8,0.7-1.6,1.6-1.6h6.7c0.8,0,1.6,0.7,1.6,1.6v59.8c0,10.4-5.7,16.4-15.5,16.4c-3,0-5.4,0-12.1-3.3l-13.8-7.9
		c-3.4-2-5.5-5.7-5.5-9.6V41.3c0-3.9,2.1-7.6,5.5-9.6L58,1.4c3.3-1.8,7.8-1.8,11,0l52.5,30.4c3.4,2,5.5,5.7,5.5,9.6v60.6
		c0,3.9-2.1,7.6-5.5,9.6L69,141.9C67.3,142.7,65.3,143.1,63.5,143.1z M79.7,101.4c-23,0-27.7-10.5-27.7-19.5c0-0.8,0.7-1.6,1.6-1.6
		h6.8c0.8,0,1.4,0.5,1.4,1.3c1.1,7,4.1,10.4,18,10.4c11,0,15.8-2.5,15.8-8.4c0-3.4-1.3-5.9-18.5-7.6c-14.3-1.4-23.3-4.6-23.3-16
		c0-10.6,8.9-17,23.9-17c16.8,0,25.1,5.8,26.2,18.4c0,0.4-0.1,0.8-0.4,1.2c-0.3,0.3-0.7,0.5-1.1,0.5h-6.8c-0.7,0-1.3-0.5-1.4-1.2
		c-1.6-7.2-5.7-9.6-16.4-9.6c-12.1,0-13.5,4.2-13.5,7.4c0,3.8,1.7,5,18,7.1C98.3,68.9,106,72,106,83.3
		C105.8,94.8,96.4,101.4,79.7,101.4z"/>
</g>
</svg>
