<?xml version="1.0" encoding="utf-8"?>
<!-- Generator: Adobe Illustrator 22.1.0, SVG Export Plug-In . SVG Version: 6.00 Build 0)  -->
<svg version="1.1" id="Calque_1" xmlns="http://www.w3.org/2000/svg" xmlns:xlink="http://www.w3.org/1999/xlink" x="0px" y="0px"
	 viewBox="0 0 141.3 130" style="enable-background:new 0 0 141.3 130;" xml:space="preserve">
<style type="text/css">
	.st0{fill:#FD393C;}
	.st1{fill:#333131;}
</style>
<g>
	<g id="Calque_21_9_">
	</g>
	<g id="Calque_9_9_">
		<g id="Calque_6_9_">
		</g>
		<g id="Calque_4_9_">
		</g>
	</g>
	<g id="Calque_11_9_">
		<g id="Calque_4_-_copie_9_">
		</g>
		<g id="Calque_12_9_">
		</g>
	</g>
	<g id="Calque_11_-_copie_9_">
		<g id="Calque_4_-_copie_2_9_">
		</g>
		<g id="Calque_12_-_copie_9_">
		</g>
	</g>
	<g id="Calque_16_9_">
	</g>
	<g id="Calque_17_9_">
	</g>
	<g id="Calque_19_9_">
	</g>
	<g id="Calque_20_9_">
	</g>
	<g id="Calque_14_9_">
	</g>
	<g id="Calque_14_-_copie_9_">
	</g>
	<g id="Calque_14_-_copie_3_9_">
	</g>
	<g id="Calque_14_-_copie_2_9_">
	</g>
	<g id="Calque_14_-_copie_4_9_">
	</g>
	<g id="Calque_22_2_">
	</g>
	<g id="Calque_23_2_">
		<g>
			<path class="st0" d="M70.6,27.8c-39,0-70.7,16.6-70.7,37.2s31.7,37.2,70.7,37.2s70.7-16.6,70.7-37.2S109.6,27.8,70.6,27.8z
				 M75.1,77.4c-0.3,0-0.7-0.2-0.8-0.4c-0.3-0.3-0.3-0.6-0.3-0.9l3.3-16.6c0.4-2.1,0.1-2.8-0.2-2.9c-0.2-0.2-0.9-0.7-3.3-0.7h-5.6
				l-4,20.6c-0.1,0.5-0.6,0.9-1.1,0.9h-8c-0.3,0-0.7-0.2-0.8-0.4c-0.2-0.2-0.3-0.6-0.2-0.9l1.5-7.4c-0.9,1.6-2.1,3-3.5,4.3
				c-1.7,1.7-3.7,2.8-5.8,3.5c-2.1,0.7-4.7,1-7.9,1h-6l-1.7,9c-0.1,0.5-0.6,0.9-1.1,0.9h-8.2c-0.3,0-0.7-0.2-0.8-0.4
				c-0.2-0.2-0.3-0.6-0.2-0.9l7.3-37.5c0.1-0.5,0.6-0.9,1.1-0.9h15.7c5,0,8.7,1.4,11,4c1.3,1.5,2.1,3.2,2.4,5.2l3.5-18.3
				c0.1-0.5,0.6-0.9,1.1-0.9h8.1c0.3,0,0.7,0.2,0.8,0.4c0.2,0.2,0.3,0.6,0.2,0.9l-1.7,8.6h6c4.9,0,8.2,0.8,10.1,2.7
				c2,1.8,2.7,4.8,1.9,8.7l-3.4,17.5c-0.1,0.5-0.6,0.9-1.1,0.9H75.1L75.1,77.4z M121.1,63.2c-0.4,1.9-1,3.7-1.9,5.3
				s-2.1,3.1-3.6,4.4c-1.7,1.7-3.7,2.8-5.8,3.5c-2.1,0.7-4.7,1-8,1h-6l-1.7,9c-0.1,0.5-0.6,0.9-1.1,0.9h-8.1c-0.3,0-0.7-0.2-0.8-0.4
				c-0.2-0.2-0.3-0.6-0.2-0.9l7.3-37.5c0.1-0.5,0.6-0.9,1.1-0.9h15.6c5.1,0,8.8,1.4,11.1,4.1C121.2,54.6,122,58.4,121.1,63.2z"/>
			<path class="st0" d="M41.1,55.9h-4.6L34,69.1h3.6c2.9,0,5.1-0.6,6.5-1.6c1.4-1.1,2.3-2.9,2.8-5.5c0.5-2.4,0.3-4-0.5-4.8
				C45.8,56.6,44.5,55.9,41.1,55.9z"/>
			<path class="st0" d="M104.5,55.9H100l-2.5,13.2h3.6c2.9,0,5.1-0.6,6.5-1.6c1.4-1.1,2.3-2.9,2.8-5.5l0,0c0.5-2.4,0.3-4-0.5-4.8
				C109.3,56.6,107.9,55.9,104.5,55.9z"/>
		</g>
		<path id="XMLID_17_" class="st1" d="M41.1,54.2c3.1,0,5.2,0.6,6.2,1.7c1,1.2,1.2,3.1,0.7,5.9c-0.6,2.9-1.7,5-3.2,6.2
			S40.8,70,37.5,70h-5l3.1-15.7L41.1,54.2L41.1,54.2z M21.3,85.7h8.1l1.9-9.9h7c3.1,0,5.6-0.3,7.6-1s3.8-1.7,5.4-3.2
			c1.3-1.2,2.5-2.6,3.3-4.1c0.8-1.5,1.4-3.1,1.8-4.9c0.8-4.4,0.2-7.8-1.9-10.3c-2.1-2.5-5.5-3.7-10.2-3.7H28.6L21.3,85.7"/>
		<path id="XMLID_16_" class="st1" d="M62.7,38.5h7.8l-1.9,9.9h7.2c4.5,0,7.6,0.8,9.3,2.4c1.7,1.6,2.2,4.1,1.6,7.6l-3.4,17.3h-8.2
			l3.3-16.7c0.3-1.9,0.3-3.2-0.4-3.8c-0.7-0.7-2-1-4.1-1h-6.4l-4.2,21.5h-8l7.2-37.5"/>
		<path id="XMLID_4_" class="st1" d="M104.6,54.2c3.1,0,5.2,0.6,6.2,1.7c1,1.2,1.2,3.1,0.7,5.9c-0.6,2.9-1.7,5-3.2,6.2
			S104.2,70,101,70h-5l3.1-15.7L104.6,54.2L104.6,54.2z M85,85.7h7.9l1.9-9.9h7c3.1,0,5.6-0.3,7.6-1c2-0.7,3.8-1.7,5.4-3.2
			c1.3-1.2,2.5-2.6,3.3-4.1c0.8-1.5,1.4-3.1,1.8-4.9c0.8-4.4,0.2-7.8-1.9-10.3s-5.5-3.7-10.2-3.7H92.1l-7.3,37.3"/>
	</g>
</g>
</svg>
