<?xml version="1.0" encoding="utf-8"?>
<!-- Generator: Adobe Illustrator 21.1.0, SVG Export Plug-In . SVG Version: 6.00 Build 0)  -->
<svg version="1.1" xmlns="http://www.w3.org/2000/svg" xmlns:xlink="http://www.w3.org/1999/xlink" x="0px" y="0px"
	 viewBox="0 0 171 90" style="enable-background:new 0 0 171 90;" xml:space="preserve">
<style type="text/css">
	.st0{fill:#FD393C;}
	.st1{fill:#333131;}
</style>
<g id="Calque_21">
</g>
<g id="Calque_9">
	<g id="Calque_6">
	</g>
	<g id="Calque_4">
	</g>
</g>
<g id="Calque_11">
	<g id="Calque_4_-_copie">
	</g>
	<g id="Calque_12">
	</g>
</g>
<g id="Calque_11_-_copie">
	<g id="Calque_4_-_copie_2">
	</g>
	<g id="Calque_12_-_copie">
	</g>
</g>
<g id="Calque_16">
</g>
<g id="Calque_17">
</g>
<g id="Calque_19">
</g>
<g id="Calque_20">
</g>
<g id="Calque_14">
</g>
<g id="Calque_14_-_copie">
</g>
<g id="Calque_14_-_copie_3">
</g>
<g id="Calque_14_-_copie_2">
</g>
<g id="Calque_14_-_copie_4">
</g>
<g id="Calque_22">
</g>
<g id="Calque_23">
	<g>
		<path class="st0" d="M85.5,0C38.3,0,0,20.1,0,45s38.3,45,85.5,45c47.2,0,85.5-20.1,85.5-45S132.7,0,85.5,0z M90.9,59.5
			c-0.4,0-0.8-0.2-1-0.5c-0.3-0.3-0.4-0.7-0.3-1.1L93.5,38c0.5-2.5,0.1-3.3-0.2-3.5c-0.2-0.2-1.1-0.8-3.9-0.8h-6.7l-4.8,24.7
			c-0.1,0.6-0.7,1.1-1.3,1.1h-9.7c-0.4,0-0.8-0.2-1-0.5c-0.3-0.3-0.4-0.7-0.3-1.1l1.8-9c-1.1,1.9-2.5,3.6-4.2,5.2
			c-2.1,2-4.5,3.4-7,4.2c-2.5,0.8-5.7,1.2-9.6,1.2h-7.3l-2.1,10.9c-0.1,0.6-0.7,1.1-1.3,1.1H26c-0.4,0-0.8-0.2-1-0.5
			c-0.3-0.3-0.4-0.7-0.3-1.1l8.8-45.1c0.1-0.6,0.7-1.1,1.3-1.1h18.9c6.1,0,10.6,1.7,13.4,4.9c1.6,1.8,2.5,3.9,2.9,6.4l4.3-22.3
			c0.1-0.6,0.7-1.1,1.3-1.1h9.7c0.4,0,0.8,0.2,1,0.5c0.3,0.3,0.4,0.7,0.3,1.1l-2,10.4h7.1c5.9,0,9.9,1,12.2,3.2
			c2.4,2.2,3.2,5.8,2.3,10.5l-4.1,21c-0.1,0.6-0.7,1.1-1.3,1.1H90.9z M146.5,42.3c-0.5,2.3-1.2,4.5-2.3,6.4
			c-1.1,1.9-2.5,3.7-4.3,5.3c-2.1,2-4.5,3.4-7,4.2c-2.5,0.8-5.7,1.2-9.6,1.2H116l-2.1,10.9c-0.1,0.6-0.7,1.1-1.3,1.1h-9.8
			c-0.4,0-0.8-0.2-1-0.5c-0.3-0.3-0.4-0.7-0.3-1.1l8.8-45.1c0.1-0.6,0.7-1.1,1.3-1.1h18.9c6.1,0,10.6,1.7,13.4,4.9
			C146.7,32,147.6,36.6,146.5,42.3z"/>
		<path class="st0" d="M49.9,33.5h-5.6l-3.1,16.2h4.4c3.6,0,6.3-0.7,8-2c1.7-1.3,2.8-3.5,3.4-6.7c0.6-2.9,0.4-4.9-0.6-5.9
			C55.7,34.4,54.1,33.5,49.9,33.5z"/>
		<path class="st0" d="M126.6,33.5H121l-3.1,16.2h4.4c3.6,0,6.3-0.7,8-2c1.7-1.3,2.8-3.5,3.4-6.7v0c0.6-2.9,0.4-4.9-0.6-5.9
			C132.4,34.4,130.7,33.5,126.6,33.5z"/>
	</g>
	<path id="XMLID_9_" class="st1" d="M49.9,32.2c3.7,0,6.2,0.7,7.5,2.1c1.2,1.4,1.5,3.7,0.9,7.1c-0.7,3.5-2,6-3.9,7.5
		c-1.9,1.5-4.9,2.2-8.8,2.2h-6l3.7-18.9H49.9L49.9,32.2z M26,70.2h9.8l2.3-12h8.4c3.7,0,6.8-0.4,9.2-1.2c2.4-0.8,4.6-2.1,6.5-3.9
		c1.6-1.5,3-3.2,4-5c1-1.8,1.7-3.8,2.2-6c1-5.3,0.3-9.5-2.3-12.5c-2.6-3-6.7-4.5-12.4-4.5H34.8L26,70.2"/>
	<path id="XMLID_8_" class="st1" d="M75.7,13.1h9.7l-2.3,12h8.7c5.5,0,9.2,1,11.3,2.9c2.1,1.9,2.7,5,1.9,9.3l-4.1,21h-9.9l3.9-19.9
		c0.4-2.3,0.3-3.8-0.5-4.6c-0.8-0.8-2.4-1.2-4.9-1.2h-7.8l-5,25.8h-9.7L75.7,13.1"/>
	<path id="XMLID_29_" class="st1" d="M126.6,32.2c3.7,0,6.2,0.7,7.5,2.1c1.2,1.4,1.5,3.7,0.9,7.1c-0.7,3.5-2,6-3.9,7.5
		c-1.9,1.5-4.9,2.2-8.8,2.2h-6l3.7-18.9H126.6L126.6,32.2z M102.7,70.2h9.8l2.3-12h8.4c3.7,0,6.8-0.4,9.2-1.2
		c2.4-0.8,4.6-2.1,6.5-3.9c1.6-1.5,3-3.2,4-5c1-1.8,1.7-3.8,2.2-6c1-5.3,0.3-9.5-2.3-12.5c-2.6-3-6.7-4.5-12.4-4.5h-18.9L102.7,70.2
		"/>
</g>
</svg>
