<?xml version="1.0" encoding="utf-8"?>
<!-- Generator: Adobe Illustrator 21.1.0, SVG Export Plug-In . SVG Version: 6.00 Build 0)  -->
<svg version="1.1" xmlns="http://www.w3.org/2000/svg" xmlns:xlink="http://www.w3.org/1999/xlink" x="0px" y="0px"
	 viewBox="0 0 116.8 114.3" style="enable-background:new 0 0 116.8 114.3;" xml:space="preserve">
<style type="text/css">
	.st0{fill:#FD393C;}
	.st1{fill:#333131;}
</style>
<g id="Calque_21">
</g>
<g id="Calque_9">
	<g id="Calque_6">
	</g>
	<g id="Calque_4">
	</g>
</g>
<g id="Calque_11">
	<g id="Calque_4_-_copie">
	</g>
	<g id="Calque_12">
	</g>
</g>
<g id="Calque_11_-_copie">
	<g id="Calque_4_-_copie_2">
	</g>
	<g id="Calque_12_-_copie">
	</g>
</g>
<g id="Calque_16">
</g>
<g id="Calque_17">
</g>
<g id="Calque_19">
</g>
<g id="Calque_20">
</g>
<g id="Calque_14">
</g>
<g id="Calque_14_-_copie">
</g>
<g id="Calque_14_-_copie_3">
</g>
<g id="Calque_14_-_copie_2">
</g>
<g id="Calque_14_-_copie_4">
	<path class="st0" d="M0,0v114.3h116.8V0H0z M107.4,105.2H9.4V9.3h97.9V105.2z"/>
	<path class="st1" d="M43.6,31.6c-5.8,0-13,1.2-13,1.2v47.6h8.7V62c0,0,0.7,0.5,4,0.5c7,0,19.8-2,19.8-16.1
		C63.2,32.4,49.4,31.6,43.6,31.6z M39.3,55.2V38.9c0,0,14.9-3.5,14.9,7.9C54.2,58.1,39.3,55.2,39.3,55.2z"/>
	<path class="st1" d="M66.8,81.3h8.9v-19c0,0,0.6-9.1,8.7-9.1c1.7,0,2.4,0.5,2.4,0.5V45c0,0-0.8-0.3-2.2-0.3c-1.5,0-7.6,1.1-9.8,7.7
		l-0.2-6.9h-8.1L66.8,81.3z"/>
</g>
</svg>
