<?xml version="1.0" encoding="utf-8"?>
<!-- Generator: Adobe Illustrator 22.1.0, SVG Export Plug-In . SVG Version: 6.00 Build 0)  -->
<svg version="1.1" id="Calque_1" xmlns="http://www.w3.org/2000/svg" xmlns:xlink="http://www.w3.org/1999/xlink" x="0px" y="0px"
	 viewBox="0 0 101.4 130" style="enable-background:new 0 0 101.4 130;" xml:space="preserve">
<style type="text/css">
	.st0{fill:#FD393C;}
	.st1{fill:#333131;}
</style>
<g>
	<g id="Calque_21_10_">
	</g>
	<g id="Calque_9_10_">
		<g id="Calque_6_10_">
		</g>
		<g id="Calque_4_10_">
		</g>
	</g>
	<g id="Calque_11_10_">
		<g id="Calque_4_-_copie_10_">
		</g>
		<g id="Calque_12_10_">
		</g>
	</g>
	<g id="Calque_11_-_copie_10_">
		<g id="Calque_4_-_copie_2_10_">
		</g>
		<g id="Calque_12_-_copie_10_">
		</g>
	</g>
	<g id="Calque_16_10_">
	</g>
	<g id="Calque_17_10_">
	</g>
	<g id="Calque_19_10_">
	</g>
	<g id="Calque_20_10_">
	</g>
	<g id="Calque_14_10_">
	</g>
	<g id="Calque_14_-_copie_10_">
	</g>
	<g id="Calque_14_-_copie_3_10_">
	</g>
	<g id="Calque_14_-_copie_2_10_">
	</g>
	<g id="Calque_14_-_copie_4_10_">
		<path class="st0" d="M0,15.6v98.8h101.4V15.6H0z M92.8,106.6h-85V23.4h85L92.8,106.6L92.8,106.6z"/>
		<path class="st1" d="M37.7,42.6c-5.2,0-11.7,1-11.7,1v41.3h7.8V69c0,0,0.6,0.4,3.6,0.4c6.3,0,17.8-1.7,17.8-14
			C55.2,43.3,42.9,42.6,37.7,42.6z M33.8,63.4V49.3c0,0,12.9-3,12.9,6.8C46.7,66,33.8,63.4,33.8,63.4z"/>
		<path class="st1" d="M58.3,85.8h7.5V69.3c0,0,0.5-7.9,7.5-7.9c1.5,0,2.1,0.4,2.1,0.4v-7.7c0,0-0.7-0.3-1.9-0.3
			c-1.3,0-6.5,1-8.4,6.7l-0.2-6h-6.9L58.3,85.8z"/>
	</g>
</g>
</svg>
