<?xml version="1.0" encoding="utf-8"?>
<!-- Generator: Adobe Illustrator 22.1.0, SVG Export Plug-In . SVG Version: 6.00 Build 0)  -->
<svg version="1.1" id="Calque_1" xmlns="http://www.w3.org/2000/svg" xmlns:xlink="http://www.w3.org/1999/xlink" x="0px" y="0px"
	 viewBox="0 0 101.4 130" style="enable-background:new 0 0 101.4 130;" xml:space="preserve">
<style type="text/css">
	.st0{fill:#FD393C;}
	.st1{fill:#333131;}
</style>
<g>
	<g id="Calque_21_11_">
	</g>
	<g id="Calque_9_11_">
		<g id="Calque_6_11_">
		</g>
		<g id="Calque_4_11_">
		</g>
	</g>
	<g id="Calque_11_11_">
		<g id="Calque_4_-_copie_11_">
		</g>
		<g id="Calque_12_11_">
		</g>
	</g>
	<g id="Calque_11_-_copie_11_">
		<g id="Calque_4_-_copie_2_11_">
		</g>
		<g id="Calque_12_-_copie_11_">
		</g>
	</g>
	<g id="Calque_16_11_">
	</g>
	<g id="Calque_17_11_">
	</g>
	<g id="Calque_19_11_">
	</g>
	<g id="Calque_20_11_">
	</g>
	<g id="Calque_14_11_">
		<path class="st0" d="M0,15.6v99.7h101.4V15.6H0z M93.6,107.5H7.8V24.3h85.8V107.5z"/>
		<path class="st1" d="M38.5,43.2c-5.1,0-11.6,1-11.6,1v41.5h7.8v-16c0,0,0.6,0.4,3.6,0.4c6.2,0,17.6-1.7,17.6-14
			C56,43.9,43.7,43.2,38.5,43.2z M34.7,63.7V49.5c0,0,13-3,13,6.8C47.7,66.3,34.7,63.7,34.7,63.7z"/>
		<path class="st1" d="M74.7,61.7l1.5-5.4c0,0-1.6-1.8-8.3-1.8s-11.3,4.2-11.3,9.6s4.9,7.5,7.3,8.6c2.4,1,6.2,1.6,6.2,4.7
			c0,3.1-3.2,3.4-5,3.4c-3.3,0-7.6-2.1-7.6-2.1l-1.6,5.4c0,0,2.8,2.3,9.3,2.3c6.5,0,12.5-2.9,12.5-9.6c0-6.8-7.1-9-7.1-9
			s-6.3-1.3-6.3-4.5s4.2-3.2,4.2-3.2C71.3,60.1,74.7,61.7,74.7,61.7z"/>
	</g>
	<g id="Calque_14_-_copie_11_">
	</g>
	<g id="Calque_14_-_copie_3_11_">
	</g>
	<g id="Calque_14_-_copie_2_11_">
	</g>
	<g id="Calque_14_-_copie_4_11_">
	</g>
</g>
</svg>
