<?xml version="1.0" encoding="utf-8"?>
<!-- Generator: Adobe Illustrator 22.1.0, SVG Export Plug-In . SVG Version: 6.00 Build 0)  -->
<svg version="1.1" id="Layer_1" xmlns="http://www.w3.org/2000/svg" xmlns:xlink="http://www.w3.org/1999/xlink" x="0px" y="0px"
	 viewBox="0 0 365 304.3" style="enable-background:new 0 0 365 304.3;" xml:space="preserve">
<style type="text/css">
	.st0{fill:#FD393C;}
	.st1{fill:#333131;}
</style>
<g>
	<path class="st0" d="M156.4,195.5c0,0,16.1-1.4,16.1-22.2c0-20.8-19.5-22.7-19.5-22.7h-35.2v65.7h17.7v-15.8l15.3,15.8H177
		L156.4,195.5z M149.6,182.1h-14.1v-15h14.2c0,0,4,1.5,4,7.5C153.7,180.5,149.6,182.1,149.6,182.1z M216.2,151.1h-18
		c-12.8,0-17.1,11.6-17.1,17.1v48.1h18v-11.5h16.9v11.5h17.4v-48.1C233.3,154.2,220.6,151.1,216.2,151.1z M215.9,186.2H199v-15.9
		c0,0,0-3.6,5.6-3.6h6.2c5,0,5.1,3.6,5.1,3.6L215.9,186.2L215.9,186.2z M241.5,151.1h18.7v65.2h-18.7V151.1z M286.5,199.4v-48.3
		h-18.6v48.3v16.9h18.6h25.1v-16.9H286.5z M317.8,199.6v16.7h30.1c6.2,0,16.8-4.5,17.1-17.1v-6.4c0-10.8-8.8-17.1-17.1-17.1h-15
		v-7.7h29.7v-16.8h-28.5c-7.4,0-17.2,6.1-17.2,17.4v5.8c0,11.3,9.8,17.1,17.2,17.1c20.7,0.1-5,0,14.2,0v8.1L317.8,199.6z"/>
	<path class="st1" d="M6.4,216.2h72.7c0,0-13.9-63.4,32.1-89.1c10-4.9,42-23.1,94.3,15.6c1.7-1.4,3.2-2.5,3.2-2.5
		S161,92.3,107.6,97.7c-26.8,2.4-59.8,26.8-79.1,59C9.2,188.9,6.4,216.2,6.4,216.2z M158,102.8l0.4-6.2c-0.8-0.5-3.1-1.6-8.9-3.2
		l-0.4,6.1C152.1,100.5,155.1,101.6,158,102.8z M149.3,122.3l-0.4,5.8c3,0.1,6.1,0.5,9.1,1.1l0.4-5.7
		C155.2,122.9,152.2,122.5,149.3,122.3z M115.2,93.6h0.9l-1.8-5.6c-2.9,0-5.8,0.2-8.8,0.6l1.7,5.4C109.8,93.7,112.5,93.6,115.2,93.6
		z M119.6,127.5l2.1,6.4c2.7-1.3,5.3-2.4,8-3.2l-2-6.1C124.6,125.5,121.9,126.5,119.6,127.5z M77.8,103.3l-4.1-6.4
		c-2.3,1.2-4.7,2.5-7.2,4l4.2,6.4C73.1,105.9,75.4,104.5,77.8,103.3z M96.7,144.7l4.4,6.6c1.6-2.3,3.4-4.4,5.4-6.5l-4.1-6.3
		C100.3,140.5,98.3,142.6,96.7,144.7z M83.3,174.4l7.5,5.9c0.4-3.6,1-7.2,1.9-10.8l-6.6-5.2C84.9,167.6,84.1,171.1,83.3,174.4z
		 M43,130.6l-6.5-5.7c-2.4,2.3-4.7,4.6-6.8,6.9l7.1,6.1C38.7,135.4,40.8,132.9,43,130.6z M15.2,171.8l-10.6-3.9
		c-1.7,4-3.7,8.6-4.6,11l10.6,3.9C11.8,179.7,13.7,175.2,15.2,171.8z M81.9,197.8c0.2,4.9,0.6,8.8,1.1,11.6l11,4
		c-0.8-3.6-1.7-7.6-2.2-12L81.9,197.8z"/>
</g>
</svg>
