<?xml version="1.0" encoding="utf-8"?>
<!-- Generator: Adobe Illustrator 22.1.0, SVG Export Plug-In . SVG Version: 6.00 Build 0)  -->
<svg version="1.1" id="Layer_1" xmlns="http://www.w3.org/2000/svg" xmlns:xlink="http://www.w3.org/1999/xlink" x="0px" y="0px"
	 viewBox="0 0 365 400.7" style="enable-background:new 0 0 365 400.7;" xml:space="preserve">
<style type="text/css">
	.st0{fill:#FD393C;}
	.st1{fill:#333131;}
</style>
<path class="st0" d="M300.1,143.3c-3.8-1.3-7.7-2.5-11.7-3.7c0.7-2.7,1.3-5.4,1.8-8c8.9-43.2,3.1-78-16.8-89.4
	c-19-11-50.2,0.5-81.6,27.8c-3,2.6-6.1,5.4-9.1,8.3c-2-1.9-4-3.8-6-5.6c-33-29.3-66-41.6-85.8-30.1c-19,11-24.7,43.7-16.7,84.6
	c0.8,4,1.7,8,2.7,12.1c-4.7,1.3-9.2,2.7-13.5,4.2C24.7,157,0,178.2,0,200.1c0,22.6,26.5,45.3,66.7,59.1c3.2,1.1,6.5,2.1,9.9,3.1
	c-1.1,4.4-2.1,8.8-2.9,13c-7.6,40.2-1.7,72.1,17.3,83.1c19.6,11.3,52.5-0.3,84.5-28.3c2.5-2.2,5.1-4.6,7.6-7c3.3,3.2,6.6,6.2,9.9,9
	c31,26.7,61.7,37.5,80.6,26.5c19.6-11.3,25.9-45.6,17.7-87.4c-0.6-3.2-1.4-6.4-2.2-9.8c2.3-0.7,4.6-1.4,6.8-2.1
	c41.8-13.9,69.1-36.3,69.1-59.2C365,178.1,339.5,156.8,300.1,143.3z M202,81.7c26.9-23.5,52.1-32.7,63.6-26.1
	c12.2,7,17,35.5,9.3,72.8c-0.5,2.4-1,4.8-1.6,7.3c-15.1-3.5-31.6-6.1-48.8-7.7c-10-14.3-20.4-27.3-30.9-38.5
	C196.4,86.7,199.2,84.2,202,81.7z M116,200.4c4.7-9.8,9.9-19.7,15.5-29.4l0,0c5.6-9.8,11.6-19.2,17.7-28.2c10.9-0.8,22-1.2,33.2-1.2
	h0c11.3,0,22.4,0.4,33.3,1.3c6,8.9,11.9,18.3,17.6,28.1c5.7,9.9,11,19.7,15.7,29.3c-4.7,9.8-10,19.7-15.7,29.5
	c-5.7,9.9-11.6,19.3-17.5,28.3c-10.8,0.8-22,1.2-33.4,1.2c-11.4,0-22.4-0.4-33-1c-6.2-9-12.2-18.5-17.8-28.3h0
	C126,220.1,120.8,210.2,116,200.4z M107.8,218.8c3.3,6.3,6.7,12.6,10.3,18.9h0c3.7,6.4,7.5,12.6,11.5,18.7
	c-12-1.3-23.2-3.1-33.6-5.4C99.2,240.6,103.1,229.8,107.8,218.8z M107.8,182.1c-4.5-10.8-8.4-21.4-11.6-31.6
	c10.4-2.3,21.5-4.2,33.1-5.7c-3.8,6-7.6,12.1-11.2,18.4v0C114.4,169.5,111,175.8,107.8,182.1z M246.9,237.6
	c3.7-6.4,7.2-12.9,10.6-19.3c4.9,11.1,9,21.9,12.3,32.1c-10.6,2.4-22,4.4-34,5.8C239.5,250.1,243.3,243.9,246.9,237.6z M257.4,182.1
	c-3.3-6.3-6.8-12.6-10.5-19c-3.6-6.2-7.3-12.3-11.1-18.3c11.6,1.5,22.8,3.4,33.3,5.8C265.9,160.8,262,171.3,257.4,182.1z
	 M182.7,100.6c7.2,7.8,14.4,16.5,21.5,25.9c-7.1-0.3-14.4-0.5-21.7-0.5c-7.2,0-14.4,0.2-21.5,0.5
	C168.1,117.2,175.4,108.5,182.7,100.6z M98.6,56.1c12.2-7.1,39.2,3,67.7,28.3c1.8,1.6,3.6,3.3,5.5,5.1
	c-10.6,11.4-21.1,24.4-31.1,38.5c-17.2,1.6-33.6,4.1-48.7,7.6c-0.9-3.8-1.8-7.6-2.5-11.2C82.6,89.2,87.1,62.7,98.6,56.1z
	 M80.8,247.2c-3.1-0.9-6.1-1.8-9-2.8c-17.8-6.1-32.5-14-42.6-22.6c-9.1-7.8-13.6-15.4-13.6-21.7c0-13.3,19.8-30.2,52.9-41.8
	c4-1.4,8.2-2.7,12.6-4c4.6,14.9,10.6,30.4,17.8,46.1C91.5,216.4,85.4,232.2,80.8,247.2z M165.3,318.3
	c-14.2,12.4-28.4,21.2-40.9,25.6c-11.2,4-20.2,4.1-25.6,1c-11.5-6.6-16.3-32.3-9.8-66.7c0.7-3.9,1.6-8,2.7-12.1
	c15,3.3,31.5,5.7,49.2,7.1c10.1,14.2,20.7,27.3,31.3,38.7C169.9,314.1,167.6,316.3,165.3,318.3z M183.1,300.6
	c-7.4-8-14.8-16.8-22-26.3c7,0.3,14.1,0.4,21.4,0.4c7.4,0,14.8-0.2,22-0.5C197.4,283.9,190.2,292.8,183.1,300.6z M277.8,322.3
	c-2.2,11.7-6.5,19.5-12,22.7c-11.5,6.7-36.1-2-62.6-24.8c-3-2.6-6.1-5.4-9.2-8.4c10.3-11.2,20.6-24.3,30.6-38.8
	c17.6-1.6,34.3-4.1,49.4-7.6c0.7,3,1.4,5.9,2,8.8C279.7,292.6,280.2,309.3,277.8,322.3z M291,244.5c-2,0.7-4,1.3-6.1,1.9
	c-4.6-14.6-10.9-30.2-18.5-46.2c7.3-15.7,13.3-31,17.8-45.6c3.7,1.1,7.4,2.2,10.8,3.4c33.8,11.6,54.4,28.8,54.4,42.1
	C349.4,214.2,327.2,232.5,291,244.5z"/>
<circle class="st1" cx="182.5" cy="200.1" r="32.6"/>
</svg>
