<?xml version="1.0" encoding="utf-8"?>
<!-- Generator: Adobe Illustrator 22.1.0, SVG Export Plug-In . SVG Version: 6.00 Build 0)  -->
<svg version="1.1" id="Calque_1" xmlns="http://www.w3.org/2000/svg" xmlns:xlink="http://www.w3.org/1999/xlink" x="0px" y="0px"
	 viewBox="0 0 125 130" style="enable-background:new 0 0 125 130;" xml:space="preserve">
<style type="text/css">
	.st0{fill:#FD393C;}
	.st1{fill:#333131;}
</style>
<g>
	<path class="st0" d="M125,65c0,1.9-0.1,3.8-0.3,5.8c-0.1,1.5-0.4,2.9-0.5,4.4c-4.8,29.7-30.6,52.3-61.6,52.3
		c-15.8,0-30.3-5.9-41.2-15.5c-4-3.6-7.7-7.7-10.7-12.2C3.8,89.8,0,77.9,0,65C0,30.5,28,2.5,62.5,2.5S125,30.5,125,65z"/>
	<path class="st1" d="M109.1,72.1c-1.9,0.7-1.8,0.7-2.8-1.1c-1.3-2.3-1.9-4.8-2-7.4c-0.1-2.3,0.5-4.4,1.4-6.5
		c0.6-1.6-0.2-2.2-1.6-2.4c-1-0.1-2.1-0.1-3.2,0c-2.7,0.3-3,0.5-3.7,3.1c-0.5,1.6-0.7,3.1-1.5,4.7c-1.7,3.7-3.7,7.2-5.8,10.7
		c-0.4,0.6-0.6,1.3-1.2,1.8c-1.5-2.2-2-4.7-2.2-7.2c-0.1-2.6,0.6-4.9,1.5-7.2c0.3-0.8,0.1-1.3-0.6-1.6c-0.3-0.2-0.6-0.3-1-0.3
		c-1.7-0.2-3.5-0.1-5.2,0.4c-0.7,0.2-1.3,0.6-1.5,1.5c-0.4,1.6-0.8,3.3-1.6,4.8c-1.9,4.4-3.8,8.7-5.8,13.1
		c-1.6,3.7-3.4,7.6-5.3,11.2c-0.2,0.3-0.3,0.7-0.6,0.6c-0.4-0.1-0.3-0.5-0.3-0.8c-0.1-2.1,0.5-4.2,1-6.2c0.8-3.2,1.6-6.5,2.5-9.7
		c0.3-0.9-0.2-1.6-0.9-2c-1.1-0.6-2.2-0.6-3.4,0.2c0.2-1.3,0.3-2.5,0.2-3.7c-0.1-2.6-1.3-4.2-3.4-4.7c-1.6-0.3-2.9,0.2-4.3,0.8
		c-3.2,1.5-5.7,3.7-7.9,6.5c-0.3,0.3-0.5,0.6-0.8,0.8c-4,2.2-8,4.4-12,6.6c-0.5,0.3-0.7,0.2-1-0.2c-2-2.2-4.4-3.9-6.7-5.8
		c-3.2-2.6-6.6-4.9-9.4-8c-1.6-1.8-3-3.7-3.7-6.1c-1.1-3.8-0.3-7.5,1.6-10.9c2.2-4,5.4-7.1,9.1-10c5.7-4.4,11.9-8,18.5-10.8
		c7.4-3.2,15-5.3,23.1-5c3.2,0.1,6.3,0.6,9.2,2.3c2,1.1,3.4,2.7,3.7,5.1c0.5,2.7-0.2,5.3-1.5,7.8c-2.7,5.4-7.1,9.2-12.3,12.3
		c-4.3,2.5-9,4.1-13.9,4.9c-2.7,0.5-5.5,0.7-8.1,0.4c-3.1-0.5-6-1.6-8.1-4c-0.3-0.3-0.5-0.5-1-0.3c-0.5,0.2-0.4,0.5-0.4,0.9
		c0,0.3,0.1,0.5,0.2,0.7c0.5,1.6,1.6,2.7,2.9,3.7c3.3,2.7,7.1,3.5,11.2,3.5c4,0.1,7.9-0.5,11.8-1.4c8.8-2.1,16.1-6.4,21.4-13.7
		c3.2-4.4,5.2-9.2,5-14.8c-0.1-3.5-1.3-6.6-3.8-9.1c-3.1-2.9-6.9-4.4-10.9-5.3c-4.5-1-9.1-1.2-13.7-0.6c-4,0.5-8,1.3-11.7,2.7
		c-5.9,2-11.5,4.5-16.9,7.5c-5.5,3.1-10.7,6.6-15.3,11c-4,3.9-7.5,8.2-9.5,13.5c-0.8,2.3-1.5,4.7-0.9,7.1c0.7,3.2,2.3,5.9,4.4,8.4
		c3.1,3.7,6.9,6.8,10.9,9.6c3.2,2.3,6.5,4.4,9.5,6.8c0.8,0.7,0.8,0.7-0.2,1.2c-1.2,0.6-2.4,1.2-3.6,1.9c-4.8,2.7-9.2,5.6-13,9.6
		c-1.8,2-3.1,4.2-3.7,6.7c3,4.5,6.6,8.6,10.7,12.2c6.9-0.5,12.3-4.1,16.2-10.2c1.9-2.9,2.7-6.1,3.1-9.6c0.3-3,0-5.9-0.9-8.9
		c-0.2-0.5-0.7-1-0.5-1.5c0.2-0.5,0.8-0.6,1.3-0.9c1.9-1.1,3.7-2.2,5.8-3.3c0.1,0.5-0.1,0.6-0.2,0.9c-1.1,4.1-1.9,8.2-1,12.5
		c0.5,2.7,1.4,5.1,3.1,7.3c1.7,2.3,5.6,2,7.1-0.1c1.5-1.9,2.5-4.2,3.5-6.4c0.5-1.2,1.1-2.5,1.6-3.7c-0.1,1.5-0.1,2.9,0,4.3
		c0.1,1.4,0.3,2.7,1,4c0.9,1.5,2.6,1.9,4,1.1c1.6-0.8,2.7-2.2,3.6-3.7c3.7-6.5,7-13.1,9.9-19.9c0.6-1.5,1.2-2.9,1.9-4.6
		c0.1,0.5,0.2,0.8,0.3,1.2c0.6,3.3,1.7,6.4,3.4,9.3c0.4,0.6,0.3,1.1-0.1,1.6c-1.5,2-3.1,3.9-4.8,5.9c-1.4,1.6-2.8,3.2-3.9,4.9
		c-1,1.6-0.5,3.3,1.3,3.7c0.5,0.1,1.1,0.2,1.6,0.2c3,0,5.8-0.9,8.3-2.4c3.5-2,5.5-4.8,5.4-9c0-1.8-0.5-3.7-1.3-5.4
		c-0.2-0.4-0.2-0.6,0.1-1c2.4-3.4,4.5-7,6.4-10.7c0.4-0.6,0.5-1.4,1.1-2c0.1,0.3,0.1,0.5,0.2,0.5c0.6,3,1.5,6,3,8.8
		c0.5,0.7,0.2,1.1-0.4,1.6c-2,1.7-3.7,3.7-5.1,6c-1,1.8-1.7,3.7-1.7,5.9c0,2.4,1.8,3.7,4.1,3.2c2.4-0.5,4.6-1.6,6.6-3
		c4.3-3.2,5.6-6.5,4.2-11.2c-0.5-1.8-0.5-1.8,1.3-2.4c4-1.2,8.1-1.3,12.2-0.6c0.5,0.1,0.9,0.2,1.4,0.3c0.3-1.5,0.5-2.9,0.5-4.4
		C119.4,69.5,114.2,70.1,109.1,72.1z M24,104.9c-1.2,0.5-2.4,0.5-3.7,0.5c-1.6-0.1-2.6-1.2-2.7-2.8c-0.1-1.9,0.5-3.6,1.3-5.2
		c1.5-3,4-5,6.6-7c2.5-1.9,5.2-3.7,7.9-5.2c0.8-0.5,0.8-0.5,1,0.5c0.3,1.3,0.5,2.6,0.4,3.7C35.2,96.1,30.3,102.8,24,104.9z
		 M61.5,70.3c-0.5,2.9-1.4,5.7-2.4,8.4c-1.4,3.7-2.7,7.5-4.5,11.1c-0.4,0.8-0.8,1.6-1.5,2.3c-0.6,0.6-1.1,0.5-1.6-0.2
		c-0.8-1.6-0.7-3.2-0.8-4.4c0-6.1,2.1-11.2,5.5-15.6c0.9-1.3,2.2-2.3,3.7-2.7C61.2,68.7,61.6,69.1,61.5,70.3z M85.2,88.5
		c-1.2,2-2.8,3.5-4.9,4.5c-0.2,0.1-0.5,0.3-0.7,0.1c-0.2-0.3,0.1-0.4,0.3-0.5c2-2.2,4-4.5,5.9-6.9c0,0,0.1,0,0.3-0.1
		C86,86.6,85.8,87.6,85.2,88.5z M99.4,88.4c-0.3,0.2-0.6,0.4-0.9,0.2c-0.4-0.3-0.2-0.7-0.1-1c0.5-1.6,1.1-3,1.9-4.5
		c0.7-1.2,1.6-2.2,2.7-3.1c0.4-0.4,0.5-0.4,0.7,0.2c0.2,0.5,0.2,1.1,0.2,1.7C103.7,85,102.1,87,99.4,88.4z"/>
</g>
</svg>
