<?xml version="1.0" encoding="utf-8"?>
<!-- Generator: Adobe Illustrator 23.0.6, SVG Export Plug-In . SVG Version: 6.00 Build 0)  -->
<svg version="1.1" id="Calque_1" xmlns="http://www.w3.org/2000/svg" xmlns:xlink="http://www.w3.org/1999/xlink" x="0px" y="0px"
	 viewBox="0 0 160.72 162.04" style="enable-background:new 0 0 160.72 162.04;" xml:space="preserve">
<style type="text/css">
	.st0{fill:none;stroke:#333131;stroke-width:4;stroke-linecap:round;stroke-linejoin:round;stroke-miterlimit:10;}
</style>
<polygon class="st0" points="2,2 11.93,41.51 41.18,13.16 "/>
<polygon class="st0" points="11.93,41.51 21.85,81.02 51.11,52.67 "/>
<polygon class="st0" points="21.85,81.02 31.78,120.53 61.03,92.18 "/>
<polygon class="st0" points="70.96,131.69 31.78,120.53 41.7,160.04 "/>
<polygon class="st0" points="80.36,24.32 41.18,13.16 51.11,52.67 "/>
<polygon class="st0" points="51.11,52.67 61.03,92.18 90.29,63.83 "/>
<polygon class="st0" points="70.96,131.69 100.21,103.34 61.03,92.18 "/>
<polygon class="st0" points="119.54,35.48 80.36,24.32 90.29,63.83 "/>
<polygon class="st0" points="100.21,103.34 129.46,74.98 90.29,63.83 "/>
<polygon class="st0" points="158.72,46.63 119.54,35.48 129.46,74.98 "/>
</svg>
