<?xml version="1.0" encoding="utf-8"?>
<!-- Generator: Adobe Illustrator 22.1.0, SVG Export Plug-In . SVG Version: 6.00 Build 0)  -->
<svg version="1.1" id="Calque_1" xmlns="http://www.w3.org/2000/svg" xmlns:xlink="http://www.w3.org/1999/xlink" x="0px" y="0px"
	 viewBox="0 0 99.9 130" style="enable-background:new 0 0 99.9 130;" xml:space="preserve">
<style type="text/css">
	.st0{fill:#FD393C;}
	.st1{fill:#333131;}
</style>
<g>
	<g id="Calque_21_12_">
	</g>
	<g id="Calque_9_12_">
		<g id="Calque_6_12_">
		</g>
		<g id="Calque_4_12_">
		</g>
	</g>
	<g id="Calque_11_12_">
		<g id="Calque_4_-_copie_12_">
		</g>
		<g id="Calque_12_12_">
		</g>
	</g>
	<g id="Calque_11_-_copie_12_">
		<g id="Calque_4_-_copie_2_12_">
		</g>
		<g id="Calque_12_-_copie_12_">
		</g>
	</g>
	<g id="Calque_16_12_">
	</g>
	<g id="Calque_17_12_">
		<g>
			<polygon class="st0" points="0,65 0,115 50,115 99.9,115 99.9,65 99.9,15 50,15 0,15 			"/>
			<path class="st1" d="M21.9,65.4v3.9h6.4h6.7v18.4v18.4h4.8h4.8V87.8V69.4h5.8H57v-3.9c0-2.1-0.1-3.9-0.1-3.9
				c-0.1-0.1-7.9-0.1-17.5-0.1l-17.4,0.1L21.9,65.4z"/>
			<path class="st1" d="M80.8,61.2c2.5,0.6,4.5,1.8,6.2,3.6c1,1,2.3,2.8,2.4,3.2c0,0.1-4.3,3.1-6.9,4.7c-0.1,0.1-0.4-0.4-0.9-1
				C80.3,70,79,69.1,76.9,69c-3.1-0.2-5,1.4-5,4c0,0.8,0.1,1.2,0.4,1.8c0.7,1.4,1.9,2.2,5.8,3.9c7.2,3.1,10.3,5.1,12.2,8
				c2.1,3.2,2.6,8.4,1.1,12.2c-1.6,4.2-5.5,7-11,8c-1.8,0.3-5.8,0.3-7.6-0.1c-4-0.7-7.8-2.7-10.2-5.3c-1-1.1-2.7-3.7-2.6-3.9
				c0.1-0.1,0.4-0.4,1-0.6c0.4-0.3,2.1-1.2,3.7-2.1l2.9-1.7l0.6,0.9c0.9,1.3,2.7,3.1,3.8,3.7c3.2,1.7,7.6,1.5,9.7-0.5
				c1-0.9,1.3-1.8,1.3-3c0-1.1-0.2-1.7-0.8-2.5c-0.8-1.1-2.4-2-6.9-4c-5.2-2.2-7.4-3.6-9.5-5.8c-1.1-1.3-2.3-3.3-2.7-5
				c-0.4-1.4-0.4-5-0.2-6.4c1.1-5,4.8-8.5,10.3-9.5C75,60.7,79.1,60.8,80.8,61.2z"/>
		</g>
	</g>
	<g id="Calque_19_12_">
	</g>
	<g id="Calque_20_12_">
	</g>
	<g id="Calque_14_12_">
	</g>
	<g id="Calque_14_-_copie_12_">
	</g>
	<g id="Calque_14_-_copie_3_12_">
	</g>
	<g id="Calque_14_-_copie_2_12_">
	</g>
	<g id="Calque_14_-_copie_4_12_">
	</g>
</g>
</svg>
