<?xml version="1.0" encoding="utf-8"?>
<!-- Generator: Adobe Illustrator 22.1.0, SVG Export Plug-In . SVG Version: 6.00 Build 0)  -->
<svg version="1.1" id="Calque_1" xmlns="http://www.w3.org/2000/svg" xmlns:xlink="http://www.w3.org/1999/xlink" x="0px" y="0px"
	 viewBox="0 0 123 130" style="enable-background:new 0 0 123 130;" xml:space="preserve">
<style type="text/css">
	.st0{fill:#333131;}
	.st1{fill:#FD393C;}
</style>
<g>
	<g id="Calque_21_13_">
	</g>
	<g id="Calque_9_13_">
		<g id="Calque_6_13_">
		</g>
		<g id="Calque_4_13_">
		</g>
	</g>
	<g id="Calque_11_13_">
		<g id="Calque_4_-_copie_13_">
		</g>
		<g id="Calque_12_13_">
		</g>
	</g>
	<g id="Calque_11_-_copie_13_">
		<g id="Calque_4_-_copie_2_13_">
		</g>
		<g id="Calque_12_-_copie_13_">
		</g>
	</g>
	<g id="Calque_16_13_">
		<path class="st0" d="M122.9,52.5L109.4,2.6L59.3,16L51.9,29l-15.1-0.1L0.2,65.5L36.8,102l0,0l15.1-0.1l7.4,13.1l50.1,13.4
			l13.4-49.9l-7.6-13L122.9,52.5z M102.3,103l-2.3,8.3l-8.4-2.2l-38.5-9.7L25.4,71.2L19.3,65l6.1-6.2l27.7-28.2l38.4-9.8l8.4-2.2
			l2.3,8.3L112.9,65L102.3,103z"/>
		<polygon class="st1" points="79.6,65 101,101.8 98.6,109.9 90.5,107.8 69.2,71 26.5,71 20.6,65 26.5,59 69.2,59 90.5,22.2 
			98.6,20.1 101,28.2 		"/>
	</g>
	<g id="Calque_17_13_">
	</g>
	<g id="Calque_19_13_">
	</g>
	<g id="Calque_20_13_">
	</g>
	<g id="Calque_14_13_">
	</g>
	<g id="Calque_14_-_copie_13_">
	</g>
	<g id="Calque_14_-_copie_3_13_">
	</g>
	<g id="Calque_14_-_copie_2_13_">
	</g>
	<g id="Calque_14_-_copie_4_13_">
	</g>
</g>
</svg>
