<?xml version="1.0" encoding="utf-8"?>
<!-- Generator: Adobe Illustrator 21.1.0, SVG Export Plug-In . SVG Version: 6.00 Build 0)  -->
<svg version="1.1" xmlns="http://www.w3.org/2000/svg" xmlns:xlink="http://www.w3.org/1999/xlink" x="0px" y="0px"
	 viewBox="0 0 122.9 126" style="enable-background:new 0 0 122.9 126;" xml:space="preserve">
<style type="text/css">
	.st0{fill:#333131;}
	.st1{fill:#FD393C;}
</style>
<g id="Calque_21">
</g>
<g id="Calque_9">
	<g id="Calque_6">
	</g>
	<g id="Calque_4">
	</g>
</g>
<g id="Calque_11">
	<g id="Calque_4_-_copie">
	</g>
	<g id="Calque_12">
	</g>
</g>
<g id="Calque_11_-_copie">
	<g id="Calque_4_-_copie_2">
	</g>
	<g id="Calque_12_-_copie">
	</g>
</g>
<g id="Calque_16">
	<path class="st0" d="M122.9,50L109.4,0L59.2,13.4l-7.4,13.1l-15.1-0.1L0,63l36.7,36.6h0l15.1-0.1l7.4,13.1l50.2,13.4l13.4-50
		l-7.6-13L122.9,50z M102.2,101l-2.3,8.3l-8.4-2.2L53,97.4L25.3,69.2L19.2,63l6.1-6.2L53,28.6l38.4-9.8l8.4-2.2l2.3,8.3L112.8,63
		L102.2,101z"/>
	<polygon class="st1" points="80.1,63 102.2,101 99.8,109.4 91.4,107.2 69.4,69.2 25.3,69.2 19.2,63 25.3,56.8 69.4,56.8 91.4,18.7 
		99.8,16.6 102.2,24.9 	"/>
</g>
<g id="Calque_17">
</g>
<g id="Calque_19">
</g>
<g id="Calque_20">
</g>
<g id="Calque_14">
</g>
<g id="Calque_14_-_copie">
</g>
<g id="Calque_14_-_copie_3">
</g>
<g id="Calque_14_-_copie_2">
</g>
<g id="Calque_14_-_copie_4">
</g>
</svg>
