<?xml version="1.0" encoding="utf-8"?>
<!-- Generator: Adobe Illustrator 21.1.0, SVG Export Plug-In . SVG Version: 6.00 Build 0)  -->
<svg version="1.1" xmlns="http://www.w3.org/2000/svg" xmlns:xlink="http://www.w3.org/1999/xlink" x="0px" y="0px"
	 viewBox="0 0 117.2 130" style="enable-background:new 0 0 117.2 130;" xml:space="preserve">
<style type="text/css">
	.st0{fill:#FD393C;}
	.st1{fill:#333131;}
</style>
<g id="Calque_21">
</g>
<g id="Calque_9">
	<g id="Calque_6">
	</g>
	<g id="Calque_4">
	</g>
</g>
<g id="Calque_11">
	<g id="Calque_4_-_copie">
	</g>
	<g id="Calque_12">
	</g>
</g>
<g id="Calque_11_-_copie">
	<g id="Calque_4_-_copie_2">
	</g>
	<g id="Calque_12_-_copie">
	</g>
</g>
<g id="Calque_16">
</g>
<g id="Calque_17">
</g>
<g id="Calque_19">
</g>
<g id="Calque_20">
	<g>
		<path class="st0" d="M113.6,100.2L60.9,130v-23.2l32.8-18.1L113.6,100.2z M117.2,96.9V34.6L97.9,45.7v40.1L117.2,96.9z M3.6,100.2
			L56.3,130v-23.2L23.4,88.7L3.6,100.2z M0,96.9V34.6l19.3,11.1v40.1L0,96.9z M2.2,30.6L56.3,0v22.4l-34.6,19l-0.3,0.2L2.2,30.6z
			 M114.9,30.6L60.9,0v22.4l34.6,19.1l0.3,0.2L114.9,30.6z"/>
		<path class="st1" d="M56.3,101.5L23.9,83.7V48.4l32.4,18.7V101.5z M60.9,101.5l32.4-17.8V48.4L60.9,67.1V101.5z M26.1,44.3
			l32.5-17.9l32.5,17.9L58.6,63.1L26.1,44.3z"/>
	</g>
</g>
<g id="Calque_14">
</g>
<g id="Calque_14_-_copie">
</g>
<g id="Calque_14_-_copie_3">
</g>
<g id="Calque_14_-_copie_2">
</g>
<g id="Calque_14_-_copie_4">
</g>
</svg>
