<?xml version="1.0" encoding="utf-8"?>
<!-- Generator: Adobe Illustrator 22.1.0, SVG Export Plug-In . SVG Version: 6.00 Build 0)  -->
<svg version="1.1" id="Calque_1" xmlns="http://www.w3.org/2000/svg" xmlns:xlink="http://www.w3.org/1999/xlink" x="0px" y="0px"
	 viewBox="0 0 117 130" style="enable-background:new 0 0 117 130;" xml:space="preserve">
<style type="text/css">
	.st0{display:none;}
	.st1{display:inline;}
	.st2{fill:#FD393C;}
	.st3{fill:#333131;}
	.st4{display:inline;fill:#FD393C;}
	.st5{display:inline;fill:#333131;}
</style>
<g class="st0">
	<g id="Calque_21_16_" class="st1">
	</g>
	<g id="Calque_9_16_" class="st1">
		<g id="Calque_6_16_">
		</g>
		<g id="Calque_4_16_">
		</g>
	</g>
	<g id="Calque_11_16_" class="st1">
		<g id="Calque_4_-_copie_16_">
		</g>
		<g id="Calque_12_16_">
		</g>
	</g>
	<g id="Calque_11_-_copie_16_" class="st1">
		<g id="Calque_4_-_copie_2_16_">
		</g>
		<g id="Calque_12_-_copie_16_">
		</g>
	</g>
	<g id="Calque_16_16_" class="st1">
	</g>
	<g id="Calque_17_16_" class="st1">
	</g>
	<g id="Calque_19_16_" class="st1">
	</g>
	<g id="Calque_20_16_" class="st1">
	</g>
	<g id="Calque_14_16_" class="st1">
	</g>
	<g id="Calque_14_-_copie_16_" class="st1">
		<path class="st2" d="M7.8,15.2v99.7h101.4V15.2H7.8z M101.4,107H15.6V23.8h85.8V107z"/>
		<path class="st3" d="M47.2,42H37L22.9,85.4h8.6l3.7-12.1h13.4l3.9,12.1h8.6L47.2,42z M36.3,67.2l5.3-18.6l5.6,18.6
			C47.2,67.2,36.3,67.2,36.3,67.2z"/>
		<path class="st3" d="M91.9,72.5c0,0,0.3-0.9,0.3-3.3c0-12-8.3-15.2-13.8-15.2c-5.4,0-14.9,3.8-14.9,16.6s9.4,16,16,16
			s10.9-2.1,10.9-2.1L89.4,79c0,0-3.6,1.5-8.6,1.5c-9.7,0-9.6-8.1-9.6-8.1L91.9,72.5L91.9,72.5z M78.6,58.8c6.7,0,6.2,7.5,6.2,7.5
			H71.4C71.4,66.3,72,58.8,78.6,58.8z"/>
	</g>
	<g id="Calque_14_-_copie_3_16_" class="st1">
	</g>
	<g id="Calque_14_-_copie_2_16_" class="st1">
	</g>
	<g id="Calque_14_-_copie_4_16_" class="st1">
	</g>
</g>
<g class="st0">
	<g id="Calque_21_17_" class="st1">
	</g>
	<g id="Calque_9_17_" class="st1">
		<g id="Calque_6_17_">
		</g>
		<g id="Calque_4_17_">
		</g>
	</g>
	<g id="Calque_11_17_" class="st1">
		<g id="Calque_4_-_copie_17_">
		</g>
		<g id="Calque_12_17_">
		</g>
	</g>
	<g id="Calque_11_-_copie_17_" class="st1">
		<g id="Calque_4_-_copie_2_17_">
		</g>
		<g id="Calque_12_-_copie_17_">
		</g>
	</g>
	<g id="Calque_16_17_" class="st1">
	</g>
	<g id="Calque_17_17_" class="st1">
	</g>
	<g id="Calque_19_17_" class="st1">
	</g>
	<g id="Calque_20_17_" class="st1">
	</g>
	<g id="Calque_14_17_" class="st1">
	</g>
	<g id="Calque_14_-_copie_17_" class="st1">
	</g>
	<g id="Calque_14_-_copie_3_17_" class="st1">
		<path class="st2" d="M7.8,15.2v99.7h101.4V15.2H7.8z M101.4,107H15.6V23.8h85.8V107z"/>
		<path class="st3" d="M56.7,42.9h-9.8L33.1,85.4h8.2l3.8-12.1h13.1l3.9,12.1h8.3L56.7,42.9z M46.3,67.2l5.2-18l5.5,18H46.3z"/>
		<rect x="73.7" y="55" class="st3" width="7.8" height="30.3"/>
		<circle class="st3" cx="77.1" cy="46.4" r="4.3"/>
	</g>
	<g id="Calque_14_-_copie_2_17_" class="st1">
	</g>
	<g id="Calque_14_-_copie_4_17_" class="st1">
	</g>
</g>
<g class="st0">
	<g id="Calque_21_1_" class="st1">
	</g>
	<g id="Calque_9_1_" class="st1">
		<g id="Calque_6_1_">
		</g>
		<g id="Calque_4_1_">
		</g>
	</g>
	<g id="Calque_11_1_" class="st1">
		<g id="Calque_4_-_copie_1_">
		</g>
		<g id="Calque_12_1_">
		</g>
	</g>
	<g id="Calque_11_-_copie_1_" class="st1">
		<g id="Calque_4_-_copie_2_1_">
		</g>
		<g id="Calque_12_-_copie_1_">
		</g>
	</g>
	<g id="Calque_16_1_" class="st1">
	</g>
	<g id="Calque_17_1_" class="st1">
	</g>
	<g id="Calque_19_1_" class="st1">
		<path class="st2" d="M111.1,40.5c0-2-0.4-3.8-1.3-5.3s-2.2-2.7-3.8-3.7C92.1,23.5,78,15.4,64,7.3c-3.8-2.2-7.4-2.1-11.2,0.1
			c-5.7,3.3-33.6,19.3-41.9,24.1c-3.4,2-5.1,5-5.1,9c0,16.2,0,32.5,0,48.8c0,2,0.4,3.7,1.3,5.2s2.2,2.8,3.9,3.9
			c8.3,4.8,36.2,20.8,41.9,24.1c3.8,2.2,7.4,2.3,11.2,0.1c14-8.1,28.1-16.2,42.1-24.2c1.7-1,3.1-2.2,3.9-3.9
			c0.8-1.5,1.3-3.2,1.3-5.2C111.1,89.3,111.1,56.8,111.1,40.5z M58.5,99.9c-13,0-24.3-7.1-30.3-17.6c-3-5.1-4.7-11.1-4.7-17.4
			c0-19.3,15.7-35,35-35c12.9,0,24.2,7,30.3,17.5l-15.3,8.8c-3.1-5.2-8.6-8.7-15.1-8.7c-9.6,0-17.4,7.8-17.4,17.4
			c0,3.1,0.8,6.1,2.3,8.6c3,5.2,8.6,8.8,15.2,8.8s12.2-3.6,15.2-8.9l15.2,8.8C82.9,92.8,71.5,99.9,58.5,99.9z"/>
		<path class="st3" d="M103.6,63.2v-3.6h-2.7v-2.7h-3.6v2.7h-4.5v-2.7h-3.6v2.7h-2.7v3.6h2.7v4.5h-2.7v2.7h2.7V73h3.6v-2.7h4.5V73
			h3.6v-2.7h2.7v-2.7h-2.7v-4.5H103.6z M97.3,67.7h-4.5v-4.5h4.5V67.7z"/>
	</g>
	<g id="Calque_20_1_" class="st1">
	</g>
	<g id="Calque_14_1_" class="st1">
	</g>
	<g id="Calque_14_-_copie_1_" class="st1">
	</g>
	<g id="Calque_14_-_copie_3_1_" class="st1">
	</g>
	<g id="Calque_14_-_copie_2_1_" class="st1">
	</g>
	<g id="Calque_14_-_copie_4_1_" class="st1">
	</g>
</g>
<g class="st0">
	<g id="Calque_21_2_" class="st1">
	</g>
	<g id="Calque_9_2_" class="st1">
		<g id="Calque_6_2_">
		</g>
		<g id="Calque_4_2_">
		</g>
	</g>
	<g id="Calque_11_2_" class="st1">
		<g id="Calque_4_-_copie_2_">
			<path class="st2" d="M12.8,25.8l8.3,93.3l37.3,10.3l37.5-10.4l8.3-93.2C104.2,25.8,12.8,25.8,12.8,25.8z M88.7,113.7l-30.1,8.2
				l-30.1-8.2L21.3,34h37.2h37.2L88.7,113.7z"/>
		</g>
		<polygon class="st3" points="58.5,44.9 29.9,44.9 30.8,56.6 58.5,56.6 74.7,56.6 73.5,68.4 58.8,68.4 31.5,68.4 32.6,80.2 
			58.9,80.2 72.1,80.2 70.8,94.1 58.9,97.4 58.5,97.4 45.4,93.9 44.6,84.7 32.7,84.7 34,103.2 58.6,110 58.5,110 82.1,103.2 
			87.1,44.9 		"/>
		<g id="Calque_12_2_">
			<polygon class="st3" points="48.1,12.3 48.1,17.7 31.8,17.7 31.8,0.5 48.1,0.5 48.1,6.8 39,6.8 39,12.3 			"/>
			<polygon class="st3" points="68.9,17.7 85.2,17.7 85.2,12.4 78.1,6.8 85.2,6.8 85.2,0.5 68.9,0.5 68.9,6.9 76,12.3 68.9,12.3 
				68.9,17.7 85.2,17.7 68.9,17.7 85.2,17.7 			"/>
			<polygon class="st3" points="52.7,17.7 66.2,17.7 66.2,12.4 59.2,6.8 66.2,6.8 66.2,0.5 49.9,0.5 49.9,6.9 57.1,12.3 49.9,12.3 
				49.9,17.7 66.2,17.7 49.9,17.7 66.2,17.7 			"/>
		</g>
	</g>
	<g id="Calque_11_-_copie_2_" class="st1">
		<g id="Calque_4_-_copie_2_2_">
		</g>
		<g id="Calque_12_-_copie_2_">
		</g>
	</g>
	<g id="Calque_16_2_" class="st1">
	</g>
	<g id="Calque_17_2_" class="st1">
	</g>
	<g id="Calque_19_2_" class="st1">
	</g>
	<g id="Calque_20_2_" class="st1">
	</g>
	<g id="Calque_14_2_" class="st1">
	</g>
	<g id="Calque_14_-_copie_2_" class="st1">
	</g>
	<g id="Calque_14_-_copie_3_2_" class="st1">
	</g>
	<g id="Calque_14_-_copie_2_2_" class="st1">
	</g>
	<g id="Calque_14_-_copie_4_2_" class="st1">
	</g>
</g>
<g class="st0">
	<g id="Calque_21_3_" class="st1">
	</g>
	<g id="Calque_9_3_" class="st1">
		<g id="Calque_6_3_">
			<polygon class="st3" points="81.6,0.5 87.9,0.5 87.9,12.3 96.1,12.3 96.1,17.7 81.6,17.7 			"/>
			<polygon class="st3" points="59,0.5 65,0.5 69,6.3 72.8,0.5 78.9,0.5 78.9,17.7 72.5,17.7 72.5,9.1 68.6,15.3 64.4,9.3 
				64.4,17.7 59,17.7 			"/>
			<polygon class="st3" points="40.8,0.5 57.1,0.5 57.1,5.9 51.7,5.9 51.7,17.7 46.3,17.7 46.3,5.9 40.8,5.9 			"/>
			<polygon class="st3" points="20.9,0.5 26.4,0.5 26.4,6.8 31.8,6.8 31.8,0.5 38.1,0.5 38.1,17.7 31.8,17.7 31.8,12.3 26.4,12.3 
				26.4,17.7 20.9,17.7 			"/>
		</g>
		<g id="Calque_4_3_">
			<path class="st2" d="M12.8,25.8l8.3,93.3l37.3,10.3l37.5-10.4l8.3-93.2C104.2,25.8,12.8,25.8,12.8,25.8z M88.7,113.7l-30.1,8.2
				l-30.1-8.2L21.3,34h37.2h37.2L88.7,113.7z"/>
			<polygon class="st3" points="86.5,56.6 87.4,44.9 58.5,44.9 29.8,44.9 33,79.3 58.2,79.3 72.7,79.3 71.6,94.8 58.2,98.3 
				58.6,98.3 45.7,94.8 44.8,85.6 33.4,85.6 35,103.5 58.4,110 58.6,110 81.9,103.5 85.1,68.4 58.7,68.4 43.3,68.4 42.3,56.6 
				58.1,56.6 			"/>
		</g>
	</g>
	<g id="Calque_11_3_" class="st1">
		<g id="Calque_4_-_copie_3_">
		</g>
		<g id="Calque_12_3_">
		</g>
	</g>
	<g id="Calque_11_-_copie_3_" class="st1">
		<g id="Calque_4_-_copie_2_3_">
		</g>
		<g id="Calque_12_-_copie_3_">
		</g>
	</g>
	<g id="Calque_16_3_" class="st1">
	</g>
	<g id="Calque_17_3_" class="st1">
	</g>
	<g id="Calque_19_3_" class="st1">
	</g>
	<g id="Calque_20_3_" class="st1">
	</g>
	<g id="Calque_14_3_" class="st1">
	</g>
	<g id="Calque_14_-_copie_3_" class="st1">
	</g>
	<g id="Calque_14_-_copie_3_3_" class="st1">
	</g>
	<g id="Calque_14_-_copie_2_3_" class="st1">
	</g>
	<g id="Calque_14_-_copie_4_3_" class="st1">
	</g>
</g>
<g class="st0">
	<g id="Calque_21_4_" class="st1">
	</g>
	<g id="Calque_9_4_" class="st1">
		<g id="Calque_6_4_">
		</g>
		<g id="Calque_4_4_">
		</g>
	</g>
	<g id="Calque_11_4_" class="st1">
		<g id="Calque_4_-_copie_4_">
		</g>
		<g id="Calque_12_4_">
		</g>
	</g>
	<g id="Calque_11_-_copie_4_" class="st1">
		<g id="Calque_4_-_copie_2_4_">
		</g>
		<g id="Calque_12_-_copie_4_">
		</g>
	</g>
	<g id="Calque_16_4_" class="st1">
	</g>
	<g id="Calque_17_4_" class="st1">
	</g>
	<g id="Calque_19_4_" class="st1">
	</g>
	<g id="Calque_20_4_" class="st1">
	</g>
	<g id="Calque_14_4_" class="st1">
	</g>
	<g id="Calque_14_-_copie_4_" class="st1">
	</g>
	<g id="Calque_14_-_copie_3_4_" class="st1">
	</g>
	<g id="Calque_14_-_copie_2_4_" class="st1">
		<path class="st2" d="M7.8,15.2v99.7h101.4V15.2H7.8z M101.4,107H15.6V23.8h85.8V107z"/>
		<rect x="38.1" y="42.9" class="st3" width="7.8" height="42.5"/>
		<path class="st3" d="M71.9,41.2l-0.1,17.1c0,0-2.1-4.1-8-4.1c-7.4,0-12.2,7.3-12.2,16.2s4.8,15.7,11.6,15.7c6.8,0,9.2-5.4,9.2-5.4
			l0.3,4.7h6.1V41.2L71.9,41.2z M72,73.2c0,0-0.5,6.8-6.3,6.8c-5.7,0-6.9-6.7-6.9-9.5s1-10,7-10s6.2,6.6,6.2,6.6L72,73.2L72,73.2z"
			/>
	</g>
	<g id="Calque_14_-_copie_4_4_" class="st1">
	</g>
</g>
<g class="st0">
	<g id="Calque_21_5_" class="st1">
	</g>
	<g id="Calque_9_5_" class="st1">
		<g id="Calque_6_5_">
		</g>
		<g id="Calque_4_5_">
		</g>
	</g>
	<g id="Calque_11_5_" class="st1">
		<g id="Calque_4_-_copie_5_">
		</g>
		<g id="Calque_12_5_">
		</g>
	</g>
	<g id="Calque_11_-_copie_5_" class="st1">
		<g id="Calque_4_-_copie_2_5_">
		</g>
		<g id="Calque_12_-_copie_5_">
		</g>
	</g>
	<g id="Calque_16_5_" class="st1">
	</g>
	<g id="Calque_17_5_" class="st1">
	</g>
	<g id="Calque_19_5_" class="st1">
	</g>
	<g id="Calque_20_5_" class="st1">
	</g>
	<g id="Calque_14_5_" class="st1">
	</g>
	<g id="Calque_14_-_copie_5_" class="st1">
	</g>
	<g id="Calque_14_-_copie_3_5_" class="st1">
	</g>
	<g id="Calque_14_-_copie_2_5_" class="st1">
	</g>
	<g id="Calque_14_-_copie_4_5_" class="st1">
	</g>
	<g id="Calque_22_4_" class="st1">
	</g>
	<g id="Calque_23_4_" class="st1">
	</g>
	<g id="Calque_24_2_" class="st1">
	</g>
	<g id="Calque_25_2_" class="st1">
	</g>
	<g id="Calque_26_1_" class="st1">
		<g id="XMLID_2_">
			<path id="XMLID_32_" class="st3" d="M162.7,43.2l9.5,0.1c0,0-17.6,23.9-19.1,25.8c-0.5,0.6-1.2,1.3-1.5,2.2
				c-0.9,2.1-1.9,6.8-1.9,6.8l-8.8,0.1c0,0,1.4-4.9,1.3-7.5c-0.1-2.3-1.2-4.6-1.9-6.8s-1.5-6.8-1.5-6.8h9l1.3,5l13.7-18.9"/>
			<path id="XMLID_24_" class="st3" d="M144.7,47.7c1.8,1.1,2.9,6.9,2.9,6.9l-14.3,0.6h-4.3L123.7,78h-8.1c0,0,5-25.1,6.3-29.6
				c0.4-1.5,2.6-1.2,6.4-1.2h6c3.9,0,8.4-0.5,10.4,0.7"/>
			<path id="XMLID_23_" class="st3" d="M107.2,59.3c0,0,0.2-1.5-0.9-3.2c-1-1.4-1.8-1.8-4.3-1.9c-7-0.2-6.8,5-6.8,5L107.2,59.3z
				 M114.8,53.3c1,3.7-0.9,12.4-0.9,12.4s-10.2-0.2-15.8,0c-1.7,0.1-3.8-0.2-4.3,0.6c-0.7,1.1,0.3,2.9,1.1,3.6c1,0.9,2.9,1,3.5,1
				c4.6,0.6,14,0.2,14,0.2l-1.7,7.3c0,0-13.4,0.7-20.1-0.9c-1.3-0.3-2.6-1-3.4-1.9c-0.2-0.2-0.4-0.6-0.6-0.9c-0.2-0.2-0.7-1-0.9-1.6
				c-1.5-4.1,0.2-11.9,1.9-16.1c0.2-0.5,0.5-1.1,0.7-1.7c0.3-0.6,0.6-1.4,0.9-1.8c0.2-0.3,0.4-0.5,0.6-0.7c0.2-0.3,0.5-0.6,0.7-0.9
				c0.6-0.7,1.3-1.3,2.2-1.9c2.8-2.1,7.9-3.7,13.9-3.1c2.3,0.2,5.8,1,7.4,3.4C114.3,51.2,114.5,52.4,114.8,53.3z"/>
			<path id="XMLID_22_" class="st3" d="M77.7,47.2l8-0.1c0,0-4.4,20.7-6.6,30.9h-9c-6.3,0-11.9,0.8-14.3-3.7
				c-2.3-4.4-0.1-11.6,0.9-16.5c0.7-3.5,2.3-10.6,2.3-10.6l8.1-0.1c0,0-2.3,11.1-3.3,16.6c-0.3,2-1,3.9-0.3,5.3
				c0.7,1.4,1.7,1.5,4.7,1.6c1,0,4,0,4,0l5.6-23.3"/>
			<path id="XMLID_21_" class="st3" d="M41.3,62.3c0.8-2.9,2-6,1.9-8.7c-0.2-2.8-2.5-5.4-4.1-5.9c-4.6-1.6-8.8,0.6-10.6,2.5
				c-2.2,2.4-3,5.1-3.7,9c-0.6,2.9-1,5.8,0,8c1.9,3.9,7.7,3.1,13.9,3.1C39.7,67.8,40.5,65,41.3,62.3z M52.1,50.8
				c0.9,6.5-2.5,13.6-4.9,19.9c2.4,0.2,4.5-0.1,4.7,0.2c0.2,0.2-1.6,7.4-2.2,7.5c-1.9,0.1-8.2,0.1-10.9,0.1
				c-8.6,0-16.7,0.6-20.8-3.7c-1.7-1.7-2.8-4.7-3.1-6.8c-0.5-3.5,0.1-7.4,0.9-10.6c0.7-2.9,1.7-5.6,3.1-8c3.6-6.3,9.9-11,20.5-9.9
				c2.1,0.2,5,1.1,6.8,2.2c0.1,0.1,0.6,0.4,0.7,0.5C49.4,43.6,51.7,47.4,52.1,50.8z"/>
			<path id="XMLID_20_" class="st3" d="M14,47.2c-0.5,2.4-1,5.1-1.6,7.4H3.7c0.7-2.6,1.2-5.2,1.9-7.4C8.4,47.1,11,47.2,14,47.2"/>
			<path id="XMLID_11_" class="st3" d="M3.5,56.9h8.3c-1.1,6-3.3,15.8-5,22.6c-1.1,4.3-1.8,7.4-4.6,9.6c-0.3,0.2-0.4,0.1-0.6,0.3
				c-0.5,0.5-3,1.1-4.3,1.3c-2.2,0.2-4.7,0.1-7.4,0c0.7-2.6,1.5-5.7,2.2-8c6.6,0.8,6.8-5.4,8-11.5C0.8,67.7,3.1,58.3,3.5,56.9"/>
			<path id="XMLID_10_" class="st2" d="M-16.1,72.8l-0.2,0.5c-3.1,5.9-8.4,9.6-16.2,9.8c-3.6,0.1-7.1-0.9-9.3-1.9
				c-4.8-2.1-9-6.2-11.2-10.5c-3.2-6.2-3.8-14.8,2.9-21.2c0.1,0-0.8,1.4-0.7,1.4l-0.2,0.6c-4.8,15.1,10,27.9,24.3,26.4
				C-23.1,77.4-18.7,75.5-16.1,72.8"/>
			<path id="XMLID_7_" class="st2" d="M-24.7,66.6c3.6,0,7.4-1.7,9.6-4.1c-1.9,5-7.6,8.2-15.2,7.1c-6.3-0.9-12.4-7.2-13-13.6
				c-0.5-4.7,1.1-7.4,3.8-10.8c-0.9,1.8-1.3,3.1-1.4,4C-41.8,59.3-32.8,66.6-24.7,66.6"/>
			<path id="XMLID_6_" class="st2" d="M-15.5,54.1c-0.6,1.3-3.8,3.7-5.2,4c-5.6,1.2-9.2-1.5-11.2-4.5c-0.3-0.5-0.8-1.7-0.9-2
				c-0.7-2.5-0.4-6.3,1.8-8.2c-0.7,1.9-0.7,4-0.4,5.4c0.2,0.9,0.9,2.3,1.5,3.3c1.1,1.7,1.9,2.1,3.4,3c0.7,0.4,1.4,0.7,1.7,0.8
				C-23.4,56.3-20.3,57.4-15.5,54.1"/>
		</g>
	</g>
</g>
<g class="st0">
	<g id="Calque_21_6_" class="st1">
	</g>
	<g id="Calque_9_6_" class="st1">
		<g id="Calque_6_6_">
		</g>
		<g id="Calque_4_6_">
		</g>
	</g>
	<g id="Calque_11_6_" class="st1">
		<g id="Calque_4_-_copie_6_">
		</g>
		<g id="Calque_12_6_">
		</g>
	</g>
	<g id="Calque_11_-_copie_6_" class="st1">
		<g id="Calque_4_-_copie_2_6_">
			<path class="st2" d="M12.8,25.8l8.3,93.3l37.3,10.3l37.5-10.4l8.3-93.2C104.2,25.8,12.8,25.8,12.8,25.8z M88.7,113.7l-30.1,8.2
				l-30.1-8.2L21.3,34h37.2h37.2L88.7,113.7z"/>
		</g>
		<polygon class="st3" points="58.5,44.9 29.9,44.9 30.8,56.6 58.7,56.6 74.5,56.6 71,94 58.7,97.4 58.5,97.4 45.4,93.9 44.6,84.7 
			32.7,84.7 34,103.2 58.6,110 58.5,110 82.1,103.2 87.1,44.9 		"/>
		<g id="Calque_12_-_copie_6_">
			<polygon class="st3" points="40.8,17.7 57.1,17.7 57.1,0.5 49.9,0.5 49.9,11.4 40.8,11.4 			"/>
			<polygon class="st3" points="62.7,17.7 76.2,17.7 76.2,12.4 69.2,6.8 76.2,6.8 76.2,0.5 59.9,0.5 59.9,6.9 67,12.3 59.9,12.3 
				59.9,17.7 76.2,17.7 59.9,17.7 76.2,17.7 			"/>
		</g>
	</g>
	<g id="Calque_16_6_" class="st1">
	</g>
	<g id="Calque_17_6_" class="st1">
	</g>
	<g id="Calque_19_6_" class="st1">
	</g>
	<g id="Calque_20_6_" class="st1">
	</g>
	<g id="Calque_14_6_" class="st1">
	</g>
	<g id="Calque_14_-_copie_6_" class="st1">
	</g>
	<g id="Calque_14_-_copie_3_6_" class="st1">
	</g>
	<g id="Calque_14_-_copie_2_6_" class="st1">
	</g>
	<g id="Calque_14_-_copie_4_6_" class="st1">
	</g>
</g>
<g class="st0">
	<g id="Calque_21_7_" class="st1">
	</g>
	<g id="Calque_9_7_" class="st1">
		<g id="Calque_6_7_">
		</g>
		<g id="Calque_4_7_">
		</g>
	</g>
	<g id="Calque_11_7_" class="st1">
		<g id="Calque_4_-_copie_7_">
		</g>
		<g id="Calque_12_7_">
		</g>
	</g>
	<g id="Calque_11_-_copie_7_" class="st1">
		<g id="Calque_4_-_copie_2_7_">
		</g>
		<g id="Calque_12_-_copie_7_">
		</g>
	</g>
	<g id="Calque_16_7_" class="st1">
	</g>
	<g id="Calque_17_7_" class="st1">
	</g>
	<g id="Calque_19_7_" class="st1">
	</g>
	<g id="Calque_20_7_" class="st1">
	</g>
	<g id="Calque_14_7_" class="st1">
	</g>
	<g id="Calque_14_-_copie_7_" class="st1">
	</g>
	<g id="Calque_14_-_copie_3_7_" class="st1">
	</g>
	<g id="Calque_14_-_copie_2_7_" class="st1">
	</g>
	<g id="Calque_14_-_copie_4_7_" class="st1">
	</g>
	<g id="Calque_22_5_" class="st1">
		<path id="XMLID_15_" class="st3" d="M17.8,108.8h-5.6C11.9,98.6,11.3,89,10.4,80h-0.1l-9.2,28.8h-4.4l-9.2-28.9l0,0
			c-0.7,8.7-1.2,18.3-1.3,28.9h-5.5c0.3-12.9,1.2-25,2.7-36.2h7.5l8.6,26.3h0.1l8.7-26.3h7.1c1.6,13.1,2.5,25,2.8,35.8"/>
		<path id="XMLID_14_" class="st3" d="M43.7,81.6c-2.5,13.2-5.7,22.9-9.6,28.9c-3.1,4.6-6.5,6.9-10.2,6.9c-1,0-2.2-0.3-3.6-0.9v-3.2
			c0.7,0.1,1.6,0.2,2.5,0.2c1.7,0,3.1-0.5,4.2-1.4c1.2-1.2,1.9-2.5,1.9-3.9c0-1-0.5-3-1.5-6.1l-6.6-20.4h5.9l4.7,15.3
			c1.1,3.5,1.5,5.9,1.3,7.2c2.5-6.9,4.4-14.4,5.4-22.5C38.1,81.6,43.7,81.6,43.7,81.6z"/>
		<polygon id="XMLID_13_" class="st2" points="123.9,108.8 106.6,108.8 106.6,72.6 112.4,72.6 112.4,103.9 123.9,103.9 		"/>
		<path id="XMLID_12_" class="st2" d="M102.2,109.3l-6.6-3.2c0.6-0.5,1.2-1,1.6-1.6c2.8-3.3,4.2-8.1,4.2-14.6
			c0-11.8-4.6-17.8-13.9-17.8c-4.5,0-8.1,1.5-10.6,4.5c-2.8,3.3-4.2,8.1-4.2,14.6c0,6.3,1.2,10.9,3.7,13.8c2.2,2.6,5.7,3.9,10.2,3.9
			c1.7,0,3.3-0.2,4.7-0.7l8.6,5L102.2,109.3z M80.9,101.2c-1.5-2.3-2.1-6.1-2.1-11.3c0-9,2.7-13.5,8.2-13.5c2.9,0,4.9,1.1,6.3,3.2
			c1.5,2.3,2.1,6,2.1,11.1c0,9-2.7,13.7-8.2,13.7C84.4,104.4,82.3,103.3,80.9,101.2"/>
		<path id="XMLID_5_" class="st2" d="M70.3,98.5c0,3-1.2,5.5-3.4,7.5c-2.2,2-5.2,2.9-9,2.9c-3.5,0-6.9-1.2-10.2-3.4l1.6-3
			c2.8,1.4,5.3,2.1,7.6,2.1c2.1,0,3.9-0.5,5.1-1.4c1.2-1,2-2.3,2-3.9c0-2.1-1.5-3.9-4.2-5.4c-2.5-1.4-7.5-4.3-7.5-4.3
			c-2.7-2-4.1-4.1-4.1-7.6c0-2.9,1-5.3,3-7c2.1-1.8,4.7-2.7,7.9-2.7c3.3,0,6.3,0.9,9,2.6l-1.4,3c-2.3-1-4.6-1.5-6.9-1.5
			c-1.8,0-3.3,0.4-4.3,1.3c-1,0.9-1.6,2-1.6,3.4c0,2.1,1.5,3.9,4.3,5.5c2.5,1.4,7.6,4.3,7.6,4.3C68.9,92.9,70.3,95,70.3,98.5"/>
		<path id="XMLID_3_" class="st3" d="M131.2,60.7c-3.5-0.1-6.2,0.2-8.4,1.2c-0.7,0.2-1.6,0.2-1.8,1.1c0.3,0.3,0.4,0.9,0.7,1.4
			c0.5,0.9,1.4,2.1,2.2,2.6c0.9,0.7,1.8,1.4,2.8,2c1.6,1.1,3.6,1.6,5.3,2.7c1,0.6,1.9,1.4,2.9,2.1c0.5,0.3,0.7,0.9,1.4,1.2v-0.2
			c0,0-0.7-1-1-1.4c-0.4-0.4-0.9-0.8-1.3-1.2c-1.2-1.6-2.8-3.1-4.5-4.4c-1.4-1-4.4-2.2-4.9-3.9l-0.1-0.1c1-0.1,2.1-0.4,3-0.7
			c1.5-0.4,2.8-0.3,4.4-0.7c0.7-0.2,1.4-0.4,2.1-0.6v-0.3c-0.8-0.7-1.3-1.8-2.1-2.6c-2.2-1.9-4.6-3.8-7.2-5.4
			c-1.3-0.9-3.1-1.4-4.5-2.1c-0.5-0.2-1.4-0.4-1.7-0.8c-0.7-1-1.2-2.2-1.8-3.3c-1.2-2.4-2.5-5-3.6-7.5c-0.7-1.7-1.2-3.4-2.2-5
			c-4.5-7.3-9.3-11.8-16.8-16.3c-1.6-0.9-3.6-1.3-5.5-1.8c-1.1-0.1-2.1-0.2-3.2-0.2c-0.7-0.3-1.4-1.2-2-1.5c-2.5-1.6-8.8-5-10.7-0.5
			c-1.2,2.8,1.7,5.6,2.7,7c0.7,1,1.7,2.1,2.2,3.2c0.3,0.7,0.4,1.5,0.7,2.3c0.7,1.9,1.3,4,2.2,5.8c0.5,0.9,1,1.9,1.6,2.7
			c0.3,0.5,1,0.7,1.1,1.5c-0.6,0.8-0.7,2.1-1,3.2c-1.6,4.9-1,11,1.2,14.6c0.7,1.1,2.3,3.5,4.5,2.6c2-0.7,1.5-3.2,2.1-5.4
			c0.2-0.5,0.1-0.9,0.3-1.2v0.2c0.6,1.2,1.3,2.4,1.8,3.6c1.3,2.1,3.8,4.4,5.7,5.8c1.1,0.7,1.9,2.1,3.2,2.6V63h0
			c-0.3-0.4-0.7-0.6-1-0.8c-0.8-0.7-1.7-1.7-2.3-2.6c-1.8-2.4-3.5-5.1-4.9-7.9c-0.7-1.3-1.3-2.8-1.9-4.1c-0.3-0.5-0.3-1.3-0.7-1.6
			c-0.7,1-1.6,1.8-2.1,3c-0.8,1.9-0.9,4.1-1.3,6.5c-0.2,0.1-0.1,0-0.2,0.1c-1.4-0.3-1.9-1.8-2.4-3c-1.3-3-1.5-8-0.4-11.5
			c0.3-0.9,1.6-3.8,1.1-4.6c-0.3-0.8-1.2-1.3-1.6-2c-0.6-0.8-1.2-1.9-1.6-2.8c-1.1-2.4-1.6-5.1-2.8-7.5c-0.5-1.2-1.4-2.3-2.2-3.3
			c-0.8-1.2-1.8-2-2.4-3.4c-0.3-0.5-0.5-1.2-0.2-1.8c0.1-0.3,0.3-0.5,0.6-0.6c0.6-0.5,2.2,0.2,2.8,0.4c1.6,0.7,3,1.2,4.3,2.1
			c0.6,0.4,1.3,1.2,2.1,1.5h1.2c1.4,0.3,3,0.1,4.3,0.5c2.3,0.7,4.4,1.8,6.3,3c5.7,3.6,10.4,8.7,13.5,14.8c0.5,1,0.7,1.9,1.2,3
			c0.9,2.1,2.1,4.3,3,6.3c0.9,2.1,1.8,4.1,3,5.8c0.7,0.9,3.2,1.4,4.4,1.9c0.8,0.4,2.2,0.7,3,1.2c1.5,0.9,3,2,4.4,3
			c0.6,0.3,2.7,1.4,2.8,2.3"/>
		<path id="XMLID_1_" class="st3" d="M87,22.9c-0.7,0-1.2,0.1-1.8,0.2v0.1h0.1c0.3,0.7,1,1.2,1.4,1.8c0.3,0.7,0.7,1.4,1,2.1l0.1-0.1
			c0.6-0.4,0.9-1.2,0.9-2.1c-0.2-0.3-0.3-0.6-0.5-0.9C87.9,23.5,87.4,23.2,87,22.9"/>
	</g>
	<g id="Calque_23_5_" class="st1">
	</g>
</g>
<g class="st0">
	<g id="Calque_21_8_" class="st1">
	</g>
	<g id="Calque_9_8_" class="st1">
		<g id="Calque_6_8_">
		</g>
		<g id="Calque_4_8_">
		</g>
	</g>
	<g id="Calque_11_8_" class="st1">
		<g id="Calque_4_-_copie_8_">
		</g>
		<g id="Calque_12_8_">
		</g>
	</g>
	<g id="Calque_11_-_copie_8_" class="st1">
		<g id="Calque_4_-_copie_2_8_">
		</g>
		<g id="Calque_12_-_copie_8_">
		</g>
	</g>
	<g id="Calque_16_8_" class="st1">
	</g>
	<g id="Calque_17_8_" class="st1">
	</g>
	<g id="Calque_19_8_" class="st1">
	</g>
	<g id="Calque_20_8_" class="st1">
	</g>
	<g id="Calque_14_8_" class="st1">
	</g>
	<g id="Calque_14_-_copie_8_" class="st1">
	</g>
	<g id="Calque_14_-_copie_3_8_" class="st1">
	</g>
	<g id="Calque_14_-_copie_2_8_" class="st1">
	</g>
	<g id="Calque_14_-_copie_4_8_" class="st1">
	</g>
	<g id="Calque_22_1_" class="st1">
	</g>
	<g id="Calque_23_1_" class="st1">
	</g>
	<g id="Calque_24_3_" class="st1">
	</g>
	<g id="Calque_25_3_" class="st1">
		<path class="st2" d="M58.5,128.9c-1.8,0-3.4-0.4-4.9-1.3L38,118.3c-2.3-1.3-1.2-1.8-0.4-2c3.1-1.1,3.8-1.3,7.1-3.1
			c0.4-0.3,0.8-0.1,1.2,0.1l12,7.1c0.4,0.3,1.1,0.3,1.4,0L106,93.3c0.4-0.3,0.3-1.3,0.3-1.3V37.8c0-0.6-0.3-1.1-0.7-1.2l-46.9-27
			c-0.4-0.3-1.1-0.3-1.4,0l-46.7,27c-0.4,0.3-0.7,0.8-0.7,1.2v54.3c0,0.4,0.3,1.1,0.7,1.3l12.9,7.4c7,3.5,11.4-0.6,11.4-4.7V42.7
			c0-0.7,0.6-1.4,1.4-1.4h6.1c0.7,0,1.4,0.6,1.4,1.4v53.4c0,9.3-5.1,14.6-13.9,14.6c-2.7,0-4.8,0-10.8-2.9l-12.4-7.1
			c-3-1.8-4.9-5.1-4.9-8.6V38c0-3.5,1.9-6.8,4.9-8.6L53.6,2.3c2.9-1.6,7-1.6,9.8,0l46.9,27.2c3,1.8,4.9,5.1,4.9,8.6v54.1
			c0,0-1.9,6.8-4.9,8.6l-46.9,27.1C61.9,128.5,60.1,128.9,58.5,128.9z M73,91.2c-20.3,0-24.5-9.3-24.5-17.2c0-0.7,0.6-1.4,1.4-1.4h6
			c0.7,0,1.2,0.4,1.2,1.1c1,6.2,3.6,9.2,15.9,9.2c9.7,0,13.9-2.2,13.9-7.4c0-3-1.1-5.2-16.3-6.7C58,67.5,50.1,64.7,50.1,54.6
			c0-9.4,7.9-15,21.1-15c14.8,0,22.2,5.1,23.1,16.2c0,0.4-0.1,0.7-0.4,1.1c-0.3,0.3-0.6,0.4-1,0.4h-6c-0.6,0-1.1-0.4-1.2-1.1
			c-1.4-6.4-5-8.5-14.5-8.5c-10.7,0-11.9,3.7-11.9,6.5c0,3.4,1.5,4.4,15.9,6.3c14.1,1.9,20.9,4.6,20.9,14.6
			C96,85.4,87.7,91.2,73,91.2z"/>
	</g>
</g>
<g class="st0">
	<g id="Calque_21_9_" class="st1">
	</g>
	<g id="Calque_9_9_" class="st1">
		<g id="Calque_6_9_">
		</g>
		<g id="Calque_4_9_">
		</g>
	</g>
	<g id="Calque_11_9_" class="st1">
		<g id="Calque_4_-_copie_9_">
		</g>
		<g id="Calque_12_9_">
		</g>
	</g>
	<g id="Calque_11_-_copie_9_" class="st1">
		<g id="Calque_4_-_copie_2_9_">
		</g>
		<g id="Calque_12_-_copie_9_">
		</g>
	</g>
	<g id="Calque_16_9_" class="st1">
	</g>
	<g id="Calque_17_9_" class="st1">
	</g>
	<g id="Calque_19_9_" class="st1">
	</g>
	<g id="Calque_20_9_" class="st1">
	</g>
	<g id="Calque_14_9_" class="st1">
	</g>
	<g id="Calque_14_-_copie_9_" class="st1">
	</g>
	<g id="Calque_14_-_copie_3_9_" class="st1">
	</g>
	<g id="Calque_14_-_copie_2_9_" class="st1">
	</g>
	<g id="Calque_14_-_copie_4_9_" class="st1">
	</g>
	<g id="Calque_22_2_" class="st1">
	</g>
	<g id="Calque_23_2_" class="st1">
		<g>
			<path class="st2" d="M58.5,27.8c-39,0-70.7,16.6-70.7,37.2s31.7,37.2,70.7,37.2s70.7-16.6,70.7-37.2S97.5,27.8,58.5,27.8z
				 M63,77.4c-0.3,0-0.7-0.2-0.8-0.4c-0.3-0.3-0.3-0.6-0.3-0.9l3.3-16.6c0.4-2.1,0.1-2.8-0.2-2.9c-0.2-0.2-0.9-0.7-3.3-0.7h-5.6
				l-4,20.6c-0.1,0.5-0.6,0.9-1.1,0.9h-8c-0.3,0-0.7-0.2-0.8-0.4C42,76.7,42,76.4,42,76.1l1.5-7.4c-0.9,1.6-2.1,3-3.5,4.3
				c-1.7,1.7-3.7,2.8-5.8,3.5s-4.7,1-7.9,1h-6l-1.7,9c-0.1,0.5-0.6,0.9-1.1,0.9H9.3c-0.3,0-0.7-0.2-0.8-0.4
				c-0.2-0.2-0.3-0.6-0.2-0.9l7.3-37.5c0.1-0.5,0.6-0.9,1.1-0.9h15.7c5,0,8.7,1.4,11,4c1.3,1.5,2.1,3.2,2.4,5.2l3.5-18.3
				c0.1-0.5,0.6-0.9,1.1-0.9h8.1c0.3,0,0.7,0.2,0.8,0.4c0.2,0.2,0.3,0.6,0.2,0.9l-1.7,8.6h6c4.9,0,8.2,0.8,10.1,2.7
				c2,1.8,2.7,4.8,1.9,8.7l-3.4,17.5c-0.1,0.5-0.6,0.9-1.1,0.9H63L63,77.4z M109,63.2c-0.4,1.9-1,3.7-1.9,5.3s-2.1,3.1-3.6,4.4
				c-1.7,1.7-3.7,2.8-5.8,3.5c-2.1,0.7-4.7,1-8,1h-6l-1.7,9c-0.1,0.5-0.6,0.9-1.1,0.9h-8.1c-0.3,0-0.7-0.2-0.8-0.4
				c-0.2-0.2-0.3-0.6-0.2-0.9L79,48.5c0.1-0.5,0.6-0.9,1.1-0.9h15.6c5.1,0,8.8,1.4,11.1,4.1C109.2,54.6,109.9,58.4,109,63.2z"/>
			<path class="st2" d="M29.1,55.9h-4.6l-2.5,13.2h3.6c2.9,0,5.1-0.6,6.5-1.6c1.4-1.1,2.3-2.9,2.8-5.5c0.5-2.4,0.3-4-0.5-4.8
				C33.8,56.6,32.5,55.9,29.1,55.9z"/>
			<path class="st2" d="M92.5,55.9h-4.6l-2.5,13.2H89c2.9,0,5.1-0.6,6.5-1.6c1.4-1.1,2.3-2.9,2.8-5.5l0,0c0.5-2.4,0.3-4-0.5-4.8
				C97.2,56.6,95.8,55.9,92.5,55.9z"/>
		</g>
		<path id="XMLID_17_" class="st3" d="M29.1,54.2c3.1,0,5.2,0.6,6.2,1.7c1,1.2,1.2,3.1,0.7,5.9c-0.6,2.9-1.7,5-3.2,6.2
			S28.7,70,25.5,70h-5l3.1-15.7L29.1,54.2L29.1,54.2z M9.3,85.7h8.1l1.9-9.9h7c3.1,0,5.6-0.3,7.6-1s3.8-1.7,5.4-3.2
			c1.3-1.2,2.5-2.6,3.3-4.1s1.4-3.1,1.8-4.9c0.8-4.4,0.2-7.8-1.9-10.3c-2.1-2.5-5.5-3.7-10.2-3.7H16.6L9.3,85.7"/>
		<path id="XMLID_16_" class="st3" d="M50.6,38.5h7.8l-1.9,9.9h7.2c4.5,0,7.6,0.8,9.3,2.4c1.7,1.6,2.2,4.1,1.6,7.6l-3.4,17.3H63
			l3.3-16.7c0.3-1.9,0.3-3.2-0.4-3.8c-0.7-0.7-2-1-4.1-1h-6.4l-4.2,21.5h-8l7.2-37.5"/>
		<path id="XMLID_4_" class="st3" d="M92.5,54.2c3.1,0,5.2,0.6,6.2,1.7c1,1.2,1.2,3.1,0.7,5.9c-0.6,2.9-1.7,5-3.2,6.2
			S92.2,70,88.9,70h-5L87,54.2L92.5,54.2L92.5,54.2z M73,85.7h7.9l1.9-9.9h7c3.1,0,5.6-0.3,7.6-1c2-0.7,3.8-1.7,5.4-3.2
			c1.3-1.2,2.5-2.6,3.3-4.1s1.4-3.1,1.8-4.9c0.8-4.4,0.2-7.8-1.9-10.3s-5.5-3.7-10.2-3.7H80l-7.3,37.3"/>
	</g>
</g>
<g class="st0">
	<g id="Calque_21_10_" class="st1">
	</g>
	<g id="Calque_9_10_" class="st1">
		<g id="Calque_6_10_">
		</g>
		<g id="Calque_4_10_">
		</g>
	</g>
	<g id="Calque_11_10_" class="st1">
		<g id="Calque_4_-_copie_10_">
		</g>
		<g id="Calque_12_10_">
		</g>
	</g>
	<g id="Calque_11_-_copie_10_" class="st1">
		<g id="Calque_4_-_copie_2_10_">
		</g>
		<g id="Calque_12_-_copie_10_">
		</g>
	</g>
	<g id="Calque_16_10_" class="st1">
	</g>
	<g id="Calque_17_10_" class="st1">
	</g>
	<g id="Calque_19_10_" class="st1">
	</g>
	<g id="Calque_20_10_" class="st1">
	</g>
	<g id="Calque_14_10_" class="st1">
	</g>
	<g id="Calque_14_-_copie_10_" class="st1">
	</g>
	<g id="Calque_14_-_copie_3_10_" class="st1">
	</g>
	<g id="Calque_14_-_copie_2_10_" class="st1">
	</g>
	<g id="Calque_14_-_copie_4_10_" class="st1">
		<path class="st2" d="M7.8,15.6v98.8h101.4V15.6H7.8z M100.6,106.6h-85V23.4h85L100.6,106.6L100.6,106.6z"/>
		<path class="st3" d="M45.5,42.6c-5.2,0-11.7,1-11.7,1v41.3h7.8V69c0,0,0.6,0.4,3.6,0.4c6.3,0,17.8-1.7,17.8-14
			C63,43.3,50.7,42.6,45.5,42.6z M41.6,63.4V49.3c0,0,12.9-3,12.9,6.8C54.5,66,41.6,63.4,41.6,63.4z"/>
		<path class="st3" d="M66.1,85.8h7.5V69.3c0,0,0.5-7.9,7.5-7.9c1.5,0,2.1,0.4,2.1,0.4v-7.7c0,0-0.7-0.3-1.9-0.3
			c-1.3,0-6.5,1-8.4,6.7l-0.2-6h-6.9L66.1,85.8z"/>
	</g>
</g>
<g class="st0">
	<g id="Calque_21_11_" class="st1">
	</g>
	<g id="Calque_9_11_" class="st1">
		<g id="Calque_6_11_">
		</g>
		<g id="Calque_4_11_">
		</g>
	</g>
	<g id="Calque_11_11_" class="st1">
		<g id="Calque_4_-_copie_11_">
		</g>
		<g id="Calque_12_11_">
		</g>
	</g>
	<g id="Calque_11_-_copie_11_" class="st1">
		<g id="Calque_4_-_copie_2_11_">
		</g>
		<g id="Calque_12_-_copie_11_">
		</g>
	</g>
	<g id="Calque_16_11_" class="st1">
	</g>
	<g id="Calque_17_11_" class="st1">
	</g>
	<g id="Calque_19_11_" class="st1">
	</g>
	<g id="Calque_20_11_" class="st1">
	</g>
	<g id="Calque_14_11_" class="st1">
		<path class="st2" d="M7.8,15.2v99.7h101.4V15.2H7.8z M101.4,107H15.6V23.8h85.8V107z"/>
		<path class="st3" d="M46.3,42.8c-5.1,0-11.6,1-11.6,1v41.5h7.8v-16c0,0,0.6,0.4,3.6,0.4c6.2,0,17.6-1.7,17.6-14
			C63.7,43.5,51.5,42.8,46.3,42.8z M42.5,63.3V49c0,0,13-3,13,6.8C55.5,65.9,42.5,63.3,42.5,63.3z"/>
		<path class="st3" d="M82.5,61.3l1.5-5.4c0,0-1.6-1.8-8.3-1.8s-11.3,4.2-11.3,9.6s4.9,7.5,7.3,8.6c2.4,1,6.2,1.6,6.2,4.7
			s-3.2,3.4-5,3.4c-3.3,0-7.6-2.1-7.6-2.1l-1.6,5.4c0,0,2.8,2.3,9.3,2.3c6.5,0,12.5-2.9,12.5-9.6c0-6.8-7.1-9-7.1-9
			s-6.3-1.3-6.3-4.5c0-3.2,4.2-3.2,4.2-3.2C79,59.7,82.5,61.3,82.5,61.3z"/>
	</g>
	<g id="Calque_14_-_copie_11_" class="st1">
	</g>
	<g id="Calque_14_-_copie_3_11_" class="st1">
	</g>
	<g id="Calque_14_-_copie_2_11_" class="st1">
	</g>
	<g id="Calque_14_-_copie_4_11_" class="st1">
	</g>
</g>
<g class="st0">
	<path class="st4" d="M121,63.5c0,1.9-0.1,3.8-0.3,5.8c-0.1,1.5-0.4,2.9-0.5,4.4c-4.8,29.7-30.6,52.3-61.6,52.3
		c-15.8,0-30.3-5.9-41.2-15.5c-4-3.6-7.7-7.7-10.7-12.2C-0.2,88.3-4,76.4-4,63.5C-4,29,24,1,58.5,1S121,29,121,63.5z"/>
	<path class="st5" d="M105.1,70.6c-1.9,0.7-1.8,0.7-2.8-1.1c-1.3-2.3-1.9-4.8-2-7.4c-0.1-2.3,0.5-4.4,1.4-6.5
		c0.6-1.6-0.2-2.2-1.6-2.4c-1-0.1-2.1-0.1-3.2,0c-2.7,0.3-3,0.5-3.7,3.1c-0.5,1.6-0.7,3.1-1.5,4.7c-1.7,3.7-3.7,7.2-5.8,10.7
		c-0.4,0.6-0.6,1.3-1.2,1.8c-1.5-2.2-2-4.7-2.2-7.2c-0.1-2.6,0.6-4.9,1.5-7.2c0.3-0.8,0.1-1.3-0.6-1.6c-0.3-0.2-0.6-0.3-1-0.3
		c-1.7-0.2-3.5-0.1-5.2,0.4c-0.7,0.2-1.3,0.6-1.5,1.5c-0.4,1.6-0.8,3.3-1.6,4.8c-1.9,4.4-3.8,8.7-5.8,13.1
		c-1.6,3.7-3.4,7.6-5.3,11.2c-0.2,0.3-0.3,0.7-0.6,0.6C61.9,88.7,62,88.3,62,88c-0.1-2.1,0.5-4.2,1-6.2c0.8-3.2,1.6-6.5,2.5-9.7
		c0.3-0.9-0.2-1.6-0.9-2c-1.1-0.6-2.2-0.6-3.4,0.2c0.2-1.3,0.3-2.5,0.2-3.7c-0.1-2.6-1.3-4.2-3.4-4.7c-1.6-0.3-2.9,0.2-4.3,0.8
		c-3.2,1.5-5.7,3.7-7.9,6.5c-0.3,0.3-0.5,0.6-0.8,0.8c-4,2.2-8,4.4-12,6.6c-0.5,0.3-0.7,0.2-1-0.2c-2-2.2-4.4-3.9-6.7-5.8
		c-3.2-2.6-6.6-4.9-9.4-8c-1.6-1.8-3-3.7-3.7-6.1c-1.1-3.8-0.3-7.5,1.6-10.9c2.2-4,5.4-7.1,9.1-10c5.7-4.4,11.9-8,18.5-10.8
		c7.4-3.2,15-5.3,23.1-5c3.2,0.1,6.3,0.6,9.2,2.3c2,1.1,3.4,2.7,3.7,5.1c0.5,2.7-0.2,5.3-1.5,7.8c-2.7,5.4-7.1,9.2-12.3,12.3
		c-4.3,2.5-9,4.1-13.9,4.9c-2.7,0.5-5.5,0.7-8.1,0.4c-3.1-0.5-6-1.6-8.1-4c-0.3-0.3-0.5-0.5-1-0.3c-0.5,0.2-0.4,0.5-0.4,0.9
		c0,0.3,0.1,0.5,0.2,0.7c0.5,1.6,1.6,2.7,2.9,3.7c3.3,2.7,7.1,3.5,11.2,3.5c4,0.1,7.9-0.5,11.8-1.4c8.8-2.1,16.1-6.4,21.4-13.7
		c3.2-4.4,5.2-9.2,5-14.8c-0.1-3.5-1.3-6.6-3.8-9.1c-3.1-2.9-6.9-4.4-10.9-5.3c-4.5-1-9.1-1.2-13.7-0.6c-4,0.5-8,1.3-11.7,2.7
		c-5.9,2-11.5,4.5-16.9,7.5c-5.5,3.1-10.7,6.6-15.3,11c-4,3.9-7.5,8.2-9.5,13.5c-0.8,2.3-1.5,4.7-0.9,7.1c0.7,3.2,2.3,5.9,4.4,8.4
		c3.1,3.7,6.9,6.8,10.9,9.6c3.2,2.3,6.5,4.4,9.5,6.8c0.8,0.7,0.8,0.7-0.2,1.2c-1.2,0.6-2.4,1.2-3.6,1.9c-4.8,2.7-9.2,5.6-13,9.6
		c-1.8,2-3.1,4.2-3.7,6.7c3,4.5,6.6,8.6,10.7,12.2c6.9-0.5,12.3-4.1,16.2-10.2c1.9-2.9,2.7-6.1,3.1-9.6c0.3-3,0-5.9-0.9-8.9
		c-0.2-0.5-0.7-1-0.5-1.5s0.8-0.6,1.3-0.9c1.9-1.1,3.7-2.2,5.8-3.3c0.1,0.5-0.1,0.6-0.2,0.9c-1.1,4.1-1.9,8.2-1,12.5
		c0.5,2.7,1.4,5.1,3.1,7.3c1.7,2.3,5.6,2,7.1-0.1c1.5-1.9,2.5-4.2,3.5-6.4c0.5-1.2,1.1-2.5,1.6-3.7c-0.1,1.5-0.1,2.9,0,4.3
		c0.1,1.4,0.3,2.7,1,4c0.9,1.5,2.6,1.9,4,1.1c1.6-0.8,2.7-2.2,3.6-3.7c3.7-6.5,7-13.1,9.9-19.9c0.6-1.5,1.2-2.9,1.9-4.6
		c0.1,0.5,0.2,0.8,0.3,1.2c0.6,3.3,1.7,6.4,3.4,9.3c0.4,0.6,0.3,1.1-0.1,1.6c-1.5,2-3.1,3.9-4.8,5.9c-1.4,1.6-2.8,3.2-3.9,4.9
		c-1,1.6-0.5,3.3,1.3,3.7c0.5,0.1,1.1,0.2,1.6,0.2c3,0,5.8-0.9,8.3-2.4c3.5-2,5.5-4.8,5.4-9c0-1.8-0.5-3.7-1.3-5.4
		c-0.2-0.4-0.2-0.6,0.1-1c2.4-3.4,4.5-7,6.4-10.7c0.4-0.6,0.5-1.4,1.1-2c0.1,0.3,0.1,0.5,0.2,0.5c0.6,3,1.5,6,3,8.8
		c0.5,0.7,0.2,1.1-0.4,1.6c-2,1.7-3.7,3.7-5.1,6c-1,1.8-1.7,3.7-1.7,5.9c0,2.4,1.8,3.7,4.1,3.2c2.4-0.5,4.6-1.6,6.6-3
		c4.3-3.2,5.6-6.5,4.2-11.2c-0.5-1.8-0.5-1.8,1.3-2.4c4-1.2,8.1-1.3,12.2-0.6c0.5,0.1,0.9,0.2,1.4,0.3c0.3-1.5,0.5-2.9,0.5-4.4
		C115.4,68,110.2,68.6,105.1,70.6z M20,103.4c-1.2,0.5-2.4,0.5-3.7,0.5c-1.6-0.1-2.6-1.2-2.7-2.8c-0.1-1.9,0.5-3.6,1.3-5.2
		c1.5-3,4-5,6.6-7c2.5-1.9,5.2-3.7,7.9-5.2c0.8-0.5,0.8-0.5,1,0.5c0.3,1.3,0.5,2.6,0.4,3.7C31.2,94.6,26.3,101.3,20,103.4z
		 M57.5,68.8c-0.5,2.9-1.4,5.7-2.4,8.4c-1.4,3.7-2.7,7.5-4.5,11.1c-0.4,0.8-0.8,1.6-1.5,2.3c-0.6,0.6-1.1,0.5-1.6-0.2
		c-0.8-1.6-0.7-3.2-0.8-4.4c0-6.1,2.1-11.2,5.5-15.6c0.9-1.3,2.2-2.3,3.7-2.7C57.2,67.2,57.6,67.6,57.5,68.8z M81.2,87
		c-1.2,2-2.8,3.5-4.9,4.5c-0.2,0.1-0.5,0.3-0.7,0.1c-0.2-0.3,0.1-0.4,0.3-0.5c2-2.2,4-4.5,5.9-6.9c0,0,0.1,0,0.3-0.1
		C82,85.1,81.8,86.1,81.2,87z M95.4,86.9c-0.3,0.2-0.6,0.4-0.9,0.2c-0.4-0.3-0.2-0.7-0.1-1c0.5-1.6,1.1-3,1.9-4.5
		c0.7-1.2,1.6-2.2,2.7-3.1c0.4-0.4,0.5-0.4,0.7,0.2c0.2,0.5,0.2,1.1,0.2,1.7C99.7,83.5,98.1,85.5,95.4,86.9z"/>
</g>
<g class="st0">
	<g id="Calque_21_12_" class="st1">
	</g>
	<g id="Calque_9_12_" class="st1">
		<g id="Calque_6_12_">
		</g>
		<g id="Calque_4_12_">
		</g>
	</g>
	<g id="Calque_11_12_" class="st1">
		<g id="Calque_4_-_copie_12_">
		</g>
		<g id="Calque_12_12_">
		</g>
	</g>
	<g id="Calque_11_-_copie_12_" class="st1">
		<g id="Calque_4_-_copie_2_12_">
		</g>
		<g id="Calque_12_-_copie_12_">
		</g>
	</g>
	<g id="Calque_16_12_" class="st1">
	</g>
	<g id="Calque_17_12_" class="st1">
		<g>
			<polygon class="st2" points="8.5,65 8.5,115 58.5,115 108.5,115 108.5,65 108.5,15 58.5,15 8.5,15 			"/>
			<path class="st3" d="M30.5,65.4v3.9h6.4h6.7v18.4v18.4h4.8h4.8V87.8V69.4h5.8h6.5v-3.9c0-2.1-0.1-3.9-0.1-3.9
				c-0.1-0.1-7.9-0.1-17.5-0.1l-17.4,0.1L30.5,65.4z"/>
			<path class="st3" d="M89.3,61.2c2.5,0.6,4.5,1.8,6.2,3.6c1,1,2.3,2.8,2.4,3.2c0,0.1-4.3,3.1-6.9,4.7c-0.1,0.1-0.4-0.4-0.9-1
				c-1.3-1.8-2.6-2.7-4.7-2.8c-3.1-0.2-5,1.4-5,4c0,0.8,0.1,1.2,0.4,1.8c0.7,1.4,1.9,2.2,5.8,3.9c7.2,3.1,10.3,5.1,12.2,8
				c2.1,3.2,2.6,8.4,1.1,12.2c-1.6,4.2-5.5,7-11,8c-1.8,0.3-5.8,0.3-7.6-0.1c-4-0.7-7.8-2.7-10.2-5.3c-1-1.1-2.7-3.7-2.6-3.9
				c0.1-0.1,0.4-0.4,1-0.6c0.4-0.3,2.1-1.2,3.7-2.1l2.9-1.7l0.6,0.9c0.9,1.3,2.7,3.1,3.8,3.7c3.2,1.7,7.6,1.5,9.7-0.5
				c1-0.9,1.3-1.8,1.3-3c0-1.1-0.2-1.7-0.8-2.5c-0.8-1.1-2.4-2-6.9-4c-5.2-2.2-7.4-3.6-9.5-5.8c-1.1-1.3-2.3-3.3-2.7-5
				c-0.4-1.4-0.4-5-0.2-6.4c1.1-5,4.8-8.5,10.3-9.5C83.6,60.7,87.7,60.8,89.3,61.2z"/>
		</g>
	</g>
	<g id="Calque_19_12_" class="st1">
	</g>
	<g id="Calque_20_12_" class="st1">
	</g>
	<g id="Calque_14_12_" class="st1">
	</g>
	<g id="Calque_14_-_copie_12_" class="st1">
	</g>
	<g id="Calque_14_-_copie_3_12_" class="st1">
	</g>
	<g id="Calque_14_-_copie_2_12_" class="st1">
	</g>
	<g id="Calque_14_-_copie_4_12_" class="st1">
	</g>
</g>
<g class="st0">
	<g id="Calque_21_13_" class="st1">
	</g>
	<g id="Calque_9_13_" class="st1">
		<g id="Calque_6_13_">
		</g>
		<g id="Calque_4_13_">
		</g>
	</g>
	<g id="Calque_11_13_" class="st1">
		<g id="Calque_4_-_copie_13_">
		</g>
		<g id="Calque_12_13_">
		</g>
	</g>
	<g id="Calque_11_-_copie_13_" class="st1">
		<g id="Calque_4_-_copie_2_13_">
		</g>
		<g id="Calque_12_-_copie_13_">
		</g>
	</g>
	<g id="Calque_16_13_" class="st1">
		<path class="st3" d="M117.9,52.3L104.4,2.4L54.3,15.7l-7.4,13.1l-15.1-0.1L-4.8,65.3l36.6,36.5l0,0l15.1-0.1l7.4,13.1l50.1,13.4
			l13.4-49.9l-7.6-13L117.9,52.3z M97.3,102.8l-2.3,8.3l-8.4-2.2l-38.5-9.7L20.4,71l-6.1-6.2l6.1-6.2l27.7-28.2l38.4-9.8l8.4-2.2
			l2.3,8.3l10.7,38.1L97.3,102.8z"/>
		<polygon class="st2" points="74.6,64.8 96,101.6 93.6,109.7 85.5,107.6 64.2,70.8 21.5,70.8 15.6,64.8 21.5,58.8 64.2,58.8 
			85.5,21.9 93.6,19.9 96,27.9 		"/>
	</g>
	<g id="Calque_17_13_" class="st1">
	</g>
	<g id="Calque_19_13_" class="st1">
	</g>
	<g id="Calque_20_13_" class="st1">
	</g>
	<g id="Calque_14_13_" class="st1">
	</g>
	<g id="Calque_14_-_copie_13_" class="st1">
	</g>
	<g id="Calque_14_-_copie_3_13_" class="st1">
	</g>
	<g id="Calque_14_-_copie_2_13_" class="st1">
	</g>
	<g id="Calque_14_-_copie_4_13_" class="st1">
	</g>
</g>
<g>
	<g id="Calque_21_14_">
	</g>
	<g id="Calque_9_14_">
		<g id="Calque_6_14_">
		</g>
		<g id="Calque_4_14_">
		</g>
	</g>
	<g id="Calque_11_14_">
		<g id="Calque_4_-_copie_14_">
		</g>
		<g id="Calque_12_14_">
		</g>
	</g>
	<g id="Calque_11_-_copie_14_">
		<g id="Calque_4_-_copie_2_14_">
		</g>
		<g id="Calque_12_-_copie_14_">
		</g>
	</g>
	<g id="Calque_16_14_">
	</g>
	<g id="Calque_17_14_">
	</g>
	<g id="Calque_19_14_">
	</g>
	<g id="Calque_20_14_">
		<g>
			<path class="st2" d="M113.7,100.2L61,130v-23.2l32.8-18.1L113.7,100.2z M117,96.4V35.1L98,46v39.5L117,96.4z M3.3,100.2L56,130
				v-23.2L23.1,88.7L3.3,100.2z M0,96.4V35.1L19,46v39.5L0,96.4z M1.9,30.6L56,0v22.4l-34.6,19l-0.3,0.2L1.9,30.6z M115,30.6L61,0
				v22.4l34.6,19.1l0.3,0.2L115,30.6z"/>
			<path class="st3" d="M56,101.2L24,83.6V48.7l32,18.5C56,67.2,56,101.2,56,101.2z M61,101.2l32-17.6V48.7L61,67.2V101.2z
				 M26.1,44.3l32.5-17.9l32.5,17.9L58.6,63.1L26.1,44.3z"/>
		</g>
	</g>
	<g id="Calque_14_14_">
	</g>
	<g id="Calque_14_-_copie_14_">
	</g>
	<g id="Calque_14_-_copie_3_14_">
	</g>
	<g id="Calque_14_-_copie_2_14_">
	</g>
	<g id="Calque_14_-_copie_4_14_">
	</g>
</g>
</svg>
